M48
; DRILL file {KiCad (5.1.4)-1} date 10/12/2019 10:16:08
; FORMAT={-:-/ absolute / inch / decimal}
; #@! TF.CreationDate,2019-12-10T10:16:08+01:00
; #@! TF.GenerationSoftware,Kicad,Pcbnew,(5.1.4)-1
; #@! TF.FileFunction,Plated,1,2,PTH
FMAT,2
INCH
T1C0.0200
T2C0.0300
T3C0.0315
T4C0.0354
T5C0.0394
T6C0.1000
%
G90
G05
T1
X1.285Y-3.2791
X1.285Y-3.3374
X1.2941Y-3.6803
X1.2941Y-3.6803
X1.3488Y-3.6803
X1.3846Y-3.4713
X1.3846Y-3.5343
X1.4886Y-3.337
X1.4886Y-3.2693
X1.511Y-3.226
X1.528Y-2.4921
X1.532Y-3.6803
X1.535Y-3.2693
X1.535Y-3.2693
X1.545Y-2.5671
X1.5575Y-3.4756
X1.5575Y-3.5492
X1.5846Y-3.337
X1.5945Y-3.6803
X1.8855Y-2.4465
X1.9094Y-2.6386
X2.0102Y-3.2272
X2.0268Y-3.2776
X2.0268Y-3.3374
X2.0449Y-2.5114
X2.0449Y-2.6341
X2.1965Y-3.4496
X2.2843Y-2.4126
X2.2843Y-2.4126
X2.2937Y-4.2618
X2.3102Y-2.8976
X2.3102Y-2.8976
X2.3102Y-2.9587
X2.3357Y-2.4126
X2.3957Y-3.561
X2.3957Y-3.561
X2.4213Y-3.3465
X2.4454Y-3.8162
X2.4457Y-3.6362
X2.4579Y-3.9165
X2.4961Y-3.3465
X2.5976Y-3.321
X2.5976Y-3.4334
X2.6079Y-3.8189
X2.6079Y-3.8189
X2.6402Y-3.9264
X2.7205Y-3.311
X2.7205Y-3.437
X2.7362Y-4.0421
X2.7689Y-4.1016
X2.9709Y-4.102
X2.9709Y-4.102
X2.9709Y-4.1992
X2.9992Y-4.0421
X3.1969Y-3.0362
X3.2205Y-2.1417
X3.2949Y-3.1343
X3.3543Y-3.3543
X3.3543Y-3.437
X3.3898Y-2.1417
X3.4606Y-3.7874
X3.4764Y-3.378
X3.4764Y-3.4294
X3.4764Y-3.4294
T2
X3.0799Y-4.315
X3.1799Y-4.315
X2.2937Y-4.1496
X2.3937Y-4.1496
X2.4937Y-4.1496
X3.45Y-4.0994
X3.55Y-4.0994
X2.7689Y-4.315
X2.8689Y-4.315
X2.66Y-3.1
T3
X2.6531Y-3.4079
X2.6531Y-3.5063
X1.9764Y-2.5346
X1.9764Y-2.8346
X3.5508Y-3.4039
X3.5508Y-3.7039
X2.2598Y-2.5307
X2.2598Y-2.8307
X1.185Y-4.0236
X1.485Y-4.0236
X1.4598Y-2.4567
X1.7598Y-2.4567
X2.7835Y-3.4075
X2.7835Y-3.7075
X2.2476Y-3.4118
X2.2476Y-3.5102
X2.1181Y-2.5315
X2.1181Y-2.8315
X1.4209Y-3.8909
X1.7209Y-3.8909
X3.039Y-3.4079
X3.039Y-3.5063
X1.6575Y-4.0236
X1.9575Y-4.0236
X3.25Y-3.9449
X3.55Y-3.9449
X2.4606Y-2.8307
X2.4606Y-2.9291
X2.1299Y-4.024
X2.4299Y-4.024
X3.4169Y-3.4039
X3.4169Y-3.5024
X2.1295Y-3.4118
X2.1295Y-3.7118
X2.9287Y-3.4079
X2.9287Y-3.7079
X2.3697Y-3.411
X2.3697Y-3.711
X1.8937Y-3.8902
X2.1937Y-3.8902
X3.1531Y-3.4071
X3.1531Y-3.7071
X3.2949Y-3.4031
X3.2949Y-3.7031
X2.5272Y-3.4079
X2.5272Y-3.7079
T4
X1.3213Y-4.2244
X1.4213Y-4.2244
X1.085Y-4.2244
X1.185Y-4.2244
X1.5575Y-4.2244
X1.6575Y-4.2244
X2.0299Y-4.2244
X2.1299Y-4.2244
X1.7937Y-4.2244
X1.8937Y-4.2244
T5
X3.5591Y-1.4512
X3.5591Y-1.5512
X3.5591Y-1.1362
X3.5591Y-1.2362
X1.135Y-3.4
X1.235Y-3.4
X1.335Y-3.4
X1.435Y-3.4
X1.535Y-3.4
X1.635Y-3.4
X3.5591Y-1.7661
X3.5591Y-1.8661
X1.36Y-2.3
X1.36Y-3.1
X1.46Y-2.3
X1.46Y-3.1
X1.56Y-2.3
X1.56Y-3.1
X1.66Y-2.3
X1.66Y-3.1
X1.76Y-2.3
X1.76Y-3.1
X1.86Y-2.3
X1.86Y-3.1
X1.96Y-2.3
X1.96Y-3.1
X2.06Y-2.3
X2.06Y-3.1
X2.16Y-2.3
X2.16Y-3.1
X2.26Y-2.3
X2.26Y-3.1
X2.36Y-2.3
X2.36Y-3.1
X2.46Y-2.3
X2.46Y-3.1
X2.56Y-2.3
X2.56Y-3.1
X2.66Y-2.3
X1.7791Y-3.4
X1.8791Y-3.4
T6
X3.2717Y-1.4528
T0
M30
