%FSLAX45Y45*%
G04 Gerber Fmt 4.5, Leading zero omitted, Abs format (unit mm)*
G04 Created by KiCad (PCBNEW (5.1.4)-1) date 2019-12-10 10:16:07*
%MOMM*%
%LPD*%
G04 APERTURE LIST*
%ADD10C,0.100000*%
%ADD11C,0.200000*%
%ADD12C,0.300000*%
G04 APERTURE END LIST*
D10*
X4572600Y-5207000D02*
X4572600Y-5461000D01*
X3302600Y-5207000D02*
X3302600Y-5461000D01*
X3302600Y-5207000D02*
X4572600Y-5207000D01*
X3302600Y-5461000D02*
X4572600Y-5461000D01*
X5334000Y-5461000D02*
X5334000Y-5207000D01*
X6604000Y-5207000D02*
X6604000Y-5461000D01*
X5334000Y-5207000D02*
X6604000Y-5207000D01*
X5334000Y-5461000D02*
X6604000Y-5461000D01*
X2870200Y-6985000D02*
X3886200Y-6985000D01*
X3886200Y-6731000D02*
X2870200Y-6731000D01*
X2870200Y-6731000D02*
X2870200Y-6985000D01*
X2540000Y-11176000D02*
X9398000Y-11176000D01*
X9398000Y-2540000D02*
X9398000Y-11176000D01*
X2540000Y-2540000D02*
X2540000Y-11176000D01*
X3886200Y-6731000D02*
X3886200Y-6985000D01*
X2540000Y-2540000D02*
X9398000Y-2540000D01*
D11*
X8716500Y-7764000D02*
X8936500Y-7984000D01*
X8936500Y-7764000D02*
X8716500Y-7984000D01*
X3001500Y-5732000D02*
X3221500Y-5952000D01*
X3221500Y-5732000D02*
X3001500Y-5952000D01*
X8716500Y-5732000D02*
X8936500Y-5952000D01*
X8936500Y-5732000D02*
X8716500Y-5952000D01*
X3001500Y-7764000D02*
X3221500Y-7984000D01*
X3221500Y-7764000D02*
X3001500Y-7984000D01*
X4480460Y-6858000D02*
G75*
G03X4480460Y-6858000I-165000J0D01*
G01*
X7781500Y-8001000D02*
G75*
G03X7781500Y-8001000I-165000J0D01*
G01*
X7782460Y-5715000D02*
G75*
G03X7782460Y-5715000I-165000J0D01*
G01*
D12*
X2821428Y-11646714D02*
X2821428Y-11346714D01*
X2892857Y-11346714D01*
X2935714Y-11361000D01*
X2964286Y-11389571D01*
X2978571Y-11418143D01*
X2992857Y-11475286D01*
X2992857Y-11518143D01*
X2978571Y-11575286D01*
X2964286Y-11603857D01*
X2935714Y-11632429D01*
X2892857Y-11646714D01*
X2821428Y-11646714D01*
X3121428Y-11646714D02*
X3121428Y-11446714D01*
X3121428Y-11503857D02*
X3135714Y-11475286D01*
X3150000Y-11461000D01*
X3178571Y-11446714D01*
X3207143Y-11446714D01*
X3307143Y-11646714D02*
X3307143Y-11446714D01*
X3307143Y-11346714D02*
X3292857Y-11361000D01*
X3307143Y-11375286D01*
X3321428Y-11361000D01*
X3307143Y-11346714D01*
X3307143Y-11375286D01*
X3492857Y-11646714D02*
X3464286Y-11632429D01*
X3450000Y-11603857D01*
X3450000Y-11346714D01*
X3650000Y-11646714D02*
X3621428Y-11632429D01*
X3607143Y-11603857D01*
X3607143Y-11346714D01*
X3992857Y-11646714D02*
X3992857Y-11346714D01*
X4092857Y-11561000D01*
X4192857Y-11346714D01*
X4192857Y-11646714D01*
X4464286Y-11646714D02*
X4464286Y-11489571D01*
X4450000Y-11461000D01*
X4421428Y-11446714D01*
X4364286Y-11446714D01*
X4335714Y-11461000D01*
X4464286Y-11632429D02*
X4435714Y-11646714D01*
X4364286Y-11646714D01*
X4335714Y-11632429D01*
X4321428Y-11603857D01*
X4321428Y-11575286D01*
X4335714Y-11546714D01*
X4364286Y-11532429D01*
X4435714Y-11532429D01*
X4464286Y-11518143D01*
X4607143Y-11446714D02*
X4607143Y-11746714D01*
X4607143Y-11461000D02*
X4635714Y-11446714D01*
X4692857Y-11446714D01*
X4721428Y-11461000D01*
X4735714Y-11475286D01*
X4750000Y-11503857D01*
X4750000Y-11589571D01*
X4735714Y-11618143D01*
X4721428Y-11632429D01*
X4692857Y-11646714D01*
X4635714Y-11646714D01*
X4607143Y-11632429D01*
X4878571Y-11618143D02*
X4892857Y-11632429D01*
X4878571Y-11646714D01*
X4864286Y-11632429D01*
X4878571Y-11618143D01*
X4878571Y-11646714D01*
X4878571Y-11461000D02*
X4892857Y-11475286D01*
X4878571Y-11489571D01*
X4864286Y-11475286D01*
X4878571Y-11461000D01*
X4878571Y-11489571D01*
X2315000Y-12031000D02*
X2535000Y-12251000D01*
X2535000Y-12031000D02*
X2315000Y-12251000D01*
X2807143Y-12005286D02*
X2821428Y-11991000D01*
X2850000Y-11976714D01*
X2921428Y-11976714D01*
X2950000Y-11991000D01*
X2964286Y-12005286D01*
X2978571Y-12033857D01*
X2978571Y-12062429D01*
X2964286Y-12105286D01*
X2792857Y-12276714D01*
X2978571Y-12276714D01*
X3107143Y-12248143D02*
X3121428Y-12262429D01*
X3107143Y-12276714D01*
X3092857Y-12262429D01*
X3107143Y-12248143D01*
X3107143Y-12276714D01*
X3235714Y-12005286D02*
X3250000Y-11991000D01*
X3278571Y-11976714D01*
X3350000Y-11976714D01*
X3378571Y-11991000D01*
X3392857Y-12005286D01*
X3407143Y-12033857D01*
X3407143Y-12062429D01*
X3392857Y-12105286D01*
X3221428Y-12276714D01*
X3407143Y-12276714D01*
X3592857Y-11976714D02*
X3621428Y-11976714D01*
X3650000Y-11991000D01*
X3664286Y-12005286D01*
X3678571Y-12033857D01*
X3692857Y-12091000D01*
X3692857Y-12162429D01*
X3678571Y-12219571D01*
X3664286Y-12248143D01*
X3650000Y-12262429D01*
X3621428Y-12276714D01*
X3592857Y-12276714D01*
X3564286Y-12262429D01*
X3550000Y-12248143D01*
X3535714Y-12219571D01*
X3521428Y-12162429D01*
X3521428Y-12091000D01*
X3535714Y-12033857D01*
X3550000Y-12005286D01*
X3564286Y-11991000D01*
X3592857Y-11976714D01*
X3821428Y-12276714D02*
X3821428Y-12076714D01*
X3821428Y-12105286D02*
X3835714Y-12091000D01*
X3864286Y-12076714D01*
X3907143Y-12076714D01*
X3935714Y-12091000D01*
X3950000Y-12119571D01*
X3950000Y-12276714D01*
X3950000Y-12119571D02*
X3964286Y-12091000D01*
X3992857Y-12076714D01*
X4035714Y-12076714D01*
X4064286Y-12091000D01*
X4078571Y-12119571D01*
X4078571Y-12276714D01*
X4221428Y-12276714D02*
X4221428Y-12076714D01*
X4221428Y-12105286D02*
X4235714Y-12091000D01*
X4264286Y-12076714D01*
X4307143Y-12076714D01*
X4335714Y-12091000D01*
X4350000Y-12119571D01*
X4350000Y-12276714D01*
X4350000Y-12119571D02*
X4364286Y-12091000D01*
X4392857Y-12076714D01*
X4435714Y-12076714D01*
X4464286Y-12091000D01*
X4478571Y-12119571D01*
X4478571Y-12276714D01*
X5064286Y-11962429D02*
X4807143Y-12348143D01*
X5450000Y-11976714D02*
X5478571Y-11976714D01*
X5507143Y-11991000D01*
X5521428Y-12005286D01*
X5535714Y-12033857D01*
X5550000Y-12091000D01*
X5550000Y-12162429D01*
X5535714Y-12219571D01*
X5521428Y-12248143D01*
X5507143Y-12262429D01*
X5478571Y-12276714D01*
X5450000Y-12276714D01*
X5421428Y-12262429D01*
X5407143Y-12248143D01*
X5392857Y-12219571D01*
X5378571Y-12162429D01*
X5378571Y-12091000D01*
X5392857Y-12033857D01*
X5407143Y-12005286D01*
X5421428Y-11991000D01*
X5450000Y-11976714D01*
X5678571Y-12248143D02*
X5692857Y-12262429D01*
X5678571Y-12276714D01*
X5664286Y-12262429D01*
X5678571Y-12248143D01*
X5678571Y-12276714D01*
X5878571Y-11976714D02*
X5907143Y-11976714D01*
X5935714Y-11991000D01*
X5950000Y-12005286D01*
X5964286Y-12033857D01*
X5978571Y-12091000D01*
X5978571Y-12162429D01*
X5964286Y-12219571D01*
X5950000Y-12248143D01*
X5935714Y-12262429D01*
X5907143Y-12276714D01*
X5878571Y-12276714D01*
X5850000Y-12262429D01*
X5835714Y-12248143D01*
X5821428Y-12219571D01*
X5807143Y-12162429D01*
X5807143Y-12091000D01*
X5821428Y-12033857D01*
X5835714Y-12005286D01*
X5850000Y-11991000D01*
X5878571Y-11976714D01*
X6150000Y-12105286D02*
X6121428Y-12091000D01*
X6107143Y-12076714D01*
X6092857Y-12048143D01*
X6092857Y-12033857D01*
X6107143Y-12005286D01*
X6121428Y-11991000D01*
X6150000Y-11976714D01*
X6207143Y-11976714D01*
X6235714Y-11991000D01*
X6250000Y-12005286D01*
X6264286Y-12033857D01*
X6264286Y-12048143D01*
X6250000Y-12076714D01*
X6235714Y-12091000D01*
X6207143Y-12105286D01*
X6150000Y-12105286D01*
X6121428Y-12119571D01*
X6107143Y-12133857D01*
X6092857Y-12162429D01*
X6092857Y-12219571D01*
X6107143Y-12248143D01*
X6121428Y-12262429D01*
X6150000Y-12276714D01*
X6207143Y-12276714D01*
X6235714Y-12262429D01*
X6250000Y-12248143D01*
X6264286Y-12219571D01*
X6264286Y-12162429D01*
X6250000Y-12133857D01*
X6235714Y-12119571D01*
X6207143Y-12105286D01*
X6364286Y-11976714D02*
X6564286Y-11976714D01*
X6435714Y-12276714D01*
X6664286Y-11976714D02*
X6664286Y-12033857D01*
X6778571Y-11976714D02*
X6778571Y-12033857D01*
X7221428Y-12391000D02*
X7207143Y-12376714D01*
X7178571Y-12333857D01*
X7164286Y-12305286D01*
X7150000Y-12262429D01*
X7135714Y-12191000D01*
X7135714Y-12133857D01*
X7150000Y-12062429D01*
X7164286Y-12019571D01*
X7178571Y-11991000D01*
X7207143Y-11948143D01*
X7221428Y-11933857D01*
X7464286Y-12076714D02*
X7464286Y-12276714D01*
X7392857Y-11962429D02*
X7321428Y-12176714D01*
X7507143Y-12176714D01*
X7850000Y-12276714D02*
X7850000Y-11976714D01*
X7978571Y-12276714D02*
X7978571Y-12119571D01*
X7964286Y-12091000D01*
X7935714Y-12076714D01*
X7892857Y-12076714D01*
X7864286Y-12091000D01*
X7850000Y-12105286D01*
X8164286Y-12276714D02*
X8135714Y-12262429D01*
X8121428Y-12248143D01*
X8107143Y-12219571D01*
X8107143Y-12133857D01*
X8121428Y-12105286D01*
X8135714Y-12091000D01*
X8164286Y-12076714D01*
X8207143Y-12076714D01*
X8235714Y-12091000D01*
X8250000Y-12105286D01*
X8264286Y-12133857D01*
X8264286Y-12219571D01*
X8250000Y-12248143D01*
X8235714Y-12262429D01*
X8207143Y-12276714D01*
X8164286Y-12276714D01*
X8435714Y-12276714D02*
X8407143Y-12262429D01*
X8392857Y-12233857D01*
X8392857Y-11976714D01*
X8664286Y-12262429D02*
X8635714Y-12276714D01*
X8578571Y-12276714D01*
X8550000Y-12262429D01*
X8535714Y-12233857D01*
X8535714Y-12119571D01*
X8550000Y-12091000D01*
X8578571Y-12076714D01*
X8635714Y-12076714D01*
X8664286Y-12091000D01*
X8678571Y-12119571D01*
X8678571Y-12148143D01*
X8535714Y-12176714D01*
X8792857Y-12262429D02*
X8821428Y-12276714D01*
X8878571Y-12276714D01*
X8907143Y-12262429D01*
X8921428Y-12233857D01*
X8921428Y-12219571D01*
X8907143Y-12191000D01*
X8878571Y-12176714D01*
X8835714Y-12176714D01*
X8807143Y-12162429D01*
X8792857Y-12133857D01*
X8792857Y-12119571D01*
X8807143Y-12091000D01*
X8835714Y-12076714D01*
X8878571Y-12076714D01*
X8907143Y-12091000D01*
X9021428Y-12391000D02*
X9035714Y-12376714D01*
X9064286Y-12333857D01*
X9078571Y-12305286D01*
X9092857Y-12262429D01*
X9107143Y-12191000D01*
X9107143Y-12133857D01*
X9092857Y-12062429D01*
X9078571Y-12019571D01*
X9064286Y-11991000D01*
X9035714Y-11948143D01*
X9021428Y-11933857D01*
X9564286Y-12391000D02*
X9550000Y-12376714D01*
X9521428Y-12333857D01*
X9507143Y-12305286D01*
X9492857Y-12262429D01*
X9478571Y-12191000D01*
X9478571Y-12133857D01*
X9492857Y-12062429D01*
X9507143Y-12019571D01*
X9521428Y-11991000D01*
X9550000Y-11948143D01*
X9564286Y-11933857D01*
X9678571Y-12076714D02*
X9678571Y-12276714D01*
X9678571Y-12105286D02*
X9692857Y-12091000D01*
X9721428Y-12076714D01*
X9764286Y-12076714D01*
X9792857Y-12091000D01*
X9807143Y-12119571D01*
X9807143Y-12276714D01*
X9992857Y-12276714D02*
X9964286Y-12262429D01*
X9950000Y-12248143D01*
X9935714Y-12219571D01*
X9935714Y-12133857D01*
X9950000Y-12105286D01*
X9964286Y-12091000D01*
X9992857Y-12076714D01*
X10035714Y-12076714D01*
X10064286Y-12091000D01*
X10078571Y-12105286D01*
X10092857Y-12133857D01*
X10092857Y-12219571D01*
X10078571Y-12248143D01*
X10064286Y-12262429D01*
X10035714Y-12276714D01*
X9992857Y-12276714D01*
X10178571Y-12076714D02*
X10292857Y-12076714D01*
X10221428Y-11976714D02*
X10221428Y-12233857D01*
X10235714Y-12262429D01*
X10264286Y-12276714D01*
X10292857Y-12276714D01*
X10621428Y-12076714D02*
X10621428Y-12376714D01*
X10621428Y-12091000D02*
X10650000Y-12076714D01*
X10707143Y-12076714D01*
X10735714Y-12091000D01*
X10750000Y-12105286D01*
X10764286Y-12133857D01*
X10764286Y-12219571D01*
X10750000Y-12248143D01*
X10735714Y-12262429D01*
X10707143Y-12276714D01*
X10650000Y-12276714D01*
X10621428Y-12262429D01*
X10935714Y-12276714D02*
X10907143Y-12262429D01*
X10892857Y-12233857D01*
X10892857Y-11976714D01*
X11178571Y-12276714D02*
X11178571Y-12119571D01*
X11164286Y-12091000D01*
X11135714Y-12076714D01*
X11078571Y-12076714D01*
X11050000Y-12091000D01*
X11178571Y-12262429D02*
X11150000Y-12276714D01*
X11078571Y-12276714D01*
X11050000Y-12262429D01*
X11035714Y-12233857D01*
X11035714Y-12205286D01*
X11050000Y-12176714D01*
X11078571Y-12162429D01*
X11150000Y-12162429D01*
X11178571Y-12148143D01*
X11278571Y-12076714D02*
X11392857Y-12076714D01*
X11321428Y-11976714D02*
X11321428Y-12233857D01*
X11335714Y-12262429D01*
X11364286Y-12276714D01*
X11392857Y-12276714D01*
X11607143Y-12262429D02*
X11578571Y-12276714D01*
X11521428Y-12276714D01*
X11492857Y-12262429D01*
X11478571Y-12233857D01*
X11478571Y-12119571D01*
X11492857Y-12091000D01*
X11521428Y-12076714D01*
X11578571Y-12076714D01*
X11607143Y-12091000D01*
X11621428Y-12119571D01*
X11621428Y-12148143D01*
X11478571Y-12176714D01*
X11878571Y-12276714D02*
X11878571Y-11976714D01*
X11878571Y-12262429D02*
X11850000Y-12276714D01*
X11792857Y-12276714D01*
X11764286Y-12262429D01*
X11750000Y-12248143D01*
X11735714Y-12219571D01*
X11735714Y-12133857D01*
X11750000Y-12105286D01*
X11764286Y-12091000D01*
X11792857Y-12076714D01*
X11850000Y-12076714D01*
X11878571Y-12091000D01*
X11992857Y-12391000D02*
X12007143Y-12376714D01*
X12035714Y-12333857D01*
X12050000Y-12305286D01*
X12064286Y-12262429D01*
X12078571Y-12191000D01*
X12078571Y-12133857D01*
X12064286Y-12062429D01*
X12050000Y-12019571D01*
X12035714Y-11991000D01*
X12007143Y-11948143D01*
X11992857Y-11933857D01*
X2535000Y-12537000D02*
G75*
G03X2535000Y-12537000I-165000J0D01*
G01*
X2792857Y-12372714D02*
X2978571Y-12372714D01*
X2878571Y-12487000D01*
X2921428Y-12487000D01*
X2950000Y-12501286D01*
X2964286Y-12515571D01*
X2978571Y-12544143D01*
X2978571Y-12615571D01*
X2964286Y-12644143D01*
X2950000Y-12658429D01*
X2921428Y-12672714D01*
X2835714Y-12672714D01*
X2807143Y-12658429D01*
X2792857Y-12644143D01*
X3107143Y-12644143D02*
X3121428Y-12658429D01*
X3107143Y-12672714D01*
X3092857Y-12658429D01*
X3107143Y-12644143D01*
X3107143Y-12672714D01*
X3221428Y-12372714D02*
X3407143Y-12372714D01*
X3307143Y-12487000D01*
X3350000Y-12487000D01*
X3378571Y-12501286D01*
X3392857Y-12515571D01*
X3407143Y-12544143D01*
X3407143Y-12615571D01*
X3392857Y-12644143D01*
X3378571Y-12658429D01*
X3350000Y-12672714D01*
X3264286Y-12672714D01*
X3235714Y-12658429D01*
X3221428Y-12644143D01*
X3592857Y-12372714D02*
X3621428Y-12372714D01*
X3650000Y-12387000D01*
X3664286Y-12401286D01*
X3678571Y-12429857D01*
X3692857Y-12487000D01*
X3692857Y-12558429D01*
X3678571Y-12615571D01*
X3664286Y-12644143D01*
X3650000Y-12658429D01*
X3621428Y-12672714D01*
X3592857Y-12672714D01*
X3564286Y-12658429D01*
X3550000Y-12644143D01*
X3535714Y-12615571D01*
X3521428Y-12558429D01*
X3521428Y-12487000D01*
X3535714Y-12429857D01*
X3550000Y-12401286D01*
X3564286Y-12387000D01*
X3592857Y-12372714D01*
X3821428Y-12672714D02*
X3821428Y-12472714D01*
X3821428Y-12501286D02*
X3835714Y-12487000D01*
X3864286Y-12472714D01*
X3907143Y-12472714D01*
X3935714Y-12487000D01*
X3950000Y-12515571D01*
X3950000Y-12672714D01*
X3950000Y-12515571D02*
X3964286Y-12487000D01*
X3992857Y-12472714D01*
X4035714Y-12472714D01*
X4064286Y-12487000D01*
X4078571Y-12515571D01*
X4078571Y-12672714D01*
X4221428Y-12672714D02*
X4221428Y-12472714D01*
X4221428Y-12501286D02*
X4235714Y-12487000D01*
X4264286Y-12472714D01*
X4307143Y-12472714D01*
X4335714Y-12487000D01*
X4350000Y-12515571D01*
X4350000Y-12672714D01*
X4350000Y-12515571D02*
X4364286Y-12487000D01*
X4392857Y-12472714D01*
X4435714Y-12472714D01*
X4464286Y-12487000D01*
X4478571Y-12515571D01*
X4478571Y-12672714D01*
X5064286Y-12358429D02*
X4807143Y-12744143D01*
X5450000Y-12372714D02*
X5478571Y-12372714D01*
X5507143Y-12387000D01*
X5521428Y-12401286D01*
X5535714Y-12429857D01*
X5550000Y-12487000D01*
X5550000Y-12558429D01*
X5535714Y-12615571D01*
X5521428Y-12644143D01*
X5507143Y-12658429D01*
X5478571Y-12672714D01*
X5450000Y-12672714D01*
X5421428Y-12658429D01*
X5407143Y-12644143D01*
X5392857Y-12615571D01*
X5378571Y-12558429D01*
X5378571Y-12487000D01*
X5392857Y-12429857D01*
X5407143Y-12401286D01*
X5421428Y-12387000D01*
X5450000Y-12372714D01*
X5678571Y-12644143D02*
X5692857Y-12658429D01*
X5678571Y-12672714D01*
X5664286Y-12658429D01*
X5678571Y-12644143D01*
X5678571Y-12672714D01*
X5978571Y-12672714D02*
X5807143Y-12672714D01*
X5892857Y-12672714D02*
X5892857Y-12372714D01*
X5864286Y-12415571D01*
X5835714Y-12444143D01*
X5807143Y-12458429D01*
X6078571Y-12372714D02*
X6264286Y-12372714D01*
X6164286Y-12487000D01*
X6207143Y-12487000D01*
X6235714Y-12501286D01*
X6250000Y-12515571D01*
X6264286Y-12544143D01*
X6264286Y-12615571D01*
X6250000Y-12644143D01*
X6235714Y-12658429D01*
X6207143Y-12672714D01*
X6121428Y-12672714D01*
X6092857Y-12658429D01*
X6078571Y-12644143D01*
X6450000Y-12372714D02*
X6478571Y-12372714D01*
X6507143Y-12387000D01*
X6521428Y-12401286D01*
X6535714Y-12429857D01*
X6550000Y-12487000D01*
X6550000Y-12558429D01*
X6535714Y-12615571D01*
X6521428Y-12644143D01*
X6507143Y-12658429D01*
X6478571Y-12672714D01*
X6450000Y-12672714D01*
X6421428Y-12658429D01*
X6407143Y-12644143D01*
X6392857Y-12615571D01*
X6378571Y-12558429D01*
X6378571Y-12487000D01*
X6392857Y-12429857D01*
X6407143Y-12401286D01*
X6421428Y-12387000D01*
X6450000Y-12372714D01*
X6664286Y-12372714D02*
X6664286Y-12429857D01*
X6778571Y-12372714D02*
X6778571Y-12429857D01*
X7221428Y-12787000D02*
X7207143Y-12772714D01*
X7178571Y-12729857D01*
X7164286Y-12701286D01*
X7150000Y-12658429D01*
X7135714Y-12587000D01*
X7135714Y-12529857D01*
X7150000Y-12458429D01*
X7164286Y-12415571D01*
X7178571Y-12387000D01*
X7207143Y-12344143D01*
X7221428Y-12329857D01*
X7307143Y-12372714D02*
X7492857Y-12372714D01*
X7392857Y-12487000D01*
X7435714Y-12487000D01*
X7464286Y-12501286D01*
X7478571Y-12515571D01*
X7492857Y-12544143D01*
X7492857Y-12615571D01*
X7478571Y-12644143D01*
X7464286Y-12658429D01*
X7435714Y-12672714D01*
X7350000Y-12672714D01*
X7321428Y-12658429D01*
X7307143Y-12644143D01*
X7850000Y-12672714D02*
X7850000Y-12372714D01*
X7978571Y-12672714D02*
X7978571Y-12515571D01*
X7964286Y-12487000D01*
X7935714Y-12472714D01*
X7892857Y-12472714D01*
X7864286Y-12487000D01*
X7850000Y-12501286D01*
X8164286Y-12672714D02*
X8135714Y-12658429D01*
X8121428Y-12644143D01*
X8107143Y-12615571D01*
X8107143Y-12529857D01*
X8121428Y-12501286D01*
X8135714Y-12487000D01*
X8164286Y-12472714D01*
X8207143Y-12472714D01*
X8235714Y-12487000D01*
X8250000Y-12501286D01*
X8264286Y-12529857D01*
X8264286Y-12615571D01*
X8250000Y-12644143D01*
X8235714Y-12658429D01*
X8207143Y-12672714D01*
X8164286Y-12672714D01*
X8435714Y-12672714D02*
X8407143Y-12658429D01*
X8392857Y-12629857D01*
X8392857Y-12372714D01*
X8664286Y-12658429D02*
X8635714Y-12672714D01*
X8578571Y-12672714D01*
X8550000Y-12658429D01*
X8535714Y-12629857D01*
X8535714Y-12515571D01*
X8550000Y-12487000D01*
X8578571Y-12472714D01*
X8635714Y-12472714D01*
X8664286Y-12487000D01*
X8678571Y-12515571D01*
X8678571Y-12544143D01*
X8535714Y-12572714D01*
X8792857Y-12658429D02*
X8821428Y-12672714D01*
X8878571Y-12672714D01*
X8907143Y-12658429D01*
X8921428Y-12629857D01*
X8921428Y-12615571D01*
X8907143Y-12587000D01*
X8878571Y-12572714D01*
X8835714Y-12572714D01*
X8807143Y-12558429D01*
X8792857Y-12529857D01*
X8792857Y-12515571D01*
X8807143Y-12487000D01*
X8835714Y-12472714D01*
X8878571Y-12472714D01*
X8907143Y-12487000D01*
X9021428Y-12787000D02*
X9035714Y-12772714D01*
X9064286Y-12729857D01*
X9078571Y-12701286D01*
X9092857Y-12658429D01*
X9107143Y-12587000D01*
X9107143Y-12529857D01*
X9092857Y-12458429D01*
X9078571Y-12415571D01*
X9064286Y-12387000D01*
X9035714Y-12344143D01*
X9021428Y-12329857D01*
X9564286Y-12787000D02*
X9550000Y-12772714D01*
X9521428Y-12729857D01*
X9507143Y-12701286D01*
X9492857Y-12658429D01*
X9478571Y-12587000D01*
X9478571Y-12529857D01*
X9492857Y-12458429D01*
X9507143Y-12415571D01*
X9521428Y-12387000D01*
X9550000Y-12344143D01*
X9564286Y-12329857D01*
X9678571Y-12472714D02*
X9678571Y-12672714D01*
X9678571Y-12501286D02*
X9692857Y-12487000D01*
X9721428Y-12472714D01*
X9764286Y-12472714D01*
X9792857Y-12487000D01*
X9807143Y-12515571D01*
X9807143Y-12672714D01*
X9992857Y-12672714D02*
X9964286Y-12658429D01*
X9950000Y-12644143D01*
X9935714Y-12615571D01*
X9935714Y-12529857D01*
X9950000Y-12501286D01*
X9964286Y-12487000D01*
X9992857Y-12472714D01*
X10035714Y-12472714D01*
X10064286Y-12487000D01*
X10078571Y-12501286D01*
X10092857Y-12529857D01*
X10092857Y-12615571D01*
X10078571Y-12644143D01*
X10064286Y-12658429D01*
X10035714Y-12672714D01*
X9992857Y-12672714D01*
X10178571Y-12472714D02*
X10292857Y-12472714D01*
X10221428Y-12372714D02*
X10221428Y-12629857D01*
X10235714Y-12658429D01*
X10264286Y-12672714D01*
X10292857Y-12672714D01*
X10621428Y-12472714D02*
X10621428Y-12772714D01*
X10621428Y-12487000D02*
X10650000Y-12472714D01*
X10707143Y-12472714D01*
X10735714Y-12487000D01*
X10750000Y-12501286D01*
X10764286Y-12529857D01*
X10764286Y-12615571D01*
X10750000Y-12644143D01*
X10735714Y-12658429D01*
X10707143Y-12672714D01*
X10650000Y-12672714D01*
X10621428Y-12658429D01*
X10935714Y-12672714D02*
X10907143Y-12658429D01*
X10892857Y-12629857D01*
X10892857Y-12372714D01*
X11178571Y-12672714D02*
X11178571Y-12515571D01*
X11164286Y-12487000D01*
X11135714Y-12472714D01*
X11078571Y-12472714D01*
X11050000Y-12487000D01*
X11178571Y-12658429D02*
X11150000Y-12672714D01*
X11078571Y-12672714D01*
X11050000Y-12658429D01*
X11035714Y-12629857D01*
X11035714Y-12601286D01*
X11050000Y-12572714D01*
X11078571Y-12558429D01*
X11150000Y-12558429D01*
X11178571Y-12544143D01*
X11278571Y-12472714D02*
X11392857Y-12472714D01*
X11321428Y-12372714D02*
X11321428Y-12629857D01*
X11335714Y-12658429D01*
X11364286Y-12672714D01*
X11392857Y-12672714D01*
X11607143Y-12658429D02*
X11578571Y-12672714D01*
X11521428Y-12672714D01*
X11492857Y-12658429D01*
X11478571Y-12629857D01*
X11478571Y-12515571D01*
X11492857Y-12487000D01*
X11521428Y-12472714D01*
X11578571Y-12472714D01*
X11607143Y-12487000D01*
X11621428Y-12515571D01*
X11621428Y-12544143D01*
X11478571Y-12572714D01*
X11878571Y-12672714D02*
X11878571Y-12372714D01*
X11878571Y-12658429D02*
X11850000Y-12672714D01*
X11792857Y-12672714D01*
X11764286Y-12658429D01*
X11750000Y-12644143D01*
X11735714Y-12615571D01*
X11735714Y-12529857D01*
X11750000Y-12501286D01*
X11764286Y-12487000D01*
X11792857Y-12472714D01*
X11850000Y-12472714D01*
X11878571Y-12487000D01*
X11992857Y-12787000D02*
X12007143Y-12772714D01*
X12035714Y-12729857D01*
X12050000Y-12701286D01*
X12064286Y-12658429D01*
X12078571Y-12587000D01*
X12078571Y-12529857D01*
X12064286Y-12458429D01*
X12050000Y-12415571D01*
X12035714Y-12387000D01*
X12007143Y-12344143D01*
X11992857Y-12329857D01*
M02*
