G04 #@! TF.GenerationSoftware,KiCad,Pcbnew,(5.1.4)-1*
G04 #@! TF.CreationDate,2019-12-10T10:16:17+01:00*
G04 #@! TF.ProjectId,e-p-wifi,652d702d-7769-4666-992e-6b696361645f,1.0*
G04 #@! TF.SameCoordinates,Original*
G04 #@! TF.FileFunction,Soldermask,Bot*
G04 #@! TF.FilePolarity,Negative*
%FSLAX46Y46*%
G04 Gerber Fmt 4.6, Leading zero omitted, Abs format (unit mm)*
G04 Created by KiCad (PCBNEW (5.1.4)-1) date 2019-12-10 10:16:17*
%MOMM*%
%LPD*%
G04 APERTURE LIST*
%ADD10C,0.100000*%
%ADD11R,1.800000X1.800000*%
%ADD12C,1.800000*%
%ADD13C,2.200000*%
%ADD14C,1.600000*%
%ADD15R,1.700000X1.700000*%
%ADD16O,1.700000X1.700000*%
%ADD17R,1.600000X1.600000*%
%ADD18O,1.600000X1.600000*%
%ADD19C,1.524000*%
%ADD20C,3.300000*%
G04 APERTURE END LIST*
D10*
X45726000Y-52070000D02*
X45726000Y-54610000D01*
X33026000Y-52070000D02*
X33026000Y-54610000D01*
X33026000Y-52070000D02*
X45726000Y-52070000D01*
X33026000Y-54610000D02*
X45726000Y-54610000D01*
X53340000Y-54610000D02*
X53340000Y-52070000D01*
X66040000Y-52070000D02*
X66040000Y-54610000D01*
X53340000Y-52070000D02*
X66040000Y-52070000D01*
X53340000Y-54610000D02*
X66040000Y-54610000D01*
X28702000Y-69850000D02*
X38862000Y-69850000D01*
X38862000Y-67310000D02*
X28702000Y-67310000D01*
X28702000Y-67310000D02*
X28702000Y-69850000D01*
X25400000Y-111760000D02*
X93980000Y-111760000D01*
X93980000Y-25400000D02*
X93980000Y-111760000D01*
X25400000Y-25400000D02*
X25400000Y-111760000D01*
X38862000Y-67310000D02*
X38862000Y-69850000D01*
X25400000Y-25400000D02*
X93980000Y-25400000D01*
D11*
X54100000Y-107300000D03*
D12*
X51560000Y-107300000D03*
X27560000Y-107300000D03*
D11*
X30100000Y-107300000D03*
D13*
X88265000Y-58420000D03*
D14*
X77190000Y-89060000D03*
X77190000Y-86560000D03*
D15*
X90400000Y-31400000D03*
D16*
X90400000Y-28860000D03*
D15*
X90400000Y-47400000D03*
D16*
X90400000Y-44860000D03*
X45190000Y-86360000D03*
D15*
X47730000Y-86360000D03*
D17*
X62500000Y-74400000D03*
D14*
X62500000Y-71900000D03*
D15*
X41530000Y-86360000D03*
D16*
X38990000Y-86360000D03*
X36450000Y-86360000D03*
X33910000Y-86360000D03*
X31370000Y-86360000D03*
X28830000Y-86360000D03*
D14*
X86790000Y-86460000D03*
X86790000Y-88960000D03*
X67390000Y-86560000D03*
X67390000Y-89060000D03*
D11*
X42100000Y-107300000D03*
D12*
X39560000Y-107300000D03*
D11*
X48100000Y-107300000D03*
D12*
X45560000Y-107300000D03*
D14*
X57090000Y-89160000D03*
X57090000Y-86660000D03*
D12*
X33560000Y-107300000D03*
D11*
X36100000Y-107300000D03*
D16*
X90400000Y-36860000D03*
D15*
X90400000Y-39400000D03*
D14*
X50200000Y-72000000D03*
D18*
X50200000Y-64380000D03*
X90190000Y-94080000D03*
D14*
X90190000Y-86460000D03*
D18*
X64190000Y-94180000D03*
D14*
X64190000Y-86560000D03*
X53800000Y-64300000D03*
D18*
X53800000Y-71920000D03*
X42100000Y-102200000D03*
D14*
X49720000Y-102200000D03*
D18*
X60190000Y-86640000D03*
D14*
X60190000Y-94260000D03*
X70700000Y-94170000D03*
D18*
X70700000Y-86550000D03*
D14*
X43710000Y-98830000D03*
D18*
X36090000Y-98830000D03*
D14*
X74390000Y-86560000D03*
D18*
X74390000Y-94180000D03*
X54100000Y-102210000D03*
D14*
X61720000Y-102210000D03*
X55720000Y-98810000D03*
D18*
X48100000Y-98810000D03*
X90170000Y-100200000D03*
D14*
X82550000Y-100200000D03*
D18*
X80090000Y-86540000D03*
D14*
X80090000Y-94160000D03*
X57400000Y-71900000D03*
D18*
X57400000Y-64280000D03*
X30100000Y-102200000D03*
D14*
X37720000Y-102200000D03*
D16*
X67565000Y-58420000D03*
X65025000Y-78740000D03*
X65025000Y-58420000D03*
X62485000Y-78740000D03*
X62485000Y-58420000D03*
X59945000Y-78740000D03*
X59945000Y-58420000D03*
X57405000Y-78740000D03*
X57405000Y-58420000D03*
X54865000Y-78740000D03*
X54865000Y-58420000D03*
X52325000Y-78740000D03*
X52325000Y-58420000D03*
X49785000Y-78740000D03*
X49785000Y-58420000D03*
X47245000Y-78740000D03*
X47245000Y-58420000D03*
X44705000Y-78740000D03*
X44705000Y-58420000D03*
X42165000Y-78740000D03*
X42165000Y-58420000D03*
X39625000Y-78740000D03*
X39625000Y-58420000D03*
X37085000Y-78740000D03*
X37085000Y-58420000D03*
X34545000Y-78740000D03*
X34545000Y-58420000D03*
D19*
X67565000Y-78740000D03*
D18*
X37080000Y-62400000D03*
D14*
X44700000Y-62400000D03*
X83690000Y-94060000D03*
D18*
X83690000Y-86440000D03*
D20*
X43154600Y-68580000D03*
X76165000Y-80010000D03*
D13*
X31115000Y-78740000D03*
D20*
X76174600Y-57150000D03*
D13*
X31115000Y-58420000D03*
X88265000Y-78740000D03*
D14*
X54090000Y-86660000D03*
D18*
X54090000Y-94280000D03*
D19*
X60800000Y-105400000D03*
X58260000Y-105400000D03*
X63340000Y-105400000D03*
X87630000Y-104125000D03*
X90170000Y-104125000D03*
X80770000Y-109600000D03*
X78230000Y-109600000D03*
X70330000Y-109600000D03*
X72870000Y-109600000D03*
M02*
