G04 #@! TF.GenerationSoftware,KiCad,Pcbnew,(5.1.4)-1*
G04 #@! TF.CreationDate,2019-12-06T09:41:04+01:00*
G04 #@! TF.ProjectId,e-p-wifi,652d702d-7769-4666-992e-6b696361645f,1.0*
G04 #@! TF.SameCoordinates,Original*
G04 #@! TF.FileFunction,Copper,L2,Bot*
G04 #@! TF.FilePolarity,Positive*
%FSLAX46Y46*%
G04 Gerber Fmt 4.6, Leading zero omitted, Abs format (unit mm)*
G04 Created by KiCad (PCBNEW (5.1.4)-1) date 2019-12-06 09:41:04*
%MOMM*%
%LPD*%
G04 APERTURE LIST*
%ADD10C,0.100000*%
%ADD11R,1.800000X1.800000*%
%ADD12C,1.800000*%
%ADD13C,1.600000*%
%ADD14R,1.700000X1.700000*%
%ADD15O,1.700000X1.700000*%
%ADD16R,1.600000X1.600000*%
%ADD17O,1.600000X1.600000*%
%ADD18C,1.524000*%
%ADD19C,1.000000*%
%ADD20C,0.800000*%
%ADD21C,0.350000*%
%ADD22C,0.250000*%
G04 APERTURE END LIST*
D10*
X40326000Y-46670000D02*
X40326000Y-49210000D01*
X27626000Y-46670000D02*
X27626000Y-49210000D01*
X27626000Y-46670000D02*
X40326000Y-46670000D01*
X27626000Y-49210000D02*
X40326000Y-49210000D01*
X47940000Y-49210000D02*
X47940000Y-46670000D01*
X60640000Y-46670000D02*
X60640000Y-49210000D01*
X47940000Y-46670000D02*
X60640000Y-46670000D01*
X47940000Y-49210000D02*
X60640000Y-49210000D01*
X23302000Y-64450000D02*
X33462000Y-64450000D01*
X33462000Y-61910000D02*
X23302000Y-61910000D01*
X23302000Y-61910000D02*
X23302000Y-64450000D01*
X20000000Y-106360000D02*
X88580000Y-106360000D01*
X88580000Y-20000000D02*
X88580000Y-106360000D01*
X20000000Y-20000000D02*
X20000000Y-106360000D01*
X33462000Y-61910000D02*
X33462000Y-64450000D01*
X20000000Y-20000000D02*
X88580000Y-20000000D01*
D11*
X48700000Y-101900000D03*
D12*
X46160000Y-101900000D03*
X22160000Y-101900000D03*
D11*
X24700000Y-101900000D03*
D13*
X71790000Y-83660000D03*
X71790000Y-81160000D03*
D14*
X85000000Y-26000000D03*
D15*
X85000000Y-23460000D03*
D14*
X85000000Y-42000000D03*
D15*
X85000000Y-39460000D03*
X39790000Y-80960000D03*
D14*
X42330000Y-80960000D03*
D16*
X57100000Y-69000000D03*
D13*
X57100000Y-66500000D03*
D14*
X36130000Y-80960000D03*
D15*
X33590000Y-80960000D03*
X31050000Y-80960000D03*
X28510000Y-80960000D03*
X25970000Y-80960000D03*
X23430000Y-80960000D03*
D13*
X81390000Y-81060000D03*
X81390000Y-83560000D03*
X61990000Y-81160000D03*
X61990000Y-83660000D03*
D11*
X36700000Y-101900000D03*
D12*
X34160000Y-101900000D03*
D11*
X42700000Y-101900000D03*
D12*
X40160000Y-101900000D03*
D13*
X51690000Y-83760000D03*
X51690000Y-81260000D03*
D12*
X28160000Y-101900000D03*
D11*
X30700000Y-101900000D03*
D15*
X85000000Y-31460000D03*
D14*
X85000000Y-34000000D03*
D13*
X44800000Y-66600000D03*
D17*
X44800000Y-58980000D03*
X84790000Y-88680000D03*
D13*
X84790000Y-81060000D03*
D17*
X58790000Y-88780000D03*
D13*
X58790000Y-81160000D03*
X48400000Y-58900000D03*
D17*
X48400000Y-66520000D03*
X36700000Y-96800000D03*
D13*
X44320000Y-96800000D03*
D17*
X54790000Y-81240000D03*
D13*
X54790000Y-88860000D03*
X65300000Y-88770000D03*
D17*
X65300000Y-81150000D03*
D13*
X38310000Y-93430000D03*
D17*
X30690000Y-93430000D03*
D13*
X68990000Y-81160000D03*
D17*
X68990000Y-88780000D03*
X48700000Y-96810000D03*
D13*
X56320000Y-96810000D03*
X50320000Y-93410000D03*
D17*
X42700000Y-93410000D03*
X84770000Y-94800000D03*
D13*
X77150000Y-94800000D03*
D17*
X74690000Y-81140000D03*
D13*
X74690000Y-88760000D03*
X52000000Y-66500000D03*
D17*
X52000000Y-58880000D03*
X24700000Y-96800000D03*
D13*
X32320000Y-96800000D03*
D15*
X62165000Y-53020000D03*
X59625000Y-73340000D03*
X59625000Y-53020000D03*
X57085000Y-73340000D03*
X57085000Y-53020000D03*
X54545000Y-73340000D03*
X54545000Y-53020000D03*
X52005000Y-73340000D03*
X52005000Y-53020000D03*
X49465000Y-73340000D03*
X49465000Y-53020000D03*
X46925000Y-73340000D03*
X46925000Y-53020000D03*
X44385000Y-73340000D03*
X44385000Y-53020000D03*
X41845000Y-73340000D03*
X41845000Y-53020000D03*
X39305000Y-73340000D03*
X39305000Y-53020000D03*
X36765000Y-73340000D03*
X36765000Y-53020000D03*
X34225000Y-73340000D03*
X34225000Y-53020000D03*
X31685000Y-73340000D03*
X31685000Y-53020000D03*
X29145000Y-73340000D03*
X29145000Y-53020000D03*
D18*
X62165000Y-73340000D03*
D17*
X31680000Y-57000000D03*
D13*
X39300000Y-57000000D03*
X78290000Y-88660000D03*
D17*
X78290000Y-81040000D03*
D13*
X48690000Y-81260000D03*
D17*
X48690000Y-88880000D03*
D18*
X55400000Y-100000000D03*
X52860000Y-100000000D03*
X57940000Y-100000000D03*
X82230000Y-98725000D03*
X84770000Y-98725000D03*
X75370000Y-104200000D03*
X72830000Y-104200000D03*
X64930000Y-104200000D03*
X67470000Y-104200000D03*
D19*
X52434999Y-92234999D03*
X52434999Y-90365001D03*
D20*
X64100000Y-98080000D03*
X72970000Y-98080000D03*
X76310000Y-58700000D03*
X76310000Y-55590000D03*
X76310000Y-46620000D03*
X76310000Y-44750000D03*
X32480000Y-100290000D03*
X33880000Y-93650000D03*
X26480000Y-100280000D03*
X27130000Y-97750000D03*
X44510000Y-100250000D03*
X45850000Y-93740000D03*
X33420000Y-78000000D03*
X31570000Y-78000000D03*
X38420000Y-100210000D03*
X39090000Y-97050000D03*
X33210000Y-84430000D03*
X33210000Y-84430000D03*
X31520000Y-84430000D03*
X86310000Y-46810000D03*
X86310000Y-44960000D03*
X62330000Y-94290000D03*
X62330000Y-90560000D03*
X60640000Y-78125000D03*
X60640000Y-76550000D03*
X63750000Y-56290000D03*
X63760000Y-45060000D03*
X38090000Y-78725000D03*
X38090000Y-77270000D03*
X40950000Y-59320000D03*
X33200000Y-59020000D03*
X35340000Y-57430000D03*
X45870000Y-48990000D03*
X45870000Y-50715000D03*
X46600000Y-62500000D03*
X46600000Y-60300000D03*
X62160000Y-78125000D03*
D21*
X75370000Y-105330000D02*
X75370000Y-104200000D01*
X74800000Y-105900000D02*
X75370000Y-105330000D01*
X68092370Y-105900000D02*
X74800000Y-105900000D01*
X67470000Y-104200000D02*
X67470000Y-105277630D01*
X67470000Y-105277630D02*
X68092370Y-105900000D01*
X75370000Y-104200000D02*
X81600000Y-104200000D01*
X82230000Y-103570000D02*
X82230000Y-98725000D01*
X81600000Y-104200000D02*
X82230000Y-103570000D01*
X68231999Y-103438001D02*
X68231999Y-92831999D01*
X67470000Y-104200000D02*
X68231999Y-103438001D01*
X67634999Y-92234999D02*
X52434999Y-92234999D01*
X68231999Y-92831999D02*
X67634999Y-92234999D01*
X53040000Y-88860000D02*
X54790000Y-88860000D01*
X52434999Y-90365001D02*
X52434999Y-89465001D01*
X52434999Y-89465001D02*
X53040000Y-88860000D01*
X47710000Y-93410000D02*
X50320000Y-93410000D01*
X44320000Y-96800000D02*
X47710000Y-93410000D01*
X35690000Y-93430000D02*
X38310000Y-93430000D01*
X32320000Y-96800000D02*
X35690000Y-93430000D01*
D22*
X52005000Y-50495000D02*
X52005000Y-53020000D01*
X64549990Y-50149990D02*
X52350010Y-50149990D01*
X78290000Y-58090000D02*
X77200000Y-57000000D01*
X78290000Y-81040000D02*
X78290000Y-58090000D01*
X77200000Y-57000000D02*
X66900000Y-57000000D01*
X66900000Y-57000000D02*
X66300000Y-56400000D01*
X66300000Y-56400000D02*
X66300000Y-51900000D01*
X52350010Y-50149990D02*
X52005000Y-50495000D01*
X66300000Y-51900000D02*
X64549990Y-50149990D01*
X54545000Y-50955000D02*
X54545000Y-53020000D01*
X64300000Y-50600000D02*
X54900000Y-50600000D01*
X54900000Y-50600000D02*
X54545000Y-50955000D01*
X68990000Y-79170000D02*
X68500000Y-78680000D01*
X68500000Y-78680000D02*
X66350000Y-78680000D01*
X66350000Y-78680000D02*
X65800000Y-78130000D01*
X65800000Y-78130000D02*
X65800000Y-52100000D01*
X68990000Y-81160000D02*
X68990000Y-79170000D01*
X65800000Y-52100000D02*
X64300000Y-50600000D01*
X57100000Y-53005000D02*
X57085000Y-53020000D01*
X57085000Y-51515000D02*
X57085000Y-53020000D01*
X57500000Y-51100000D02*
X57085000Y-51515000D01*
X64163590Y-51100000D02*
X57500000Y-51100000D01*
X65300000Y-81150000D02*
X65300000Y-52236410D01*
X65300000Y-52236410D02*
X64163590Y-51100000D01*
X59625000Y-51875000D02*
X59625000Y-53020000D01*
X59949990Y-51550010D02*
X59625000Y-51875000D01*
X63950010Y-51550010D02*
X59949990Y-51550010D01*
X54790000Y-78180000D02*
X55570000Y-77400000D01*
X54790000Y-81240000D02*
X54790000Y-78180000D01*
X64450000Y-77400000D02*
X64800000Y-77050000D01*
X55570000Y-77400000D02*
X64450000Y-77400000D01*
X64800000Y-77050000D02*
X64800000Y-52400000D01*
X64800000Y-52400000D02*
X63950010Y-51550010D01*
X22160000Y-100627208D02*
X23727208Y-99060000D01*
X22160000Y-101900000D02*
X22160000Y-100627208D01*
X51920000Y-99060000D02*
X52860000Y-100000000D01*
X23727208Y-99060000D02*
X51920000Y-99060000D01*
X52860000Y-101077630D02*
X53402370Y-101620000D01*
X52860000Y-100000000D02*
X52860000Y-101077630D01*
X53402370Y-101620000D02*
X63520000Y-101620000D01*
X63520000Y-101620000D02*
X64100000Y-101040000D01*
X64100000Y-101040000D02*
X64100000Y-98080000D01*
X74690000Y-97410000D02*
X74690000Y-88760000D01*
X72970000Y-98080000D02*
X74020000Y-98080000D01*
X74020000Y-98080000D02*
X74690000Y-97410000D01*
X74690000Y-88760000D02*
X76480000Y-86970000D01*
X77749999Y-82165001D02*
X76310000Y-80725002D01*
X78830001Y-82165001D02*
X77749999Y-82165001D01*
X79415001Y-81580001D02*
X78830001Y-82165001D01*
X76480000Y-86970000D02*
X79415001Y-84034999D01*
X79415001Y-84034999D02*
X79415001Y-81580001D01*
X76310000Y-80725002D02*
X76310000Y-58700000D01*
X76310000Y-55590000D02*
X76310000Y-46620000D01*
X76870000Y-31460000D02*
X85000000Y-31460000D01*
X76310000Y-44750000D02*
X76310000Y-32020000D01*
X76310000Y-32020000D02*
X76870000Y-31460000D01*
X33260001Y-101000001D02*
X33190001Y-101000001D01*
X34160000Y-101900000D02*
X33260001Y-101000001D01*
X33190001Y-101000001D02*
X32480000Y-100290000D01*
X29520000Y-55060000D02*
X29145000Y-54685000D01*
X33950000Y-55500000D02*
X33510000Y-55060000D01*
X33950000Y-65270000D02*
X33950000Y-55500000D01*
X33880000Y-93650000D02*
X33880000Y-89710000D01*
X32350000Y-88180000D02*
X32350000Y-74414002D01*
X33510000Y-55060000D02*
X29520000Y-55060000D01*
X32350000Y-74414002D02*
X32860001Y-73904001D01*
X32860001Y-73904001D02*
X32860001Y-66359999D01*
X29145000Y-54685000D02*
X29145000Y-53020000D01*
X33880000Y-89710000D02*
X32350000Y-88180000D01*
X32860001Y-66359999D02*
X33950000Y-65270000D01*
X28160000Y-100627208D02*
X27812792Y-100280000D01*
X28160000Y-101900000D02*
X28160000Y-100627208D01*
X27812792Y-100280000D02*
X26480000Y-100280000D01*
X48640000Y-49990000D02*
X49465000Y-50815000D01*
X21920000Y-49990000D02*
X48640000Y-49990000D01*
X27130000Y-84210000D02*
X26380000Y-83460000D01*
X49465000Y-50815000D02*
X49465000Y-53020000D01*
X27130000Y-97750000D02*
X27130000Y-84210000D01*
X26380000Y-83460000D02*
X21410000Y-83460000D01*
X21410000Y-83460000D02*
X20930000Y-82980000D01*
X20930000Y-82980000D02*
X20930000Y-50980000D01*
X20930000Y-50980000D02*
X21920000Y-49990000D01*
X46160000Y-101900000D02*
X45260001Y-101000001D01*
X45260001Y-101000001D02*
X44510000Y-100250000D01*
X45850000Y-93740000D02*
X44800000Y-92690000D01*
X44800000Y-92690000D02*
X44800000Y-78560000D01*
X44800000Y-78560000D02*
X44240000Y-78000000D01*
X44240000Y-78000000D02*
X33420000Y-78000000D01*
X31570000Y-78000000D02*
X30690000Y-77120000D01*
X30690000Y-74335000D02*
X31685000Y-73340000D01*
X30690000Y-77120000D02*
X30690000Y-74335000D01*
X39260001Y-101000001D02*
X39210001Y-101000001D01*
X40160000Y-101900000D02*
X39260001Y-101000001D01*
X39210001Y-101000001D02*
X38420000Y-100210000D01*
X29145000Y-76495000D02*
X29145000Y-73340000D01*
X29770000Y-77120000D02*
X29145000Y-76495000D01*
X29770000Y-83660000D02*
X29770000Y-77120000D01*
X31520000Y-84430000D02*
X30540000Y-84430000D01*
X30540000Y-84430000D02*
X29770000Y-83660000D01*
X39220000Y-84430000D02*
X33210000Y-84430000D01*
X40020000Y-85230000D02*
X39220000Y-84430000D01*
X39090000Y-97050000D02*
X40020000Y-96120000D01*
X40020000Y-96120000D02*
X40020000Y-85230000D01*
X85950000Y-39460000D02*
X85000000Y-39460000D01*
X86310000Y-44960000D02*
X86310000Y-39820000D01*
X86310000Y-39820000D02*
X85950000Y-39460000D01*
X85680000Y-26000000D02*
X85000000Y-26000000D01*
X86175001Y-26495001D02*
X85680000Y-26000000D01*
X86310000Y-39820000D02*
X86175001Y-39685001D01*
X86175001Y-39685001D02*
X86175001Y-26495001D01*
X86310000Y-76300000D02*
X86310000Y-46810000D01*
X82890000Y-79720000D02*
X86310000Y-76300000D01*
X82890000Y-87060000D02*
X82890000Y-79720000D01*
X78290000Y-88660000D02*
X81290000Y-88660000D01*
X81290000Y-88660000D02*
X82890000Y-87060000D01*
X59017630Y-100000000D02*
X62330000Y-96687630D01*
X57940000Y-100000000D02*
X59017630Y-100000000D01*
X62330000Y-96687630D02*
X62330000Y-94290000D01*
X62330000Y-90560000D02*
X62330000Y-88750000D01*
X62330000Y-88750000D02*
X60640000Y-87060000D01*
X60640000Y-87060000D02*
X60640000Y-78050000D01*
X60640000Y-78050000D02*
X60640000Y-78125000D01*
X64740000Y-23460000D02*
X85000000Y-23460000D01*
X63760000Y-45060000D02*
X63760000Y-24440000D01*
X63760000Y-24440000D02*
X64740000Y-23460000D01*
X64349990Y-56889990D02*
X63750000Y-56290000D01*
X64349990Y-74750010D02*
X64349990Y-56889990D01*
X64040000Y-75060000D02*
X64349990Y-74750010D01*
X61070000Y-75060000D02*
X64040000Y-75060000D01*
X60640000Y-76550000D02*
X60640000Y-75490000D01*
X60640000Y-75490000D02*
X61070000Y-75060000D01*
X44800000Y-55975000D02*
X41845000Y-53020000D01*
X44800000Y-58980000D02*
X44800000Y-55975000D01*
X38090000Y-78720000D02*
X38090000Y-78725000D01*
X34113002Y-78720000D02*
X38090000Y-78720000D01*
X33590000Y-80960000D02*
X33590000Y-79243002D01*
X33590000Y-79243002D02*
X34113002Y-78720000D01*
X38090000Y-77270000D02*
X38090000Y-72815998D01*
X38090000Y-72815998D02*
X38090000Y-67970000D01*
X38090000Y-67970000D02*
X38820000Y-67240000D01*
X38820000Y-67240000D02*
X40620000Y-67240000D01*
X40620000Y-67240000D02*
X41339990Y-66520010D01*
X41339990Y-66520010D02*
X41339990Y-59709990D01*
X41339990Y-59709990D02*
X40950000Y-59320000D01*
X34225000Y-54725000D02*
X34225000Y-53020000D01*
X34750010Y-55250010D02*
X34225000Y-54725000D01*
X52000000Y-61100000D02*
X51549991Y-61550009D01*
X52000000Y-58880000D02*
X52000000Y-61100000D01*
X51549991Y-61550009D02*
X43513599Y-61550009D01*
X42600000Y-60636410D02*
X42600000Y-55536410D01*
X43513599Y-61550009D02*
X42600000Y-60636410D01*
X42600000Y-55536410D02*
X42313600Y-55250010D01*
X25970000Y-80960000D02*
X25970000Y-78180000D01*
X25970000Y-78180000D02*
X25040000Y-77250000D01*
X25040000Y-77250000D02*
X24140000Y-77250000D01*
X24140000Y-77250000D02*
X22910000Y-76020000D01*
X22910000Y-76020000D02*
X22910000Y-59470000D01*
X22910000Y-59470000D02*
X23360000Y-59020000D01*
X23360000Y-59020000D02*
X33200000Y-59020000D01*
X42313600Y-55250010D02*
X35759990Y-55250010D01*
X35759990Y-55250010D02*
X34750010Y-55250010D01*
X36340000Y-55830020D02*
X35759990Y-55250010D01*
X36340000Y-57120000D02*
X36340000Y-55830020D01*
X35340000Y-57430000D02*
X36030000Y-57430000D01*
X36030000Y-57430000D02*
X36340000Y-57120000D01*
X46925000Y-51135000D02*
X46925000Y-53020000D01*
X45870000Y-50715000D02*
X46505000Y-50715000D01*
X46505000Y-50715000D02*
X46925000Y-51135000D01*
X45870000Y-46350000D02*
X45870000Y-48990000D01*
X87150000Y-94800000D02*
X87790000Y-94160000D01*
X84770000Y-94800000D02*
X87150000Y-94800000D01*
X87790000Y-46520000D02*
X87070000Y-45800000D01*
X87790000Y-94160000D02*
X87790000Y-46520000D01*
X87070000Y-45800000D02*
X46420000Y-45800000D01*
X46420000Y-45800000D02*
X45870000Y-46350000D01*
X41040000Y-57000000D02*
X39300000Y-57000000D01*
X52288998Y-93310000D02*
X50908998Y-91930000D01*
X64320000Y-93310000D02*
X52288998Y-93310000D01*
X64920000Y-93910000D02*
X64320000Y-93310000D01*
X64920000Y-103112370D02*
X64920000Y-93910000D01*
X64930000Y-104200000D02*
X64930000Y-103122370D01*
X64930000Y-103122370D02*
X64920000Y-103112370D01*
X40480001Y-68759999D02*
X41790000Y-67450000D01*
X50908998Y-91930000D02*
X46093590Y-91930000D01*
X46093590Y-91930000D02*
X45299989Y-91136399D01*
X45299989Y-76389989D02*
X44160000Y-75250000D01*
X41790000Y-57750000D02*
X41040000Y-57000000D01*
X45299989Y-91136399D02*
X45299989Y-76389989D01*
X44160000Y-75250000D02*
X40910000Y-75250000D01*
X40910000Y-75250000D02*
X40480001Y-74820001D01*
X40480001Y-74820001D02*
X40480001Y-68759999D01*
X41790000Y-67450000D02*
X41790000Y-57750000D01*
X36765000Y-54365000D02*
X36765000Y-53020000D01*
X37200000Y-54800000D02*
X36765000Y-54365000D01*
X42500000Y-54800000D02*
X37200000Y-54800000D01*
X48400000Y-60600000D02*
X47900000Y-61100000D01*
X48400000Y-58900000D02*
X48400000Y-60600000D01*
X47900000Y-61100000D02*
X43700000Y-61100000D01*
X43700000Y-61100000D02*
X43100000Y-60500000D01*
X43100000Y-60500000D02*
X43100000Y-55400000D01*
X43100000Y-55400000D02*
X42500000Y-54800000D01*
X46600000Y-60300000D02*
X46600000Y-59400000D01*
X47100000Y-58900000D02*
X48400000Y-58900000D01*
X46600000Y-59400000D02*
X47100000Y-58900000D01*
X46600000Y-68400000D02*
X46600000Y-62500000D01*
X71742999Y-103112999D02*
X71742999Y-91942999D01*
X45749999Y-69250001D02*
X46600000Y-68400000D01*
X72830000Y-104200000D02*
X71742999Y-103112999D01*
X71200000Y-91400000D02*
X46200000Y-91400000D01*
X46200000Y-91400000D02*
X45749999Y-90949999D01*
X71742999Y-91942999D02*
X71200000Y-91400000D01*
X45749999Y-90949999D02*
X45749999Y-69250001D01*
X63405000Y-78125000D02*
X62160000Y-78125000D01*
X63670000Y-78390000D02*
X63405000Y-78125000D01*
X63670000Y-88271370D02*
X63670000Y-78390000D01*
X65300000Y-88770000D02*
X64168630Y-88770000D01*
X64168630Y-88770000D02*
X63670000Y-88271370D01*
M02*
