G04 #@! TF.GenerationSoftware,KiCad,Pcbnew,(5.1.4)-1*
G04 #@! TF.CreationDate,2019-12-06T09:41:05+01:00*
G04 #@! TF.ProjectId,e-p-wifi,652d702d-7769-4666-992e-6b696361645f,1.0*
G04 #@! TF.SameCoordinates,Original*
G04 #@! TF.FileFunction,Soldermask,Bot*
G04 #@! TF.FilePolarity,Negative*
%FSLAX46Y46*%
G04 Gerber Fmt 4.6, Leading zero omitted, Abs format (unit mm)*
G04 Created by KiCad (PCBNEW (5.1.4)-1) date 2019-12-06 09:41:05*
%MOMM*%
%LPD*%
G04 APERTURE LIST*
%ADD10C,0.100000*%
%ADD11R,1.800000X1.800000*%
%ADD12C,1.800000*%
%ADD13C,2.200000*%
%ADD14C,1.600000*%
%ADD15R,1.700000X1.700000*%
%ADD16O,1.700000X1.700000*%
%ADD17R,1.600000X1.600000*%
%ADD18O,1.600000X1.600000*%
%ADD19C,1.524000*%
%ADD20C,3.300000*%
G04 APERTURE END LIST*
D10*
X40326000Y-46670000D02*
X40326000Y-49210000D01*
X27626000Y-46670000D02*
X27626000Y-49210000D01*
X27626000Y-46670000D02*
X40326000Y-46670000D01*
X27626000Y-49210000D02*
X40326000Y-49210000D01*
X47940000Y-49210000D02*
X47940000Y-46670000D01*
X60640000Y-46670000D02*
X60640000Y-49210000D01*
X47940000Y-46670000D02*
X60640000Y-46670000D01*
X47940000Y-49210000D02*
X60640000Y-49210000D01*
X23302000Y-64450000D02*
X33462000Y-64450000D01*
X33462000Y-61910000D02*
X23302000Y-61910000D01*
X23302000Y-61910000D02*
X23302000Y-64450000D01*
X20000000Y-106360000D02*
X88580000Y-106360000D01*
X88580000Y-20000000D02*
X88580000Y-106360000D01*
X20000000Y-20000000D02*
X20000000Y-106360000D01*
X33462000Y-61910000D02*
X33462000Y-64450000D01*
X20000000Y-20000000D02*
X88580000Y-20000000D01*
D11*
X48700000Y-101900000D03*
D12*
X46160000Y-101900000D03*
X22160000Y-101900000D03*
D11*
X24700000Y-101900000D03*
D13*
X82865000Y-53020000D03*
D14*
X71790000Y-83660000D03*
X71790000Y-81160000D03*
D15*
X85000000Y-26000000D03*
D16*
X85000000Y-23460000D03*
D15*
X85000000Y-42000000D03*
D16*
X85000000Y-39460000D03*
X39790000Y-80960000D03*
D15*
X42330000Y-80960000D03*
D17*
X57100000Y-69000000D03*
D14*
X57100000Y-66500000D03*
D15*
X36130000Y-80960000D03*
D16*
X33590000Y-80960000D03*
X31050000Y-80960000D03*
X28510000Y-80960000D03*
X25970000Y-80960000D03*
X23430000Y-80960000D03*
D14*
X81390000Y-81060000D03*
X81390000Y-83560000D03*
X61990000Y-81160000D03*
X61990000Y-83660000D03*
D11*
X36700000Y-101900000D03*
D12*
X34160000Y-101900000D03*
D11*
X42700000Y-101900000D03*
D12*
X40160000Y-101900000D03*
D14*
X51690000Y-83760000D03*
X51690000Y-81260000D03*
D12*
X28160000Y-101900000D03*
D11*
X30700000Y-101900000D03*
D16*
X85000000Y-31460000D03*
D15*
X85000000Y-34000000D03*
D14*
X44800000Y-66600000D03*
D18*
X44800000Y-58980000D03*
X84790000Y-88680000D03*
D14*
X84790000Y-81060000D03*
D18*
X58790000Y-88780000D03*
D14*
X58790000Y-81160000D03*
X48400000Y-58900000D03*
D18*
X48400000Y-66520000D03*
X36700000Y-96800000D03*
D14*
X44320000Y-96800000D03*
D18*
X54790000Y-81240000D03*
D14*
X54790000Y-88860000D03*
X65300000Y-88770000D03*
D18*
X65300000Y-81150000D03*
D14*
X38310000Y-93430000D03*
D18*
X30690000Y-93430000D03*
D14*
X68990000Y-81160000D03*
D18*
X68990000Y-88780000D03*
X48700000Y-96810000D03*
D14*
X56320000Y-96810000D03*
X50320000Y-93410000D03*
D18*
X42700000Y-93410000D03*
X84770000Y-94800000D03*
D14*
X77150000Y-94800000D03*
D18*
X74690000Y-81140000D03*
D14*
X74690000Y-88760000D03*
X52000000Y-66500000D03*
D18*
X52000000Y-58880000D03*
X24700000Y-96800000D03*
D14*
X32320000Y-96800000D03*
D16*
X62165000Y-53020000D03*
X59625000Y-73340000D03*
X59625000Y-53020000D03*
X57085000Y-73340000D03*
X57085000Y-53020000D03*
X54545000Y-73340000D03*
X54545000Y-53020000D03*
X52005000Y-73340000D03*
X52005000Y-53020000D03*
X49465000Y-73340000D03*
X49465000Y-53020000D03*
X46925000Y-73340000D03*
X46925000Y-53020000D03*
X44385000Y-73340000D03*
X44385000Y-53020000D03*
X41845000Y-73340000D03*
X41845000Y-53020000D03*
X39305000Y-73340000D03*
X39305000Y-53020000D03*
X36765000Y-73340000D03*
X36765000Y-53020000D03*
X34225000Y-73340000D03*
X34225000Y-53020000D03*
X31685000Y-73340000D03*
X31685000Y-53020000D03*
X29145000Y-73340000D03*
X29145000Y-53020000D03*
D19*
X62165000Y-73340000D03*
D18*
X31680000Y-57000000D03*
D14*
X39300000Y-57000000D03*
X78290000Y-88660000D03*
D18*
X78290000Y-81040000D03*
D20*
X37755000Y-63180000D03*
X70765000Y-74610000D03*
D13*
X25715000Y-73340000D03*
D20*
X70765000Y-51750000D03*
D13*
X25715000Y-53020000D03*
X82865000Y-73340000D03*
D14*
X48690000Y-81260000D03*
D18*
X48690000Y-88880000D03*
D19*
X55400000Y-100000000D03*
X52860000Y-100000000D03*
X57940000Y-100000000D03*
X82230000Y-98725000D03*
X84770000Y-98725000D03*
X75370000Y-104200000D03*
X72830000Y-104200000D03*
X64930000Y-104200000D03*
X67470000Y-104200000D03*
M02*
