G04 #@! TF.GenerationSoftware,KiCad,Pcbnew,(5.1.4)-1*
G04 #@! TF.CreationDate,2019-12-06T09:41:04+01:00*
G04 #@! TF.ProjectId,e-p-wifi,652d702d-7769-4666-992e-6b696361645f,1.0*
G04 #@! TF.SameCoordinates,Original*
G04 #@! TF.FileFunction,Legend,Top*
G04 #@! TF.FilePolarity,Positive*
%FSLAX46Y46*%
G04 Gerber Fmt 4.6, Leading zero omitted, Abs format (unit mm)*
G04 Created by KiCad (PCBNEW (5.1.4)-1) date 2019-12-06 09:41:04*
%MOMM*%
%LPD*%
G04 APERTURE LIST*
%ADD10C,0.100000*%
%ADD11C,0.050000*%
%ADD12C,0.120000*%
%ADD13C,0.010000*%
%ADD14C,0.150000*%
G04 APERTURE END LIST*
D10*
X40326000Y-46670000D02*
X40326000Y-49210000D01*
X27626000Y-46670000D02*
X27626000Y-49210000D01*
X27626000Y-46670000D02*
X40326000Y-46670000D01*
X27626000Y-49210000D02*
X40326000Y-49210000D01*
X47940000Y-49210000D02*
X47940000Y-46670000D01*
X60640000Y-46670000D02*
X60640000Y-49210000D01*
X47940000Y-46670000D02*
X60640000Y-46670000D01*
X47940000Y-49210000D02*
X60640000Y-49210000D01*
X23302000Y-64450000D02*
X33462000Y-64450000D01*
X33462000Y-61910000D02*
X23302000Y-61910000D01*
X23302000Y-61910000D02*
X23302000Y-64450000D01*
D11*
X74265000Y-74610000D02*
G75*
G03X74265000Y-74610000I-3500000J0D01*
G01*
D10*
X20000000Y-106360000D02*
X88580000Y-106360000D01*
X88580000Y-20000000D02*
X88580000Y-106360000D01*
X20000000Y-20000000D02*
X20000000Y-106360000D01*
D11*
X41255000Y-63180000D02*
G75*
G03X41255000Y-63180000I-3500000J0D01*
G01*
D10*
X33462000Y-61910000D02*
X33462000Y-64450000D01*
D11*
X74265000Y-51750000D02*
G75*
G03X74265000Y-51750000I-3500000J0D01*
G01*
D10*
X20000000Y-20000000D02*
X88580000Y-20000000D01*
D12*
X45757665Y-102978608D02*
G75*
G03X48990000Y-103135516I1672335J1078608D01*
G01*
X45757665Y-100821392D02*
G75*
G02X48990000Y-100664484I1672335J-1078608D01*
G01*
X46388870Y-102979837D02*
G75*
G03X48470961Y-102980000I1041130J1079837D01*
G01*
X46388870Y-100820163D02*
G75*
G02X48470961Y-100820000I1041130J-1079837D01*
G01*
X48990000Y-103136000D02*
X48990000Y-102980000D01*
X48990000Y-100820000D02*
X48990000Y-100664000D01*
X24990000Y-100820000D02*
X24990000Y-100664000D01*
X24990000Y-103136000D02*
X24990000Y-102980000D01*
X22388870Y-100820163D02*
G75*
G02X24470961Y-100820000I1041130J-1079837D01*
G01*
X22388870Y-102979837D02*
G75*
G03X24470961Y-102980000I1041130J1079837D01*
G01*
X21757665Y-100821392D02*
G75*
G02X24990000Y-100664484I1672335J-1078608D01*
G01*
X21757665Y-102978608D02*
G75*
G03X24990000Y-103135516I1672335J1078608D01*
G01*
X70870000Y-81781000D02*
X70870000Y-83039000D01*
X72710000Y-81781000D02*
X72710000Y-83039000D01*
X86330000Y-22130000D02*
X83670000Y-22130000D01*
X86330000Y-24730000D02*
X86330000Y-22130000D01*
X83670000Y-24730000D02*
X83670000Y-22130000D01*
X86330000Y-24730000D02*
X83670000Y-24730000D01*
X86330000Y-26000000D02*
X86330000Y-27330000D01*
X86330000Y-27330000D02*
X85000000Y-27330000D01*
X86330000Y-38130000D02*
X83670000Y-38130000D01*
X86330000Y-40730000D02*
X86330000Y-38130000D01*
X83670000Y-40730000D02*
X83670000Y-38130000D01*
X86330000Y-40730000D02*
X83670000Y-40730000D01*
X86330000Y-42000000D02*
X86330000Y-43330000D01*
X86330000Y-43330000D02*
X85000000Y-43330000D01*
X43660000Y-79630000D02*
X43660000Y-80960000D01*
X42330000Y-79630000D02*
X43660000Y-79630000D01*
X41060000Y-79630000D02*
X41060000Y-82290000D01*
X41060000Y-82290000D02*
X38460000Y-82290000D01*
X41060000Y-79630000D02*
X38460000Y-79630000D01*
X38460000Y-79630000D02*
X38460000Y-82290000D01*
X59720000Y-67750000D02*
G75*
G03X59720000Y-67750000I-2620000J0D01*
G01*
X54520000Y-67750000D02*
X59680000Y-67750000D01*
X54520000Y-67710000D02*
X59680000Y-67710000D01*
X54521000Y-67670000D02*
X59679000Y-67670000D01*
X54522000Y-67630000D02*
X59678000Y-67630000D01*
X54524000Y-67590000D02*
X59676000Y-67590000D01*
X54527000Y-67550000D02*
X59673000Y-67550000D01*
X54531000Y-67510000D02*
X56060000Y-67510000D01*
X58140000Y-67510000D02*
X59669000Y-67510000D01*
X54535000Y-67470000D02*
X56060000Y-67470000D01*
X58140000Y-67470000D02*
X59665000Y-67470000D01*
X54539000Y-67430000D02*
X56060000Y-67430000D01*
X58140000Y-67430000D02*
X59661000Y-67430000D01*
X54544000Y-67390000D02*
X56060000Y-67390000D01*
X58140000Y-67390000D02*
X59656000Y-67390000D01*
X54550000Y-67350000D02*
X56060000Y-67350000D01*
X58140000Y-67350000D02*
X59650000Y-67350000D01*
X54557000Y-67310000D02*
X56060000Y-67310000D01*
X58140000Y-67310000D02*
X59643000Y-67310000D01*
X54564000Y-67270000D02*
X56060000Y-67270000D01*
X58140000Y-67270000D02*
X59636000Y-67270000D01*
X54572000Y-67230000D02*
X56060000Y-67230000D01*
X58140000Y-67230000D02*
X59628000Y-67230000D01*
X54580000Y-67190000D02*
X56060000Y-67190000D01*
X58140000Y-67190000D02*
X59620000Y-67190000D01*
X54589000Y-67150000D02*
X56060000Y-67150000D01*
X58140000Y-67150000D02*
X59611000Y-67150000D01*
X54599000Y-67110000D02*
X56060000Y-67110000D01*
X58140000Y-67110000D02*
X59601000Y-67110000D01*
X54609000Y-67070000D02*
X56060000Y-67070000D01*
X58140000Y-67070000D02*
X59591000Y-67070000D01*
X54620000Y-67029000D02*
X56060000Y-67029000D01*
X58140000Y-67029000D02*
X59580000Y-67029000D01*
X54632000Y-66989000D02*
X56060000Y-66989000D01*
X58140000Y-66989000D02*
X59568000Y-66989000D01*
X54645000Y-66949000D02*
X56060000Y-66949000D01*
X58140000Y-66949000D02*
X59555000Y-66949000D01*
X54658000Y-66909000D02*
X56060000Y-66909000D01*
X58140000Y-66909000D02*
X59542000Y-66909000D01*
X54672000Y-66869000D02*
X56060000Y-66869000D01*
X58140000Y-66869000D02*
X59528000Y-66869000D01*
X54686000Y-66829000D02*
X56060000Y-66829000D01*
X58140000Y-66829000D02*
X59514000Y-66829000D01*
X54702000Y-66789000D02*
X56060000Y-66789000D01*
X58140000Y-66789000D02*
X59498000Y-66789000D01*
X54718000Y-66749000D02*
X56060000Y-66749000D01*
X58140000Y-66749000D02*
X59482000Y-66749000D01*
X54735000Y-66709000D02*
X56060000Y-66709000D01*
X58140000Y-66709000D02*
X59465000Y-66709000D01*
X54752000Y-66669000D02*
X56060000Y-66669000D01*
X58140000Y-66669000D02*
X59448000Y-66669000D01*
X54771000Y-66629000D02*
X56060000Y-66629000D01*
X58140000Y-66629000D02*
X59429000Y-66629000D01*
X54790000Y-66589000D02*
X56060000Y-66589000D01*
X58140000Y-66589000D02*
X59410000Y-66589000D01*
X54810000Y-66549000D02*
X56060000Y-66549000D01*
X58140000Y-66549000D02*
X59390000Y-66549000D01*
X54832000Y-66509000D02*
X56060000Y-66509000D01*
X58140000Y-66509000D02*
X59368000Y-66509000D01*
X54853000Y-66469000D02*
X56060000Y-66469000D01*
X58140000Y-66469000D02*
X59347000Y-66469000D01*
X54876000Y-66429000D02*
X56060000Y-66429000D01*
X58140000Y-66429000D02*
X59324000Y-66429000D01*
X54900000Y-66389000D02*
X56060000Y-66389000D01*
X58140000Y-66389000D02*
X59300000Y-66389000D01*
X54925000Y-66349000D02*
X56060000Y-66349000D01*
X58140000Y-66349000D02*
X59275000Y-66349000D01*
X54951000Y-66309000D02*
X56060000Y-66309000D01*
X58140000Y-66309000D02*
X59249000Y-66309000D01*
X54978000Y-66269000D02*
X56060000Y-66269000D01*
X58140000Y-66269000D02*
X59222000Y-66269000D01*
X55005000Y-66229000D02*
X56060000Y-66229000D01*
X58140000Y-66229000D02*
X59195000Y-66229000D01*
X55035000Y-66189000D02*
X56060000Y-66189000D01*
X58140000Y-66189000D02*
X59165000Y-66189000D01*
X55065000Y-66149000D02*
X56060000Y-66149000D01*
X58140000Y-66149000D02*
X59135000Y-66149000D01*
X55096000Y-66109000D02*
X56060000Y-66109000D01*
X58140000Y-66109000D02*
X59104000Y-66109000D01*
X55129000Y-66069000D02*
X56060000Y-66069000D01*
X58140000Y-66069000D02*
X59071000Y-66069000D01*
X55163000Y-66029000D02*
X56060000Y-66029000D01*
X58140000Y-66029000D02*
X59037000Y-66029000D01*
X55199000Y-65989000D02*
X56060000Y-65989000D01*
X58140000Y-65989000D02*
X59001000Y-65989000D01*
X55236000Y-65949000D02*
X56060000Y-65949000D01*
X58140000Y-65949000D02*
X58964000Y-65949000D01*
X55274000Y-65909000D02*
X56060000Y-65909000D01*
X58140000Y-65909000D02*
X58926000Y-65909000D01*
X55315000Y-65869000D02*
X56060000Y-65869000D01*
X58140000Y-65869000D02*
X58885000Y-65869000D01*
X55357000Y-65829000D02*
X56060000Y-65829000D01*
X58140000Y-65829000D02*
X58843000Y-65829000D01*
X55401000Y-65789000D02*
X56060000Y-65789000D01*
X58140000Y-65789000D02*
X58799000Y-65789000D01*
X55447000Y-65749000D02*
X56060000Y-65749000D01*
X58140000Y-65749000D02*
X58753000Y-65749000D01*
X55495000Y-65709000D02*
X56060000Y-65709000D01*
X58140000Y-65709000D02*
X58705000Y-65709000D01*
X55546000Y-65669000D02*
X56060000Y-65669000D01*
X58140000Y-65669000D02*
X58654000Y-65669000D01*
X55600000Y-65629000D02*
X56060000Y-65629000D01*
X58140000Y-65629000D02*
X58600000Y-65629000D01*
X55657000Y-65589000D02*
X56060000Y-65589000D01*
X58140000Y-65589000D02*
X58543000Y-65589000D01*
X55717000Y-65549000D02*
X56060000Y-65549000D01*
X58140000Y-65549000D02*
X58483000Y-65549000D01*
X55781000Y-65509000D02*
X56060000Y-65509000D01*
X58140000Y-65509000D02*
X58419000Y-65509000D01*
X55849000Y-65469000D02*
X56060000Y-65469000D01*
X58140000Y-65469000D02*
X58351000Y-65469000D01*
X55922000Y-65429000D02*
X58278000Y-65429000D01*
X56002000Y-65389000D02*
X58198000Y-65389000D01*
X56089000Y-65349000D02*
X58111000Y-65349000D01*
X56185000Y-65309000D02*
X58015000Y-65309000D01*
X56295000Y-65269000D02*
X57905000Y-65269000D01*
X56423000Y-65229000D02*
X57777000Y-65229000D01*
X56582000Y-65189000D02*
X57618000Y-65189000D01*
X56816000Y-65149000D02*
X57384000Y-65149000D01*
X55625000Y-70554775D02*
X55625000Y-70054775D01*
X55375000Y-70304775D02*
X55875000Y-70304775D01*
X22100000Y-79630000D02*
X22100000Y-82290000D01*
X34860000Y-79630000D02*
X22100000Y-79630000D01*
X34860000Y-82290000D02*
X22100000Y-82290000D01*
X34860000Y-79630000D02*
X34860000Y-82290000D01*
X36130000Y-79630000D02*
X37460000Y-79630000D01*
X37460000Y-79630000D02*
X37460000Y-80960000D01*
D13*
G36*
X73582833Y-27581833D02*
G01*
X73307667Y-27581833D01*
X73307667Y-27730000D01*
X73585153Y-27730000D01*
X73578701Y-27830014D01*
X73572250Y-27930028D01*
X73445250Y-27930555D01*
X73318250Y-27931083D01*
X73311617Y-27999875D01*
X73304984Y-28068666D01*
X73582833Y-28068666D01*
X73582833Y-28280333D01*
X73074833Y-28280333D01*
X73074833Y-27370166D01*
X73582833Y-27370166D01*
X73582833Y-27581833D01*
X73582833Y-27581833D01*
G37*
X73582833Y-27581833D02*
X73307667Y-27581833D01*
X73307667Y-27730000D01*
X73585153Y-27730000D01*
X73578701Y-27830014D01*
X73572250Y-27930028D01*
X73445250Y-27930555D01*
X73318250Y-27931083D01*
X73311617Y-27999875D01*
X73304984Y-28068666D01*
X73582833Y-28068666D01*
X73582833Y-28280333D01*
X73074833Y-28280333D01*
X73074833Y-27370166D01*
X73582833Y-27370166D01*
X73582833Y-27581833D01*
G36*
X72689061Y-27723711D02*
G01*
X72694872Y-28066673D01*
X72826644Y-28072961D01*
X72958417Y-28079250D01*
X72964868Y-28179791D01*
X72971319Y-28280333D01*
X72438991Y-28280333D01*
X72444704Y-27830541D01*
X72450417Y-27380750D01*
X72683250Y-27380750D01*
X72689061Y-27723711D01*
X72689061Y-27723711D01*
G37*
X72689061Y-27723711D02*
X72694872Y-28066673D01*
X72826644Y-28072961D01*
X72958417Y-28079250D01*
X72964868Y-28179791D01*
X72971319Y-28280333D01*
X72438991Y-28280333D01*
X72444704Y-27830541D01*
X72450417Y-27380750D01*
X72683250Y-27380750D01*
X72689061Y-27723711D01*
G36*
X71901228Y-27375920D02*
G01*
X72026875Y-27384245D01*
X72118497Y-27396996D01*
X72184383Y-27417327D01*
X72232823Y-27448391D01*
X72272105Y-27493340D01*
X72292598Y-27524775D01*
X72327686Y-27618197D01*
X72330849Y-27720087D01*
X72304692Y-27818335D01*
X72251823Y-27900832D01*
X72202982Y-27941124D01*
X72122489Y-27973217D01*
X72016381Y-27983901D01*
X72011208Y-27983920D01*
X71889500Y-27984000D01*
X71889500Y-28280333D01*
X71656667Y-28280333D01*
X71656667Y-27687666D01*
X71889500Y-27687666D01*
X71891165Y-27750440D01*
X71899873Y-27781754D01*
X71921190Y-27792457D01*
X71943808Y-27793500D01*
X72003117Y-27784853D01*
X72039058Y-27771588D01*
X72069876Y-27734231D01*
X72079973Y-27678768D01*
X72067477Y-27624996D01*
X72054600Y-27607233D01*
X72016844Y-27589482D01*
X71960916Y-27581839D01*
X71959350Y-27581833D01*
X71918012Y-27583697D01*
X71897400Y-27596578D01*
X71890300Y-27631406D01*
X71889500Y-27687666D01*
X71656667Y-27687666D01*
X71656667Y-27363875D01*
X71901228Y-27375920D01*
X71901228Y-27375920D01*
G37*
X71901228Y-27375920D02*
X72026875Y-27384245D01*
X72118497Y-27396996D01*
X72184383Y-27417327D01*
X72232823Y-27448391D01*
X72272105Y-27493340D01*
X72292598Y-27524775D01*
X72327686Y-27618197D01*
X72330849Y-27720087D01*
X72304692Y-27818335D01*
X72251823Y-27900832D01*
X72202982Y-27941124D01*
X72122489Y-27973217D01*
X72016381Y-27983901D01*
X72011208Y-27983920D01*
X71889500Y-27984000D01*
X71889500Y-28280333D01*
X71656667Y-28280333D01*
X71656667Y-27687666D01*
X71889500Y-27687666D01*
X71891165Y-27750440D01*
X71899873Y-27781754D01*
X71921190Y-27792457D01*
X71943808Y-27793500D01*
X72003117Y-27784853D01*
X72039058Y-27771588D01*
X72069876Y-27734231D01*
X72079973Y-27678768D01*
X72067477Y-27624996D01*
X72054600Y-27607233D01*
X72016844Y-27589482D01*
X71960916Y-27581839D01*
X71959350Y-27581833D01*
X71918012Y-27583697D01*
X71897400Y-27596578D01*
X71890300Y-27631406D01*
X71889500Y-27687666D01*
X71656667Y-27687666D01*
X71656667Y-27363875D01*
X71901228Y-27375920D01*
G36*
X70424868Y-27481291D02*
G01*
X70431319Y-27581833D01*
X70153833Y-27581833D01*
X70153833Y-27730000D01*
X70407833Y-27730000D01*
X70407833Y-27918387D01*
X70286125Y-27924735D01*
X70217566Y-27929429D01*
X70180565Y-27938475D01*
X70164385Y-27958075D01*
X70158291Y-27994431D01*
X70157862Y-27998832D01*
X70151307Y-28066581D01*
X70284862Y-28072915D01*
X70418417Y-28079250D01*
X70424868Y-28179791D01*
X70431319Y-28280333D01*
X69898991Y-28280333D01*
X69904704Y-27830541D01*
X69910417Y-27380750D01*
X70418417Y-27380750D01*
X70424868Y-27481291D01*
X70424868Y-27481291D01*
G37*
X70424868Y-27481291D02*
X70431319Y-27581833D01*
X70153833Y-27581833D01*
X70153833Y-27730000D01*
X70407833Y-27730000D01*
X70407833Y-27918387D01*
X70286125Y-27924735D01*
X70217566Y-27929429D01*
X70180565Y-27938475D01*
X70164385Y-27958075D01*
X70158291Y-27994431D01*
X70157862Y-27998832D01*
X70151307Y-28066581D01*
X70284862Y-28072915D01*
X70418417Y-28079250D01*
X70424868Y-28179791D01*
X70431319Y-28280333D01*
X69898991Y-28280333D01*
X69904704Y-27830541D01*
X69910417Y-27380750D01*
X70418417Y-27380750D01*
X70424868Y-27481291D01*
G36*
X69361228Y-27375920D02*
G01*
X69488208Y-27384455D01*
X69578423Y-27396139D01*
X69637380Y-27411833D01*
X69658572Y-27422549D01*
X69731794Y-27492658D01*
X69776483Y-27581810D01*
X69792835Y-27680346D01*
X69781046Y-27778607D01*
X69741313Y-27866933D01*
X69673833Y-27935666D01*
X69647820Y-27951222D01*
X69589681Y-27970117D01*
X69511656Y-27981958D01*
X69466968Y-27984000D01*
X69349500Y-27984000D01*
X69349500Y-28280333D01*
X69116667Y-28280333D01*
X69116667Y-27687666D01*
X69349500Y-27687666D01*
X69351165Y-27750440D01*
X69359873Y-27781754D01*
X69381190Y-27792457D01*
X69403808Y-27793500D01*
X69463117Y-27784853D01*
X69499058Y-27771588D01*
X69529876Y-27734231D01*
X69539973Y-27678768D01*
X69527477Y-27624996D01*
X69514600Y-27607233D01*
X69476844Y-27589482D01*
X69420916Y-27581839D01*
X69419350Y-27581833D01*
X69378012Y-27583697D01*
X69357400Y-27596578D01*
X69350300Y-27631406D01*
X69349500Y-27687666D01*
X69116667Y-27687666D01*
X69116667Y-27363875D01*
X69361228Y-27375920D01*
X69361228Y-27375920D01*
G37*
X69361228Y-27375920D02*
X69488208Y-27384455D01*
X69578423Y-27396139D01*
X69637380Y-27411833D01*
X69658572Y-27422549D01*
X69731794Y-27492658D01*
X69776483Y-27581810D01*
X69792835Y-27680346D01*
X69781046Y-27778607D01*
X69741313Y-27866933D01*
X69673833Y-27935666D01*
X69647820Y-27951222D01*
X69589681Y-27970117D01*
X69511656Y-27981958D01*
X69466968Y-27984000D01*
X69349500Y-27984000D01*
X69349500Y-28280333D01*
X69116667Y-28280333D01*
X69116667Y-27687666D01*
X69349500Y-27687666D01*
X69351165Y-27750440D01*
X69359873Y-27781754D01*
X69381190Y-27792457D01*
X69403808Y-27793500D01*
X69463117Y-27784853D01*
X69499058Y-27771588D01*
X69529876Y-27734231D01*
X69539973Y-27678768D01*
X69527477Y-27624996D01*
X69514600Y-27607233D01*
X69476844Y-27589482D01*
X69420916Y-27581839D01*
X69419350Y-27581833D01*
X69378012Y-27583697D01*
X69357400Y-27596578D01*
X69350300Y-27631406D01*
X69349500Y-27687666D01*
X69116667Y-27687666D01*
X69116667Y-27363875D01*
X69361228Y-27375920D01*
G36*
X71169082Y-27383548D02*
G01*
X71244098Y-27409642D01*
X71353791Y-27480973D01*
X71435281Y-27578118D01*
X71486472Y-27693564D01*
X71505267Y-27819802D01*
X71489572Y-27949318D01*
X71437290Y-28074603D01*
X71432054Y-28083266D01*
X71349132Y-28179247D01*
X71240495Y-28248777D01*
X71115306Y-28289399D01*
X70982725Y-28298657D01*
X70851913Y-28274097D01*
X70799262Y-28252895D01*
X70678429Y-28174547D01*
X70590839Y-28073916D01*
X70538069Y-27956811D01*
X70521694Y-27829042D01*
X70522156Y-27826202D01*
X70771189Y-27826202D01*
X70788500Y-27919614D01*
X70790016Y-27923356D01*
X70841586Y-27998406D01*
X70916171Y-28046091D01*
X71003175Y-28064779D01*
X71092003Y-28052841D01*
X71172057Y-28008646D01*
X71195605Y-27985747D01*
X71246651Y-27901958D01*
X71256482Y-27814502D01*
X71225310Y-27728421D01*
X71182533Y-27674966D01*
X71128664Y-27628453D01*
X71077532Y-27607534D01*
X71014824Y-27603000D01*
X70917809Y-27620806D01*
X70841256Y-27669084D01*
X70790578Y-27740121D01*
X70771189Y-27826202D01*
X70522156Y-27826202D01*
X70543287Y-27696418D01*
X70604424Y-27564747D01*
X70610247Y-27555682D01*
X70686566Y-27475229D01*
X70790833Y-27415433D01*
X70912825Y-27378651D01*
X71042316Y-27367237D01*
X71169082Y-27383548D01*
X71169082Y-27383548D01*
G37*
X71169082Y-27383548D02*
X71244098Y-27409642D01*
X71353791Y-27480973D01*
X71435281Y-27578118D01*
X71486472Y-27693564D01*
X71505267Y-27819802D01*
X71489572Y-27949318D01*
X71437290Y-28074603D01*
X71432054Y-28083266D01*
X71349132Y-28179247D01*
X71240495Y-28248777D01*
X71115306Y-28289399D01*
X70982725Y-28298657D01*
X70851913Y-28274097D01*
X70799262Y-28252895D01*
X70678429Y-28174547D01*
X70590839Y-28073916D01*
X70538069Y-27956811D01*
X70521694Y-27829042D01*
X70522156Y-27826202D01*
X70771189Y-27826202D01*
X70788500Y-27919614D01*
X70790016Y-27923356D01*
X70841586Y-27998406D01*
X70916171Y-28046091D01*
X71003175Y-28064779D01*
X71092003Y-28052841D01*
X71172057Y-28008646D01*
X71195605Y-27985747D01*
X71246651Y-27901958D01*
X71256482Y-27814502D01*
X71225310Y-27728421D01*
X71182533Y-27674966D01*
X71128664Y-27628453D01*
X71077532Y-27607534D01*
X71014824Y-27603000D01*
X70917809Y-27620806D01*
X70841256Y-27669084D01*
X70790578Y-27740121D01*
X70771189Y-27826202D01*
X70522156Y-27826202D01*
X70543287Y-27696418D01*
X70604424Y-27564747D01*
X70610247Y-27555682D01*
X70686566Y-27475229D01*
X70790833Y-27415433D01*
X70912825Y-27378651D01*
X71042316Y-27367237D01*
X71169082Y-27383548D01*
G36*
X72736167Y-28767166D02*
G01*
X72461000Y-28767166D01*
X72461000Y-28915333D01*
X72715000Y-28915333D01*
X72715000Y-29105833D01*
X72461000Y-29105833D01*
X72461000Y-29254000D01*
X72736167Y-29254000D01*
X72736167Y-29465666D01*
X72228167Y-29465666D01*
X72228167Y-28555500D01*
X72736167Y-28555500D01*
X72736167Y-28767166D01*
X72736167Y-28767166D01*
G37*
X72736167Y-28767166D02*
X72461000Y-28767166D01*
X72461000Y-28915333D01*
X72715000Y-28915333D01*
X72715000Y-29105833D01*
X72461000Y-29105833D01*
X72461000Y-29254000D01*
X72736167Y-29254000D01*
X72736167Y-29465666D01*
X72228167Y-29465666D01*
X72228167Y-28555500D01*
X72736167Y-28555500D01*
X72736167Y-28767166D01*
G36*
X72069259Y-28559050D02*
G01*
X72112486Y-28568418D01*
X72122333Y-28577546D01*
X72114368Y-28602680D01*
X72092065Y-28660806D01*
X72057808Y-28746028D01*
X72013985Y-28852447D01*
X71962980Y-28974168D01*
X71938208Y-29032629D01*
X71754082Y-29465666D01*
X71662587Y-29465666D01*
X71600817Y-29461317D01*
X71566925Y-29444319D01*
X71550707Y-29418041D01*
X71474710Y-29239455D01*
X71405177Y-29074032D01*
X71343772Y-28925872D01*
X71292160Y-28799076D01*
X71252006Y-28697743D01*
X71224972Y-28625975D01*
X71212724Y-28587870D01*
X71212167Y-28584002D01*
X71221778Y-28566437D01*
X71256052Y-28558738D01*
X71323145Y-28559263D01*
X71332562Y-28559735D01*
X71452958Y-28566083D01*
X71554432Y-28817938D01*
X71593114Y-28913121D01*
X71626223Y-28993043D01*
X71650543Y-29050055D01*
X71662860Y-29076503D01*
X71663458Y-29077346D01*
X71673465Y-29061667D01*
X71695631Y-29013425D01*
X71726940Y-28939575D01*
X71764374Y-28847075D01*
X71774963Y-28820253D01*
X71878917Y-28555608D01*
X72000625Y-28555554D01*
X72069259Y-28559050D01*
X72069259Y-28559050D01*
G37*
X72069259Y-28559050D02*
X72112486Y-28568418D01*
X72122333Y-28577546D01*
X72114368Y-28602680D01*
X72092065Y-28660806D01*
X72057808Y-28746028D01*
X72013985Y-28852447D01*
X71962980Y-28974168D01*
X71938208Y-29032629D01*
X71754082Y-29465666D01*
X71662587Y-29465666D01*
X71600817Y-29461317D01*
X71566925Y-29444319D01*
X71550707Y-29418041D01*
X71474710Y-29239455D01*
X71405177Y-29074032D01*
X71343772Y-28925872D01*
X71292160Y-28799076D01*
X71252006Y-28697743D01*
X71224972Y-28625975D01*
X71212724Y-28587870D01*
X71212167Y-28584002D01*
X71221778Y-28566437D01*
X71256052Y-28558738D01*
X71323145Y-28559263D01*
X71332562Y-28559735D01*
X71452958Y-28566083D01*
X71554432Y-28817938D01*
X71593114Y-28913121D01*
X71626223Y-28993043D01*
X71650543Y-29050055D01*
X71662860Y-29076503D01*
X71663458Y-29077346D01*
X71673465Y-29061667D01*
X71695631Y-29013425D01*
X71726940Y-28939575D01*
X71764374Y-28847075D01*
X71774963Y-28820253D01*
X71878917Y-28555608D01*
X72000625Y-28555554D01*
X72069259Y-28559050D01*
G36*
X71106333Y-29465666D02*
G01*
X70873500Y-29465666D01*
X70873500Y-28555500D01*
X71106333Y-28555500D01*
X71106333Y-29465666D01*
X71106333Y-29465666D01*
G37*
X71106333Y-29465666D02*
X70873500Y-29465666D01*
X70873500Y-28555500D01*
X71106333Y-28555500D01*
X71106333Y-29465666D01*
G36*
X70433422Y-28563523D02*
G01*
X70488935Y-28574230D01*
X70533329Y-28592196D01*
X70621631Y-28657547D01*
X70675801Y-28739678D01*
X70696084Y-28830667D01*
X70682726Y-28922591D01*
X70635973Y-29007527D01*
X70556070Y-29077554D01*
X70517626Y-29098346D01*
X70526828Y-29115197D01*
X70556939Y-29158134D01*
X70602760Y-29219918D01*
X70639219Y-29267679D01*
X70693589Y-29339663D01*
X70736547Y-29399377D01*
X70762480Y-29438858D01*
X70767552Y-29449791D01*
X70748303Y-29457864D01*
X70697814Y-29463580D01*
X70629656Y-29465666D01*
X70491645Y-29465666D01*
X70386239Y-29304200D01*
X70280833Y-29142735D01*
X70280833Y-29465666D01*
X70025991Y-29465666D01*
X70031704Y-29015875D01*
X70033787Y-28851833D01*
X70280833Y-28851833D01*
X70282607Y-28914693D01*
X70291423Y-28946054D01*
X70312526Y-28956714D01*
X70332238Y-28957666D01*
X70386698Y-28944315D01*
X70416905Y-28924404D01*
X70447327Y-28870130D01*
X70437563Y-28815397D01*
X70403123Y-28778950D01*
X70343736Y-28746405D01*
X70305514Y-28749283D01*
X70285571Y-28789303D01*
X70280833Y-28851833D01*
X70033787Y-28851833D01*
X70037417Y-28566083D01*
X70249083Y-28560446D01*
X70357010Y-28559324D01*
X70433422Y-28563523D01*
X70433422Y-28563523D01*
G37*
X70433422Y-28563523D02*
X70488935Y-28574230D01*
X70533329Y-28592196D01*
X70621631Y-28657547D01*
X70675801Y-28739678D01*
X70696084Y-28830667D01*
X70682726Y-28922591D01*
X70635973Y-29007527D01*
X70556070Y-29077554D01*
X70517626Y-29098346D01*
X70526828Y-29115197D01*
X70556939Y-29158134D01*
X70602760Y-29219918D01*
X70639219Y-29267679D01*
X70693589Y-29339663D01*
X70736547Y-29399377D01*
X70762480Y-29438858D01*
X70767552Y-29449791D01*
X70748303Y-29457864D01*
X70697814Y-29463580D01*
X70629656Y-29465666D01*
X70491645Y-29465666D01*
X70386239Y-29304200D01*
X70280833Y-29142735D01*
X70280833Y-29465666D01*
X70025991Y-29465666D01*
X70031704Y-29015875D01*
X70033787Y-28851833D01*
X70280833Y-28851833D01*
X70282607Y-28914693D01*
X70291423Y-28946054D01*
X70312526Y-28956714D01*
X70332238Y-28957666D01*
X70386698Y-28944315D01*
X70416905Y-28924404D01*
X70447327Y-28870130D01*
X70437563Y-28815397D01*
X70403123Y-28778950D01*
X70343736Y-28746405D01*
X70305514Y-28749283D01*
X70285571Y-28789303D01*
X70280833Y-28851833D01*
X70033787Y-28851833D01*
X70037417Y-28566083D01*
X70249083Y-28560446D01*
X70357010Y-28559324D01*
X70433422Y-28563523D01*
G36*
X69384241Y-28558727D02*
G01*
X69484308Y-28567198D01*
X69563879Y-28579099D01*
X69565416Y-28579424D01*
X69680804Y-28623750D01*
X69774328Y-28698189D01*
X69843548Y-28795241D01*
X69886025Y-28907403D01*
X69899319Y-29027177D01*
X69880992Y-29147060D01*
X69828604Y-29259553D01*
X69799343Y-29298700D01*
X69714997Y-29375401D01*
X69609154Y-29427453D01*
X69476229Y-29456810D01*
X69323042Y-29465459D01*
X69116667Y-29465666D01*
X69116667Y-28767166D01*
X69349500Y-28767166D01*
X69349500Y-29254000D01*
X69415026Y-29254000D01*
X69482006Y-29242735D01*
X69540222Y-29218751D01*
X69607135Y-29157092D01*
X69641001Y-29069949D01*
X69645833Y-29010583D01*
X69628720Y-28907865D01*
X69580045Y-28830284D01*
X69503804Y-28782038D01*
X69414051Y-28767166D01*
X69349500Y-28767166D01*
X69116667Y-28767166D01*
X69116667Y-28555500D01*
X69284958Y-28555500D01*
X69384241Y-28558727D01*
X69384241Y-28558727D01*
G37*
X69384241Y-28558727D02*
X69484308Y-28567198D01*
X69563879Y-28579099D01*
X69565416Y-28579424D01*
X69680804Y-28623750D01*
X69774328Y-28698189D01*
X69843548Y-28795241D01*
X69886025Y-28907403D01*
X69899319Y-29027177D01*
X69880992Y-29147060D01*
X69828604Y-29259553D01*
X69799343Y-29298700D01*
X69714997Y-29375401D01*
X69609154Y-29427453D01*
X69476229Y-29456810D01*
X69323042Y-29465459D01*
X69116667Y-29465666D01*
X69116667Y-28767166D01*
X69349500Y-28767166D01*
X69349500Y-29254000D01*
X69415026Y-29254000D01*
X69482006Y-29242735D01*
X69540222Y-29218751D01*
X69607135Y-29157092D01*
X69641001Y-29069949D01*
X69645833Y-29010583D01*
X69628720Y-28907865D01*
X69580045Y-28830284D01*
X69503804Y-28782038D01*
X69414051Y-28767166D01*
X69349500Y-28767166D01*
X69116667Y-28767166D01*
X69116667Y-28555500D01*
X69284958Y-28555500D01*
X69384241Y-28558727D01*
G36*
X77296373Y-29835989D02*
G01*
X77344210Y-29908521D01*
X77378449Y-29945496D01*
X77407004Y-29947819D01*
X77437788Y-29916393D01*
X77476063Y-29856504D01*
X77546167Y-29740833D01*
X77692999Y-29740833D01*
X77771938Y-29742675D01*
X77814442Y-29748978D01*
X77826284Y-29760909D01*
X77823867Y-29767291D01*
X77805354Y-29794818D01*
X77768066Y-29848106D01*
X77718021Y-29918603D01*
X77678583Y-29973666D01*
X77622974Y-30051454D01*
X77575706Y-30118354D01*
X77542885Y-30165677D01*
X77531815Y-30182443D01*
X77524291Y-30215788D01*
X77519335Y-30279708D01*
X77517703Y-30362484D01*
X77518085Y-30395103D01*
X77519137Y-30502676D01*
X77514874Y-30574954D01*
X77501907Y-30618927D01*
X77476848Y-30641589D01*
X77436309Y-30649932D01*
X77394096Y-30651000D01*
X77332088Y-30648240D01*
X77289214Y-30641246D01*
X77279944Y-30636888D01*
X77273924Y-30610922D01*
X77269183Y-30552519D01*
X77266353Y-30471567D01*
X77265833Y-30415370D01*
X77265833Y-30207962D01*
X77121545Y-30000856D01*
X77063704Y-29917517D01*
X77014101Y-29845463D01*
X76978157Y-29792606D01*
X76961546Y-29767291D01*
X76963252Y-29752793D01*
X76993550Y-29744442D01*
X77058204Y-29741061D01*
X77091030Y-29740833D01*
X77236225Y-29740833D01*
X77296373Y-29835989D01*
X77296373Y-29835989D01*
G37*
X77296373Y-29835989D02*
X77344210Y-29908521D01*
X77378449Y-29945496D01*
X77407004Y-29947819D01*
X77437788Y-29916393D01*
X77476063Y-29856504D01*
X77546167Y-29740833D01*
X77692999Y-29740833D01*
X77771938Y-29742675D01*
X77814442Y-29748978D01*
X77826284Y-29760909D01*
X77823867Y-29767291D01*
X77805354Y-29794818D01*
X77768066Y-29848106D01*
X77718021Y-29918603D01*
X77678583Y-29973666D01*
X77622974Y-30051454D01*
X77575706Y-30118354D01*
X77542885Y-30165677D01*
X77531815Y-30182443D01*
X77524291Y-30215788D01*
X77519335Y-30279708D01*
X77517703Y-30362484D01*
X77518085Y-30395103D01*
X77519137Y-30502676D01*
X77514874Y-30574954D01*
X77501907Y-30618927D01*
X77476848Y-30641589D01*
X77436309Y-30649932D01*
X77394096Y-30651000D01*
X77332088Y-30648240D01*
X77289214Y-30641246D01*
X77279944Y-30636888D01*
X77273924Y-30610922D01*
X77269183Y-30552519D01*
X77266353Y-30471567D01*
X77265833Y-30415370D01*
X77265833Y-30207962D01*
X77121545Y-30000856D01*
X77063704Y-29917517D01*
X77014101Y-29845463D01*
X76978157Y-29792606D01*
X76961546Y-29767291D01*
X76963252Y-29752793D01*
X76993550Y-29744442D01*
X77058204Y-29741061D01*
X77091030Y-29740833D01*
X77236225Y-29740833D01*
X77296373Y-29835989D01*
G36*
X76651232Y-29740585D02*
G01*
X76713073Y-29766540D01*
X76778429Y-29808252D01*
X76837911Y-29857573D01*
X76882133Y-29906359D01*
X76901706Y-29946461D01*
X76900897Y-29957246D01*
X76877362Y-29980688D01*
X76827798Y-30009606D01*
X76797039Y-30023584D01*
X76702174Y-30062918D01*
X76636382Y-29997125D01*
X76562324Y-29943202D01*
X76488789Y-29931293D01*
X76413982Y-29961440D01*
X76364133Y-30003300D01*
X76322080Y-30049980D01*
X76300575Y-30092830D01*
X76292912Y-30149760D01*
X76292167Y-30195428D01*
X76295217Y-30269584D01*
X76308229Y-30318650D01*
X76336994Y-30359664D01*
X76354038Y-30377461D01*
X76406234Y-30419485D01*
X76463249Y-30436968D01*
X76511252Y-30439333D01*
X76578073Y-30434170D01*
X76621845Y-30413584D01*
X76652544Y-30381125D01*
X76698494Y-30322916D01*
X76601164Y-30316465D01*
X76503833Y-30310013D01*
X76503833Y-30121833D01*
X76969500Y-30121833D01*
X76969500Y-30181491D01*
X76950578Y-30318448D01*
X76897581Y-30436931D01*
X76816163Y-30533084D01*
X76711979Y-30603051D01*
X76590683Y-30642978D01*
X76457929Y-30649009D01*
X76326557Y-30619903D01*
X76215653Y-30560222D01*
X76131289Y-30474453D01*
X76074002Y-30369918D01*
X76044333Y-30253937D01*
X76042821Y-30133830D01*
X76070003Y-30016919D01*
X76126419Y-29910523D01*
X76212608Y-29821964D01*
X76265289Y-29787621D01*
X76390713Y-29740149D01*
X76528278Y-29724592D01*
X76651232Y-29740585D01*
X76651232Y-29740585D01*
G37*
X76651232Y-29740585D02*
X76713073Y-29766540D01*
X76778429Y-29808252D01*
X76837911Y-29857573D01*
X76882133Y-29906359D01*
X76901706Y-29946461D01*
X76900897Y-29957246D01*
X76877362Y-29980688D01*
X76827798Y-30009606D01*
X76797039Y-30023584D01*
X76702174Y-30062918D01*
X76636382Y-29997125D01*
X76562324Y-29943202D01*
X76488789Y-29931293D01*
X76413982Y-29961440D01*
X76364133Y-30003300D01*
X76322080Y-30049980D01*
X76300575Y-30092830D01*
X76292912Y-30149760D01*
X76292167Y-30195428D01*
X76295217Y-30269584D01*
X76308229Y-30318650D01*
X76336994Y-30359664D01*
X76354038Y-30377461D01*
X76406234Y-30419485D01*
X76463249Y-30436968D01*
X76511252Y-30439333D01*
X76578073Y-30434170D01*
X76621845Y-30413584D01*
X76652544Y-30381125D01*
X76698494Y-30322916D01*
X76601164Y-30316465D01*
X76503833Y-30310013D01*
X76503833Y-30121833D01*
X76969500Y-30121833D01*
X76969500Y-30181491D01*
X76950578Y-30318448D01*
X76897581Y-30436931D01*
X76816163Y-30533084D01*
X76711979Y-30603051D01*
X76590683Y-30642978D01*
X76457929Y-30649009D01*
X76326557Y-30619903D01*
X76215653Y-30560222D01*
X76131289Y-30474453D01*
X76074002Y-30369918D01*
X76044333Y-30253937D01*
X76042821Y-30133830D01*
X76070003Y-30016919D01*
X76126419Y-29910523D01*
X76212608Y-29821964D01*
X76265289Y-29787621D01*
X76390713Y-29740149D01*
X76528278Y-29724592D01*
X76651232Y-29740585D01*
G36*
X74641167Y-30439333D02*
G01*
X74916333Y-30439333D01*
X74916333Y-30651000D01*
X74408333Y-30651000D01*
X74408333Y-29740833D01*
X74641167Y-29740833D01*
X74641167Y-30439333D01*
X74641167Y-30439333D01*
G37*
X74641167Y-30439333D02*
X74916333Y-30439333D01*
X74916333Y-30651000D01*
X74408333Y-30651000D01*
X74408333Y-29740833D01*
X74641167Y-29740833D01*
X74641167Y-30439333D01*
G36*
X73138333Y-30651000D02*
G01*
X72912252Y-30651000D01*
X72744834Y-30436195D01*
X72676837Y-30349351D01*
X72614042Y-30269873D01*
X72563261Y-30206335D01*
X72531307Y-30167315D01*
X72530460Y-30166320D01*
X72483504Y-30111250D01*
X72482835Y-30381125D01*
X72482167Y-30651000D01*
X72379861Y-30651000D01*
X72317157Y-30648299D01*
X72273489Y-30641440D01*
X72263444Y-30636888D01*
X72259223Y-30612396D01*
X72255506Y-30552047D01*
X72252494Y-30462317D01*
X72250388Y-30349683D01*
X72249388Y-30220621D01*
X72249333Y-30181805D01*
X72249333Y-29740833D01*
X72371042Y-29741765D01*
X72492750Y-29742697D01*
X72693833Y-30007413D01*
X72894917Y-30272128D01*
X72900841Y-30006481D01*
X72906765Y-29740833D01*
X73138333Y-29740833D01*
X73138333Y-30651000D01*
X73138333Y-30651000D01*
G37*
X73138333Y-30651000D02*
X72912252Y-30651000D01*
X72744834Y-30436195D01*
X72676837Y-30349351D01*
X72614042Y-30269873D01*
X72563261Y-30206335D01*
X72531307Y-30167315D01*
X72530460Y-30166320D01*
X72483504Y-30111250D01*
X72482835Y-30381125D01*
X72482167Y-30651000D01*
X72379861Y-30651000D01*
X72317157Y-30648299D01*
X72273489Y-30641440D01*
X72263444Y-30636888D01*
X72259223Y-30612396D01*
X72255506Y-30552047D01*
X72252494Y-30462317D01*
X72250388Y-30349683D01*
X72249388Y-30220621D01*
X72249333Y-30181805D01*
X72249333Y-29740833D01*
X72371042Y-29741765D01*
X72492750Y-29742697D01*
X72693833Y-30007413D01*
X72894917Y-30272128D01*
X72900841Y-30006481D01*
X72906765Y-29740833D01*
X73138333Y-29740833D01*
X73138333Y-30651000D01*
G36*
X71508500Y-30079500D02*
G01*
X71826000Y-30079500D01*
X71826000Y-29740833D01*
X71947708Y-29740848D01*
X72069417Y-29740863D01*
X72066856Y-30190640D01*
X72064295Y-30640416D01*
X71945986Y-30646739D01*
X71827678Y-30653062D01*
X71821547Y-30466822D01*
X71815417Y-30280583D01*
X71519083Y-30280583D01*
X71508500Y-30460500D01*
X71497917Y-30640416D01*
X71391270Y-30646659D01*
X71327127Y-30647488D01*
X71281525Y-30642694D01*
X71269562Y-30637839D01*
X71265055Y-30613052D01*
X71261087Y-30552426D01*
X71257872Y-30462456D01*
X71255624Y-30349637D01*
X71254557Y-30220463D01*
X71254500Y-30181805D01*
X71254500Y-29740833D01*
X71508500Y-29740833D01*
X71508500Y-30079500D01*
X71508500Y-30079500D01*
G37*
X71508500Y-30079500D02*
X71826000Y-30079500D01*
X71826000Y-29740833D01*
X71947708Y-29740848D01*
X72069417Y-29740863D01*
X72066856Y-30190640D01*
X72064295Y-30640416D01*
X71945986Y-30646739D01*
X71827678Y-30653062D01*
X71821547Y-30466822D01*
X71815417Y-30280583D01*
X71519083Y-30280583D01*
X71508500Y-30460500D01*
X71497917Y-30640416D01*
X71391270Y-30646659D01*
X71327127Y-30647488D01*
X71281525Y-30642694D01*
X71269562Y-30637839D01*
X71265055Y-30613052D01*
X71261087Y-30552426D01*
X71257872Y-30462456D01*
X71255624Y-30349637D01*
X71254557Y-30220463D01*
X71254500Y-30181805D01*
X71254500Y-29740833D01*
X71508500Y-29740833D01*
X71508500Y-30079500D01*
G36*
X70344333Y-29952500D02*
G01*
X70069167Y-29952500D01*
X70069167Y-30079500D01*
X70323167Y-30079500D01*
X70323167Y-30291166D01*
X70069167Y-30291166D01*
X70069167Y-30439333D01*
X70344333Y-30439333D01*
X70344333Y-30651000D01*
X70090333Y-30651000D01*
X69992116Y-30649760D01*
X69911326Y-30646385D01*
X69856201Y-30641385D01*
X69834979Y-30635272D01*
X69834955Y-30635125D01*
X69834656Y-30611200D01*
X69834459Y-30552757D01*
X69834356Y-30467614D01*
X69834340Y-30363584D01*
X69834402Y-30248484D01*
X69834535Y-30130131D01*
X69834733Y-30016339D01*
X69834986Y-29914924D01*
X69835287Y-29833703D01*
X69835629Y-29780490D01*
X69835804Y-29767291D01*
X69847998Y-29755319D01*
X69887209Y-29747257D01*
X69958222Y-29742608D01*
X70065826Y-29740874D01*
X70090333Y-29740833D01*
X70344333Y-29740833D01*
X70344333Y-29952500D01*
X70344333Y-29952500D01*
G37*
X70344333Y-29952500D02*
X70069167Y-29952500D01*
X70069167Y-30079500D01*
X70323167Y-30079500D01*
X70323167Y-30291166D01*
X70069167Y-30291166D01*
X70069167Y-30439333D01*
X70344333Y-30439333D01*
X70344333Y-30651000D01*
X70090333Y-30651000D01*
X69992116Y-30649760D01*
X69911326Y-30646385D01*
X69856201Y-30641385D01*
X69834979Y-30635272D01*
X69834955Y-30635125D01*
X69834656Y-30611200D01*
X69834459Y-30552757D01*
X69834356Y-30467614D01*
X69834340Y-30363584D01*
X69834402Y-30248484D01*
X69834535Y-30130131D01*
X69834733Y-30016339D01*
X69834986Y-29914924D01*
X69835287Y-29833703D01*
X69835629Y-29780490D01*
X69835804Y-29767291D01*
X69847998Y-29755319D01*
X69887209Y-29747257D01*
X69958222Y-29742608D01*
X70065826Y-29740874D01*
X70090333Y-29740833D01*
X70344333Y-29740833D01*
X70344333Y-29952500D01*
G36*
X69730500Y-29952500D02*
G01*
X69540000Y-29952500D01*
X69540000Y-30651000D01*
X69307167Y-30651000D01*
X69307167Y-29952500D01*
X69116667Y-29952500D01*
X69116667Y-29740833D01*
X69730500Y-29740833D01*
X69730500Y-29952500D01*
X69730500Y-29952500D01*
G37*
X69730500Y-29952500D02*
X69540000Y-29952500D01*
X69540000Y-30651000D01*
X69307167Y-30651000D01*
X69307167Y-29952500D01*
X69116667Y-29952500D01*
X69116667Y-29740833D01*
X69730500Y-29740833D01*
X69730500Y-29952500D01*
G36*
X66691318Y-27372630D02*
G01*
X66888332Y-27373639D01*
X67071410Y-27375339D01*
X67236224Y-27377746D01*
X67378444Y-27380878D01*
X67493744Y-27384750D01*
X67577795Y-27389381D01*
X67626268Y-27394786D01*
X67635000Y-27397303D01*
X67687917Y-27424309D01*
X67693571Y-27957792D01*
X67695166Y-28122077D01*
X67695814Y-28249304D01*
X67695176Y-28344742D01*
X67692913Y-28413661D01*
X67688686Y-28461331D01*
X67682157Y-28493023D01*
X67672986Y-28514006D01*
X67660834Y-28529551D01*
X67656529Y-28533970D01*
X67644524Y-28544642D01*
X67629217Y-28553370D01*
X67606545Y-28560350D01*
X67572445Y-28565777D01*
X67522853Y-28569846D01*
X67453707Y-28572752D01*
X67360944Y-28574690D01*
X67240500Y-28575855D01*
X67088313Y-28576442D01*
X66900319Y-28576646D01*
X66767167Y-28576666D01*
X65920500Y-28576666D01*
X65920500Y-29444500D01*
X66767167Y-29444500D01*
X66978891Y-29444570D01*
X67152343Y-29444909D01*
X67291585Y-29445710D01*
X67400675Y-29447168D01*
X67483677Y-29449475D01*
X67544650Y-29452824D01*
X67587656Y-29457410D01*
X67616755Y-29463425D01*
X67636009Y-29471062D01*
X67649479Y-29480516D01*
X67656167Y-29486833D01*
X67669373Y-29502163D01*
X67679509Y-29521970D01*
X67686981Y-29551606D01*
X67692192Y-29596423D01*
X67695545Y-29661774D01*
X67697444Y-29753011D01*
X67698295Y-29875485D01*
X67698499Y-30034549D01*
X67698500Y-30047750D01*
X67698326Y-30209696D01*
X67697537Y-30334663D01*
X67695728Y-30428000D01*
X67692494Y-30495061D01*
X67687433Y-30541198D01*
X67680141Y-30571762D01*
X67670212Y-30592106D01*
X67657244Y-30607581D01*
X67656167Y-30608666D01*
X67646745Y-30617130D01*
X67634594Y-30624383D01*
X67616589Y-30630520D01*
X67589604Y-30635633D01*
X67550514Y-30639816D01*
X67496191Y-30643162D01*
X67423511Y-30645764D01*
X67329348Y-30647716D01*
X67210575Y-30649111D01*
X67064068Y-30650043D01*
X66886700Y-30650604D01*
X66675346Y-30650888D01*
X66426879Y-30650989D01*
X66238000Y-30651000D01*
X65962940Y-30650972D01*
X65727086Y-30650826D01*
X65527312Y-30650469D01*
X65360491Y-30649805D01*
X65223496Y-30648741D01*
X65113200Y-30647182D01*
X65026477Y-30645034D01*
X64960199Y-30642203D01*
X64911240Y-30638595D01*
X64876472Y-30634115D01*
X64852770Y-30628670D01*
X64837006Y-30622165D01*
X64826053Y-30614506D01*
X64819434Y-30608267D01*
X64811392Y-30599478D01*
X64804441Y-30588383D01*
X64798514Y-30572060D01*
X64793543Y-30547590D01*
X64789461Y-30512051D01*
X64786201Y-30462522D01*
X64783696Y-30396083D01*
X64781878Y-30309812D01*
X64780680Y-30200788D01*
X64780034Y-30066091D01*
X64779874Y-29902799D01*
X64780131Y-29707991D01*
X64780740Y-29478748D01*
X64781632Y-29212147D01*
X64782393Y-29000652D01*
X64783638Y-28694659D01*
X64785034Y-28428496D01*
X64786632Y-28199662D01*
X64788484Y-28005655D01*
X64790643Y-27843971D01*
X64793160Y-27712109D01*
X64796088Y-27607566D01*
X64799479Y-27527841D01*
X64803385Y-27470430D01*
X64807859Y-27432832D01*
X64812952Y-27412543D01*
X64815591Y-27408259D01*
X64842239Y-27402294D01*
X64906889Y-27396817D01*
X65005214Y-27391846D01*
X65132884Y-27387397D01*
X65285573Y-27383487D01*
X65458951Y-27380134D01*
X65648690Y-27377353D01*
X65850462Y-27375162D01*
X66059939Y-27373577D01*
X66272793Y-27372615D01*
X66484695Y-27372294D01*
X66691318Y-27372630D01*
X66691318Y-27372630D01*
G37*
X66691318Y-27372630D02*
X66888332Y-27373639D01*
X67071410Y-27375339D01*
X67236224Y-27377746D01*
X67378444Y-27380878D01*
X67493744Y-27384750D01*
X67577795Y-27389381D01*
X67626268Y-27394786D01*
X67635000Y-27397303D01*
X67687917Y-27424309D01*
X67693571Y-27957792D01*
X67695166Y-28122077D01*
X67695814Y-28249304D01*
X67695176Y-28344742D01*
X67692913Y-28413661D01*
X67688686Y-28461331D01*
X67682157Y-28493023D01*
X67672986Y-28514006D01*
X67660834Y-28529551D01*
X67656529Y-28533970D01*
X67644524Y-28544642D01*
X67629217Y-28553370D01*
X67606545Y-28560350D01*
X67572445Y-28565777D01*
X67522853Y-28569846D01*
X67453707Y-28572752D01*
X67360944Y-28574690D01*
X67240500Y-28575855D01*
X67088313Y-28576442D01*
X66900319Y-28576646D01*
X66767167Y-28576666D01*
X65920500Y-28576666D01*
X65920500Y-29444500D01*
X66767167Y-29444500D01*
X66978891Y-29444570D01*
X67152343Y-29444909D01*
X67291585Y-29445710D01*
X67400675Y-29447168D01*
X67483677Y-29449475D01*
X67544650Y-29452824D01*
X67587656Y-29457410D01*
X67616755Y-29463425D01*
X67636009Y-29471062D01*
X67649479Y-29480516D01*
X67656167Y-29486833D01*
X67669373Y-29502163D01*
X67679509Y-29521970D01*
X67686981Y-29551606D01*
X67692192Y-29596423D01*
X67695545Y-29661774D01*
X67697444Y-29753011D01*
X67698295Y-29875485D01*
X67698499Y-30034549D01*
X67698500Y-30047750D01*
X67698326Y-30209696D01*
X67697537Y-30334663D01*
X67695728Y-30428000D01*
X67692494Y-30495061D01*
X67687433Y-30541198D01*
X67680141Y-30571762D01*
X67670212Y-30592106D01*
X67657244Y-30607581D01*
X67656167Y-30608666D01*
X67646745Y-30617130D01*
X67634594Y-30624383D01*
X67616589Y-30630520D01*
X67589604Y-30635633D01*
X67550514Y-30639816D01*
X67496191Y-30643162D01*
X67423511Y-30645764D01*
X67329348Y-30647716D01*
X67210575Y-30649111D01*
X67064068Y-30650043D01*
X66886700Y-30650604D01*
X66675346Y-30650888D01*
X66426879Y-30650989D01*
X66238000Y-30651000D01*
X65962940Y-30650972D01*
X65727086Y-30650826D01*
X65527312Y-30650469D01*
X65360491Y-30649805D01*
X65223496Y-30648741D01*
X65113200Y-30647182D01*
X65026477Y-30645034D01*
X64960199Y-30642203D01*
X64911240Y-30638595D01*
X64876472Y-30634115D01*
X64852770Y-30628670D01*
X64837006Y-30622165D01*
X64826053Y-30614506D01*
X64819434Y-30608267D01*
X64811392Y-30599478D01*
X64804441Y-30588383D01*
X64798514Y-30572060D01*
X64793543Y-30547590D01*
X64789461Y-30512051D01*
X64786201Y-30462522D01*
X64783696Y-30396083D01*
X64781878Y-30309812D01*
X64780680Y-30200788D01*
X64780034Y-30066091D01*
X64779874Y-29902799D01*
X64780131Y-29707991D01*
X64780740Y-29478748D01*
X64781632Y-29212147D01*
X64782393Y-29000652D01*
X64783638Y-28694659D01*
X64785034Y-28428496D01*
X64786632Y-28199662D01*
X64788484Y-28005655D01*
X64790643Y-27843971D01*
X64793160Y-27712109D01*
X64796088Y-27607566D01*
X64799479Y-27527841D01*
X64803385Y-27470430D01*
X64807859Y-27432832D01*
X64812952Y-27412543D01*
X64815591Y-27408259D01*
X64842239Y-27402294D01*
X64906889Y-27396817D01*
X65005214Y-27391846D01*
X65132884Y-27387397D01*
X65285573Y-27383487D01*
X65458951Y-27380134D01*
X65648690Y-27377353D01*
X65850462Y-27375162D01*
X66059939Y-27373577D01*
X66272793Y-27372615D01*
X66484695Y-27372294D01*
X66691318Y-27372630D01*
G36*
X62317255Y-27370178D02*
G01*
X62638109Y-27370244D01*
X62921416Y-27370406D01*
X63169566Y-27370708D01*
X63384953Y-27371194D01*
X63569969Y-27371906D01*
X63727007Y-27372889D01*
X63858459Y-27374185D01*
X63966717Y-27375838D01*
X64054174Y-27377892D01*
X64123224Y-27380389D01*
X64176257Y-27383374D01*
X64215666Y-27386889D01*
X64243845Y-27390978D01*
X64263185Y-27395684D01*
X64276080Y-27401051D01*
X64284921Y-27407122D01*
X64290667Y-27412499D01*
X64298659Y-27421366D01*
X64305577Y-27432807D01*
X64311498Y-27449751D01*
X64316499Y-27475127D01*
X64320658Y-27511865D01*
X64324052Y-27562893D01*
X64326760Y-27631140D01*
X64328857Y-27719537D01*
X64330424Y-27831012D01*
X64331536Y-27968494D01*
X64332271Y-28134912D01*
X64332708Y-28333196D01*
X64332923Y-28566274D01*
X64332994Y-28837077D01*
X64333000Y-29010583D01*
X64332981Y-29304274D01*
X64332870Y-29558564D01*
X64332588Y-29776382D01*
X64332055Y-29960661D01*
X64331192Y-30114331D01*
X64329920Y-30240323D01*
X64328158Y-30341570D01*
X64325827Y-30421001D01*
X64322848Y-30481549D01*
X64319141Y-30526144D01*
X64314627Y-30557718D01*
X64309225Y-30579201D01*
X64302857Y-30593526D01*
X64295443Y-30603623D01*
X64289604Y-30609728D01*
X64274238Y-30623348D01*
X64255289Y-30633680D01*
X64227327Y-30641089D01*
X64184921Y-30645941D01*
X64122639Y-30648599D01*
X64035051Y-30649429D01*
X63916726Y-30648796D01*
X63762232Y-30647066D01*
X63738471Y-30646770D01*
X63574704Y-30644343D01*
X63448430Y-30641438D01*
X63354806Y-30637704D01*
X63288993Y-30632793D01*
X63246149Y-30626355D01*
X63221434Y-30618040D01*
X63210691Y-30608666D01*
X63206172Y-30580563D01*
X63202091Y-30513343D01*
X63198513Y-30410221D01*
X63195500Y-30274413D01*
X63193117Y-30109134D01*
X63191427Y-29917598D01*
X63190492Y-29703021D01*
X63190324Y-29576791D01*
X63190000Y-28576666D01*
X62512667Y-28576666D01*
X62512667Y-30585099D01*
X62465623Y-30618049D01*
X62443823Y-30628975D01*
X62410116Y-30637269D01*
X62359142Y-30643266D01*
X62285541Y-30647301D01*
X62183951Y-30649706D01*
X62049011Y-30650815D01*
X61936457Y-30651000D01*
X61780871Y-30650800D01*
X61662034Y-30649903D01*
X61574361Y-30647856D01*
X61512268Y-30644209D01*
X61470172Y-30638510D01*
X61442487Y-30630311D01*
X61423629Y-30619159D01*
X61412000Y-30608666D01*
X61402170Y-30597604D01*
X61393991Y-30583352D01*
X61387313Y-30562191D01*
X61381984Y-30530401D01*
X61377850Y-30484265D01*
X61374762Y-30420062D01*
X61372566Y-30334074D01*
X61371112Y-30222582D01*
X61370247Y-30081867D01*
X61369819Y-29908210D01*
X61369678Y-29697892D01*
X61369667Y-29571500D01*
X61369667Y-28576666D01*
X60713500Y-28576666D01*
X60713500Y-29571500D01*
X60713447Y-29802561D01*
X60713189Y-29995008D01*
X60712573Y-30152560D01*
X60711447Y-30278936D01*
X60709659Y-30377854D01*
X60707059Y-30453035D01*
X60703493Y-30508195D01*
X60698811Y-30547056D01*
X60692860Y-30573335D01*
X60685488Y-30590752D01*
X60676544Y-30603026D01*
X60671167Y-30608666D01*
X60655256Y-30622310D01*
X60634676Y-30632666D01*
X60603844Y-30640184D01*
X60557176Y-30645316D01*
X60489086Y-30648512D01*
X60393991Y-30650223D01*
X60266308Y-30650900D01*
X60146710Y-30651000D01*
X59986247Y-30650576D01*
X59862750Y-30649081D01*
X59770858Y-30646183D01*
X59705209Y-30641546D01*
X59660444Y-30634838D01*
X59631201Y-30625724D01*
X59617543Y-30618049D01*
X59570500Y-30585099D01*
X59570500Y-27436067D01*
X59617543Y-27403116D01*
X59628389Y-27397881D01*
X59646683Y-27393223D01*
X59674768Y-27389110D01*
X59714984Y-27385508D01*
X59769674Y-27382384D01*
X59841180Y-27379706D01*
X59931842Y-27377441D01*
X60044003Y-27375554D01*
X60180004Y-27374015D01*
X60342188Y-27372788D01*
X60532895Y-27371843D01*
X60754467Y-27371144D01*
X61009247Y-27370661D01*
X61299575Y-27370358D01*
X61627794Y-27370205D01*
X61956460Y-27370166D01*
X62317255Y-27370178D01*
X62317255Y-27370178D01*
G37*
X62317255Y-27370178D02*
X62638109Y-27370244D01*
X62921416Y-27370406D01*
X63169566Y-27370708D01*
X63384953Y-27371194D01*
X63569969Y-27371906D01*
X63727007Y-27372889D01*
X63858459Y-27374185D01*
X63966717Y-27375838D01*
X64054174Y-27377892D01*
X64123224Y-27380389D01*
X64176257Y-27383374D01*
X64215666Y-27386889D01*
X64243845Y-27390978D01*
X64263185Y-27395684D01*
X64276080Y-27401051D01*
X64284921Y-27407122D01*
X64290667Y-27412499D01*
X64298659Y-27421366D01*
X64305577Y-27432807D01*
X64311498Y-27449751D01*
X64316499Y-27475127D01*
X64320658Y-27511865D01*
X64324052Y-27562893D01*
X64326760Y-27631140D01*
X64328857Y-27719537D01*
X64330424Y-27831012D01*
X64331536Y-27968494D01*
X64332271Y-28134912D01*
X64332708Y-28333196D01*
X64332923Y-28566274D01*
X64332994Y-28837077D01*
X64333000Y-29010583D01*
X64332981Y-29304274D01*
X64332870Y-29558564D01*
X64332588Y-29776382D01*
X64332055Y-29960661D01*
X64331192Y-30114331D01*
X64329920Y-30240323D01*
X64328158Y-30341570D01*
X64325827Y-30421001D01*
X64322848Y-30481549D01*
X64319141Y-30526144D01*
X64314627Y-30557718D01*
X64309225Y-30579201D01*
X64302857Y-30593526D01*
X64295443Y-30603623D01*
X64289604Y-30609728D01*
X64274238Y-30623348D01*
X64255289Y-30633680D01*
X64227327Y-30641089D01*
X64184921Y-30645941D01*
X64122639Y-30648599D01*
X64035051Y-30649429D01*
X63916726Y-30648796D01*
X63762232Y-30647066D01*
X63738471Y-30646770D01*
X63574704Y-30644343D01*
X63448430Y-30641438D01*
X63354806Y-30637704D01*
X63288993Y-30632793D01*
X63246149Y-30626355D01*
X63221434Y-30618040D01*
X63210691Y-30608666D01*
X63206172Y-30580563D01*
X63202091Y-30513343D01*
X63198513Y-30410221D01*
X63195500Y-30274413D01*
X63193117Y-30109134D01*
X63191427Y-29917598D01*
X63190492Y-29703021D01*
X63190324Y-29576791D01*
X63190000Y-28576666D01*
X62512667Y-28576666D01*
X62512667Y-30585099D01*
X62465623Y-30618049D01*
X62443823Y-30628975D01*
X62410116Y-30637269D01*
X62359142Y-30643266D01*
X62285541Y-30647301D01*
X62183951Y-30649706D01*
X62049011Y-30650815D01*
X61936457Y-30651000D01*
X61780871Y-30650800D01*
X61662034Y-30649903D01*
X61574361Y-30647856D01*
X61512268Y-30644209D01*
X61470172Y-30638510D01*
X61442487Y-30630311D01*
X61423629Y-30619159D01*
X61412000Y-30608666D01*
X61402170Y-30597604D01*
X61393991Y-30583352D01*
X61387313Y-30562191D01*
X61381984Y-30530401D01*
X61377850Y-30484265D01*
X61374762Y-30420062D01*
X61372566Y-30334074D01*
X61371112Y-30222582D01*
X61370247Y-30081867D01*
X61369819Y-29908210D01*
X61369678Y-29697892D01*
X61369667Y-29571500D01*
X61369667Y-28576666D01*
X60713500Y-28576666D01*
X60713500Y-29571500D01*
X60713447Y-29802561D01*
X60713189Y-29995008D01*
X60712573Y-30152560D01*
X60711447Y-30278936D01*
X60709659Y-30377854D01*
X60707059Y-30453035D01*
X60703493Y-30508195D01*
X60698811Y-30547056D01*
X60692860Y-30573335D01*
X60685488Y-30590752D01*
X60676544Y-30603026D01*
X60671167Y-30608666D01*
X60655256Y-30622310D01*
X60634676Y-30632666D01*
X60603844Y-30640184D01*
X60557176Y-30645316D01*
X60489086Y-30648512D01*
X60393991Y-30650223D01*
X60266308Y-30650900D01*
X60146710Y-30651000D01*
X59986247Y-30650576D01*
X59862750Y-30649081D01*
X59770858Y-30646183D01*
X59705209Y-30641546D01*
X59660444Y-30634838D01*
X59631201Y-30625724D01*
X59617543Y-30618049D01*
X59570500Y-30585099D01*
X59570500Y-27436067D01*
X59617543Y-27403116D01*
X59628389Y-27397881D01*
X59646683Y-27393223D01*
X59674768Y-27389110D01*
X59714984Y-27385508D01*
X59769674Y-27382384D01*
X59841180Y-27379706D01*
X59931842Y-27377441D01*
X60044003Y-27375554D01*
X60180004Y-27374015D01*
X60342188Y-27372788D01*
X60532895Y-27371843D01*
X60754467Y-27371144D01*
X61009247Y-27370661D01*
X61299575Y-27370358D01*
X61627794Y-27370205D01*
X61956460Y-27370166D01*
X62317255Y-27370178D01*
G36*
X57912376Y-27370258D02*
G01*
X58151722Y-27370581D01*
X58354839Y-27371206D01*
X58524780Y-27372203D01*
X58664595Y-27373643D01*
X58777339Y-27375597D01*
X58866063Y-27378135D01*
X58933818Y-27381327D01*
X58983658Y-27385245D01*
X59018634Y-27389960D01*
X59041798Y-27395540D01*
X59056203Y-27402058D01*
X59057790Y-27403116D01*
X59072189Y-27414256D01*
X59083302Y-27428441D01*
X59091555Y-27450826D01*
X59097373Y-27486565D01*
X59101182Y-27540813D01*
X59103407Y-27618724D01*
X59104474Y-27725452D01*
X59104808Y-27866153D01*
X59104833Y-27973104D01*
X59104518Y-28141251D01*
X59103379Y-28272033D01*
X59101126Y-28370419D01*
X59097471Y-28441373D01*
X59092122Y-28489863D01*
X59084792Y-28520855D01*
X59075189Y-28539315D01*
X59071571Y-28543404D01*
X59054101Y-28555031D01*
X59024444Y-28563672D01*
X58976955Y-28569738D01*
X58905987Y-28573643D01*
X58805897Y-28575799D01*
X58671037Y-28576619D01*
X58616488Y-28576666D01*
X58194667Y-28576666D01*
X58194667Y-30609714D01*
X58140372Y-30630357D01*
X58103806Y-30636396D01*
X58031876Y-30641738D01*
X57931549Y-30646109D01*
X57809791Y-30649236D01*
X57673570Y-30650843D01*
X57615251Y-30651000D01*
X57453604Y-30650457D01*
X57329299Y-30648633D01*
X57237353Y-30645237D01*
X57172787Y-30639976D01*
X57130620Y-30632557D01*
X57105870Y-30622690D01*
X57103337Y-30620969D01*
X57093837Y-30612569D01*
X57085891Y-30600039D01*
X57079331Y-30579734D01*
X57073992Y-30548006D01*
X57069708Y-30501209D01*
X57066315Y-30435697D01*
X57063644Y-30347822D01*
X57061532Y-30233939D01*
X57059811Y-30090401D01*
X57058317Y-29913561D01*
X57056883Y-29699773D01*
X57056173Y-29583803D01*
X57050096Y-28576666D01*
X56639643Y-28576666D01*
X56493843Y-28576185D01*
X56384640Y-28574453D01*
X56306308Y-28571043D01*
X56253119Y-28565525D01*
X56219344Y-28557469D01*
X56199257Y-28546446D01*
X56195928Y-28543404D01*
X56185534Y-28527918D01*
X56177504Y-28501497D01*
X56171550Y-28459174D01*
X56167382Y-28395984D01*
X56164710Y-28306959D01*
X56163244Y-28187134D01*
X56162696Y-28031542D01*
X56162667Y-27973104D01*
X56162759Y-27808667D01*
X56163320Y-27681409D01*
X56164774Y-27586175D01*
X56167548Y-27517812D01*
X56172066Y-27471163D01*
X56178754Y-27441076D01*
X56188038Y-27422396D01*
X56200342Y-27409967D01*
X56209710Y-27403116D01*
X56223069Y-27396452D01*
X56244731Y-27390736D01*
X56277750Y-27385897D01*
X56325177Y-27381864D01*
X56390063Y-27378568D01*
X56475463Y-27375937D01*
X56584426Y-27373901D01*
X56720006Y-27372388D01*
X56885255Y-27371330D01*
X57083225Y-27370654D01*
X57316968Y-27370290D01*
X57589536Y-27370168D01*
X57633750Y-27370166D01*
X57912376Y-27370258D01*
X57912376Y-27370258D01*
G37*
X57912376Y-27370258D02*
X58151722Y-27370581D01*
X58354839Y-27371206D01*
X58524780Y-27372203D01*
X58664595Y-27373643D01*
X58777339Y-27375597D01*
X58866063Y-27378135D01*
X58933818Y-27381327D01*
X58983658Y-27385245D01*
X59018634Y-27389960D01*
X59041798Y-27395540D01*
X59056203Y-27402058D01*
X59057790Y-27403116D01*
X59072189Y-27414256D01*
X59083302Y-27428441D01*
X59091555Y-27450826D01*
X59097373Y-27486565D01*
X59101182Y-27540813D01*
X59103407Y-27618724D01*
X59104474Y-27725452D01*
X59104808Y-27866153D01*
X59104833Y-27973104D01*
X59104518Y-28141251D01*
X59103379Y-28272033D01*
X59101126Y-28370419D01*
X59097471Y-28441373D01*
X59092122Y-28489863D01*
X59084792Y-28520855D01*
X59075189Y-28539315D01*
X59071571Y-28543404D01*
X59054101Y-28555031D01*
X59024444Y-28563672D01*
X58976955Y-28569738D01*
X58905987Y-28573643D01*
X58805897Y-28575799D01*
X58671037Y-28576619D01*
X58616488Y-28576666D01*
X58194667Y-28576666D01*
X58194667Y-30609714D01*
X58140372Y-30630357D01*
X58103806Y-30636396D01*
X58031876Y-30641738D01*
X57931549Y-30646109D01*
X57809791Y-30649236D01*
X57673570Y-30650843D01*
X57615251Y-30651000D01*
X57453604Y-30650457D01*
X57329299Y-30648633D01*
X57237353Y-30645237D01*
X57172787Y-30639976D01*
X57130620Y-30632557D01*
X57105870Y-30622690D01*
X57103337Y-30620969D01*
X57093837Y-30612569D01*
X57085891Y-30600039D01*
X57079331Y-30579734D01*
X57073992Y-30548006D01*
X57069708Y-30501209D01*
X57066315Y-30435697D01*
X57063644Y-30347822D01*
X57061532Y-30233939D01*
X57059811Y-30090401D01*
X57058317Y-29913561D01*
X57056883Y-29699773D01*
X57056173Y-29583803D01*
X57050096Y-28576666D01*
X56639643Y-28576666D01*
X56493843Y-28576185D01*
X56384640Y-28574453D01*
X56306308Y-28571043D01*
X56253119Y-28565525D01*
X56219344Y-28557469D01*
X56199257Y-28546446D01*
X56195928Y-28543404D01*
X56185534Y-28527918D01*
X56177504Y-28501497D01*
X56171550Y-28459174D01*
X56167382Y-28395984D01*
X56164710Y-28306959D01*
X56163244Y-28187134D01*
X56162696Y-28031542D01*
X56162667Y-27973104D01*
X56162759Y-27808667D01*
X56163320Y-27681409D01*
X56164774Y-27586175D01*
X56167548Y-27517812D01*
X56172066Y-27471163D01*
X56178754Y-27441076D01*
X56188038Y-27422396D01*
X56200342Y-27409967D01*
X56209710Y-27403116D01*
X56223069Y-27396452D01*
X56244731Y-27390736D01*
X56277750Y-27385897D01*
X56325177Y-27381864D01*
X56390063Y-27378568D01*
X56475463Y-27375937D01*
X56584426Y-27373901D01*
X56720006Y-27372388D01*
X56885255Y-27371330D01*
X57083225Y-27370654D01*
X57316968Y-27370290D01*
X57589536Y-27370168D01*
X57633750Y-27370166D01*
X57912376Y-27370258D01*
G36*
X75594117Y-29746018D02*
G01*
X75711966Y-29798111D01*
X75810189Y-29876749D01*
X75880368Y-29979364D01*
X75880815Y-29980320D01*
X75924104Y-30116369D01*
X75928874Y-30247179D01*
X75898936Y-30367960D01*
X75838102Y-30473922D01*
X75750183Y-30560276D01*
X75638991Y-30622232D01*
X75508338Y-30654999D01*
X75362034Y-30653787D01*
X75346652Y-30651606D01*
X75217390Y-30613297D01*
X75112423Y-30546119D01*
X75032781Y-30456553D01*
X74979499Y-30351083D01*
X74953607Y-30236189D01*
X74954761Y-30182442D01*
X75195195Y-30182442D01*
X75208873Y-30268609D01*
X75254313Y-30341734D01*
X75326268Y-30393995D01*
X75419492Y-30417572D01*
X75437932Y-30418166D01*
X75505962Y-30413401D01*
X75561482Y-30401478D01*
X75573672Y-30396372D01*
X75627283Y-30346015D01*
X75662545Y-30270775D01*
X75676315Y-30185278D01*
X75665454Y-30104149D01*
X75645298Y-30062922D01*
X75590222Y-30009618D01*
X75516969Y-29969074D01*
X75445943Y-29952509D01*
X75444458Y-29952500D01*
X75365245Y-29969364D01*
X75287741Y-30012745D01*
X75229589Y-30071824D01*
X75218523Y-30091055D01*
X75195195Y-30182442D01*
X74954761Y-30182442D01*
X74956139Y-30118356D01*
X74988126Y-30004064D01*
X75050601Y-29899797D01*
X75144596Y-29812037D01*
X75207010Y-29774704D01*
X75333220Y-29731746D01*
X75465062Y-29723040D01*
X75594117Y-29746018D01*
X75594117Y-29746018D01*
G37*
X75594117Y-29746018D02*
X75711966Y-29798111D01*
X75810189Y-29876749D01*
X75880368Y-29979364D01*
X75880815Y-29980320D01*
X75924104Y-30116369D01*
X75928874Y-30247179D01*
X75898936Y-30367960D01*
X75838102Y-30473922D01*
X75750183Y-30560276D01*
X75638991Y-30622232D01*
X75508338Y-30654999D01*
X75362034Y-30653787D01*
X75346652Y-30651606D01*
X75217390Y-30613297D01*
X75112423Y-30546119D01*
X75032781Y-30456553D01*
X74979499Y-30351083D01*
X74953607Y-30236189D01*
X74954761Y-30182442D01*
X75195195Y-30182442D01*
X75208873Y-30268609D01*
X75254313Y-30341734D01*
X75326268Y-30393995D01*
X75419492Y-30417572D01*
X75437932Y-30418166D01*
X75505962Y-30413401D01*
X75561482Y-30401478D01*
X75573672Y-30396372D01*
X75627283Y-30346015D01*
X75662545Y-30270775D01*
X75676315Y-30185278D01*
X75665454Y-30104149D01*
X75645298Y-30062922D01*
X75590222Y-30009618D01*
X75516969Y-29969074D01*
X75445943Y-29952509D01*
X75444458Y-29952500D01*
X75365245Y-29969364D01*
X75287741Y-30012745D01*
X75229589Y-30071824D01*
X75218523Y-30091055D01*
X75195195Y-30182442D01*
X74954761Y-30182442D01*
X74956139Y-30118356D01*
X74988126Y-30004064D01*
X75050601Y-29899797D01*
X75144596Y-29812037D01*
X75207010Y-29774704D01*
X75333220Y-29731746D01*
X75465062Y-29723040D01*
X75594117Y-29746018D01*
G36*
X73927815Y-29746140D02*
G01*
X74046672Y-29794264D01*
X74145170Y-29877138D01*
X74185143Y-29927865D01*
X74217538Y-29977701D01*
X74236805Y-30022292D01*
X74246304Y-30075504D01*
X74249391Y-30151205D01*
X74249583Y-30193994D01*
X74247875Y-30285912D01*
X74240796Y-30349260D01*
X74225413Y-30397732D01*
X74198794Y-30445022D01*
X74194385Y-30451751D01*
X74110240Y-30542531D01*
X73998741Y-30609289D01*
X73869674Y-30648321D01*
X73732824Y-30655919D01*
X73674409Y-30648670D01*
X73549458Y-30611340D01*
X73448159Y-30545851D01*
X73397716Y-30495146D01*
X73328750Y-30391973D01*
X73294089Y-30274900D01*
X73292733Y-30220611D01*
X73534598Y-30220611D01*
X73560361Y-30297885D01*
X73604473Y-30355173D01*
X73647893Y-30394375D01*
X73693736Y-30413005D01*
X73760659Y-30418124D01*
X73770908Y-30418166D01*
X73845594Y-30413137D01*
X73899531Y-30393181D01*
X73947624Y-30356402D01*
X73992647Y-30308960D01*
X74012560Y-30260806D01*
X74016750Y-30198059D01*
X74010908Y-30128523D01*
X73987047Y-30076952D01*
X73947551Y-30032282D01*
X73896663Y-29988334D01*
X73847121Y-29968099D01*
X73777707Y-29963087D01*
X73774631Y-29963083D01*
X73673727Y-29980271D01*
X73597836Y-30030329D01*
X73550059Y-30110995D01*
X73543983Y-30131248D01*
X73534598Y-30220611D01*
X73292733Y-30220611D01*
X73290743Y-30140999D01*
X73319275Y-30008754D01*
X73381956Y-29898817D01*
X73475319Y-29814075D01*
X73595898Y-29757412D01*
X73740227Y-29731715D01*
X73783917Y-29730460D01*
X73927815Y-29746140D01*
X73927815Y-29746140D01*
G37*
X73927815Y-29746140D02*
X74046672Y-29794264D01*
X74145170Y-29877138D01*
X74185143Y-29927865D01*
X74217538Y-29977701D01*
X74236805Y-30022292D01*
X74246304Y-30075504D01*
X74249391Y-30151205D01*
X74249583Y-30193994D01*
X74247875Y-30285912D01*
X74240796Y-30349260D01*
X74225413Y-30397732D01*
X74198794Y-30445022D01*
X74194385Y-30451751D01*
X74110240Y-30542531D01*
X73998741Y-30609289D01*
X73869674Y-30648321D01*
X73732824Y-30655919D01*
X73674409Y-30648670D01*
X73549458Y-30611340D01*
X73448159Y-30545851D01*
X73397716Y-30495146D01*
X73328750Y-30391973D01*
X73294089Y-30274900D01*
X73292733Y-30220611D01*
X73534598Y-30220611D01*
X73560361Y-30297885D01*
X73604473Y-30355173D01*
X73647893Y-30394375D01*
X73693736Y-30413005D01*
X73760659Y-30418124D01*
X73770908Y-30418166D01*
X73845594Y-30413137D01*
X73899531Y-30393181D01*
X73947624Y-30356402D01*
X73992647Y-30308960D01*
X74012560Y-30260806D01*
X74016750Y-30198059D01*
X74010908Y-30128523D01*
X73987047Y-30076952D01*
X73947551Y-30032282D01*
X73896663Y-29988334D01*
X73847121Y-29968099D01*
X73777707Y-29963087D01*
X73774631Y-29963083D01*
X73673727Y-29980271D01*
X73597836Y-30030329D01*
X73550059Y-30110995D01*
X73543983Y-30131248D01*
X73534598Y-30220611D01*
X73292733Y-30220611D01*
X73290743Y-30140999D01*
X73319275Y-30008754D01*
X73381956Y-29898817D01*
X73475319Y-29814075D01*
X73595898Y-29757412D01*
X73740227Y-29731715D01*
X73783917Y-29730460D01*
X73927815Y-29746140D01*
G36*
X71013686Y-29741373D02*
G01*
X71127500Y-29765001D01*
X71127500Y-29902847D01*
X71125304Y-29971458D01*
X71119550Y-30018071D01*
X71111625Y-30032522D01*
X71006849Y-29984351D01*
X70925818Y-29962987D01*
X70859544Y-29968394D01*
X70799038Y-30000532D01*
X70763403Y-30031067D01*
X70707048Y-30107640D01*
X70686719Y-30188373D01*
X70697504Y-30266650D01*
X70734491Y-30335852D01*
X70792767Y-30389361D01*
X70867421Y-30420560D01*
X70953540Y-30422830D01*
X71034256Y-30395977D01*
X71085105Y-30370707D01*
X71116979Y-30356103D01*
X71121392Y-30354666D01*
X71124521Y-30373967D01*
X71126723Y-30424414D01*
X71127500Y-30490496D01*
X71127500Y-30626325D01*
X71020625Y-30649246D01*
X70959528Y-30661780D01*
X70918861Y-30669046D01*
X70909500Y-30669847D01*
X70888176Y-30664796D01*
X70839064Y-30654667D01*
X70810000Y-30648918D01*
X70684716Y-30604152D01*
X70580262Y-30526581D01*
X70501991Y-30422803D01*
X70455255Y-30299417D01*
X70444119Y-30197942D01*
X70463254Y-30060927D01*
X70516976Y-29941874D01*
X70599760Y-29845211D01*
X70706082Y-29775368D01*
X70830415Y-29736773D01*
X70967236Y-29733856D01*
X71013686Y-29741373D01*
X71013686Y-29741373D01*
G37*
X71013686Y-29741373D02*
X71127500Y-29765001D01*
X71127500Y-29902847D01*
X71125304Y-29971458D01*
X71119550Y-30018071D01*
X71111625Y-30032522D01*
X71006849Y-29984351D01*
X70925818Y-29962987D01*
X70859544Y-29968394D01*
X70799038Y-30000532D01*
X70763403Y-30031067D01*
X70707048Y-30107640D01*
X70686719Y-30188373D01*
X70697504Y-30266650D01*
X70734491Y-30335852D01*
X70792767Y-30389361D01*
X70867421Y-30420560D01*
X70953540Y-30422830D01*
X71034256Y-30395977D01*
X71085105Y-30370707D01*
X71116979Y-30356103D01*
X71121392Y-30354666D01*
X71124521Y-30373967D01*
X71126723Y-30424414D01*
X71127500Y-30490496D01*
X71127500Y-30626325D01*
X71020625Y-30649246D01*
X70959528Y-30661780D01*
X70918861Y-30669046D01*
X70909500Y-30669847D01*
X70888176Y-30664796D01*
X70839064Y-30654667D01*
X70810000Y-30648918D01*
X70684716Y-30604152D01*
X70580262Y-30526581D01*
X70501991Y-30422803D01*
X70455255Y-30299417D01*
X70444119Y-30197942D01*
X70463254Y-30060927D01*
X70516976Y-29941874D01*
X70599760Y-29845211D01*
X70706082Y-29775368D01*
X70830415Y-29736773D01*
X70967236Y-29733856D01*
X71013686Y-29741373D01*
G36*
X68404249Y-27095586D02*
G01*
X68410620Y-27099058D01*
X68416169Y-27107984D01*
X68420952Y-27124934D01*
X68425027Y-27152476D01*
X68428451Y-27193180D01*
X68431279Y-27249614D01*
X68433570Y-27324348D01*
X68435379Y-27419950D01*
X68436763Y-27538989D01*
X68437779Y-27684035D01*
X68438485Y-27857656D01*
X68438936Y-28062421D01*
X68439190Y-28300899D01*
X68439303Y-28575660D01*
X68439332Y-28889272D01*
X68439333Y-29010583D01*
X68439320Y-29338623D01*
X68439243Y-29626898D01*
X68439046Y-29877978D01*
X68438672Y-30094431D01*
X68438063Y-30278828D01*
X68437163Y-30433736D01*
X68435916Y-30561724D01*
X68434265Y-30665362D01*
X68432152Y-30747218D01*
X68429521Y-30809862D01*
X68426316Y-30855863D01*
X68422479Y-30887789D01*
X68417954Y-30908209D01*
X68412683Y-30919693D01*
X68406611Y-30924809D01*
X68399681Y-30926127D01*
X68397000Y-30926166D01*
X68389750Y-30925580D01*
X68383380Y-30922108D01*
X68377831Y-30913181D01*
X68373047Y-30896232D01*
X68368972Y-30868689D01*
X68365549Y-30827986D01*
X68362720Y-30771551D01*
X68360430Y-30696818D01*
X68358621Y-30601216D01*
X68357237Y-30482177D01*
X68356220Y-30337131D01*
X68355515Y-30163510D01*
X68355063Y-29958745D01*
X68354810Y-29720266D01*
X68354696Y-29445506D01*
X68354667Y-29131893D01*
X68354667Y-29010583D01*
X68354679Y-28682543D01*
X68354756Y-28394268D01*
X68354953Y-28143188D01*
X68355328Y-27926734D01*
X68355937Y-27742338D01*
X68356836Y-27587430D01*
X68358083Y-27459442D01*
X68359735Y-27355804D01*
X68361848Y-27273947D01*
X68364478Y-27211303D01*
X68367684Y-27165303D01*
X68371521Y-27133377D01*
X68376046Y-27112957D01*
X68381316Y-27101473D01*
X68387388Y-27096356D01*
X68394319Y-27095039D01*
X68397000Y-27095000D01*
X68404249Y-27095586D01*
X68404249Y-27095586D01*
G37*
X68404249Y-27095586D02*
X68410620Y-27099058D01*
X68416169Y-27107984D01*
X68420952Y-27124934D01*
X68425027Y-27152476D01*
X68428451Y-27193180D01*
X68431279Y-27249614D01*
X68433570Y-27324348D01*
X68435379Y-27419950D01*
X68436763Y-27538989D01*
X68437779Y-27684035D01*
X68438485Y-27857656D01*
X68438936Y-28062421D01*
X68439190Y-28300899D01*
X68439303Y-28575660D01*
X68439332Y-28889272D01*
X68439333Y-29010583D01*
X68439320Y-29338623D01*
X68439243Y-29626898D01*
X68439046Y-29877978D01*
X68438672Y-30094431D01*
X68438063Y-30278828D01*
X68437163Y-30433736D01*
X68435916Y-30561724D01*
X68434265Y-30665362D01*
X68432152Y-30747218D01*
X68429521Y-30809862D01*
X68426316Y-30855863D01*
X68422479Y-30887789D01*
X68417954Y-30908209D01*
X68412683Y-30919693D01*
X68406611Y-30924809D01*
X68399681Y-30926127D01*
X68397000Y-30926166D01*
X68389750Y-30925580D01*
X68383380Y-30922108D01*
X68377831Y-30913181D01*
X68373047Y-30896232D01*
X68368972Y-30868689D01*
X68365549Y-30827986D01*
X68362720Y-30771551D01*
X68360430Y-30696818D01*
X68358621Y-30601216D01*
X68357237Y-30482177D01*
X68356220Y-30337131D01*
X68355515Y-30163510D01*
X68355063Y-29958745D01*
X68354810Y-29720266D01*
X68354696Y-29445506D01*
X68354667Y-29131893D01*
X68354667Y-29010583D01*
X68354679Y-28682543D01*
X68354756Y-28394268D01*
X68354953Y-28143188D01*
X68355328Y-27926734D01*
X68355937Y-27742338D01*
X68356836Y-27587430D01*
X68358083Y-27459442D01*
X68359735Y-27355804D01*
X68361848Y-27273947D01*
X68364478Y-27211303D01*
X68367684Y-27165303D01*
X68371521Y-27133377D01*
X68376046Y-27112957D01*
X68381316Y-27101473D01*
X68387388Y-27096356D01*
X68394319Y-27095039D01*
X68397000Y-27095000D01*
X68404249Y-27095586D01*
D12*
X82310000Y-81681000D02*
X82310000Y-82939000D01*
X80470000Y-81681000D02*
X80470000Y-82939000D01*
X62910000Y-81781000D02*
X62910000Y-83039000D01*
X61070000Y-81781000D02*
X61070000Y-83039000D01*
X33757665Y-102978608D02*
G75*
G03X36990000Y-103135516I1672335J1078608D01*
G01*
X33757665Y-100821392D02*
G75*
G02X36990000Y-100664484I1672335J-1078608D01*
G01*
X34388870Y-102979837D02*
G75*
G03X36470961Y-102980000I1041130J1079837D01*
G01*
X34388870Y-100820163D02*
G75*
G02X36470961Y-100820000I1041130J-1079837D01*
G01*
X36990000Y-103136000D02*
X36990000Y-102980000D01*
X36990000Y-100820000D02*
X36990000Y-100664000D01*
X39757665Y-102978608D02*
G75*
G03X42990000Y-103135516I1672335J1078608D01*
G01*
X39757665Y-100821392D02*
G75*
G02X42990000Y-100664484I1672335J-1078608D01*
G01*
X40388870Y-102979837D02*
G75*
G03X42470961Y-102980000I1041130J1079837D01*
G01*
X40388870Y-100820163D02*
G75*
G02X42470961Y-100820000I1041130J-1079837D01*
G01*
X42990000Y-103136000D02*
X42990000Y-102980000D01*
X42990000Y-100820000D02*
X42990000Y-100664000D01*
X50770000Y-81881000D02*
X50770000Y-83139000D01*
X52610000Y-81881000D02*
X52610000Y-83139000D01*
D13*
G36*
X69685391Y-32299377D02*
G01*
X70011253Y-32367497D01*
X70281851Y-32474242D01*
X70387302Y-32540679D01*
X70632951Y-32742059D01*
X70788063Y-32910527D01*
X70856544Y-33050622D01*
X70860800Y-33090491D01*
X70818167Y-33248326D01*
X70693307Y-33349999D01*
X70490775Y-33392181D01*
X70446555Y-33393199D01*
X70277038Y-33377905D01*
X70158919Y-33320062D01*
X70094955Y-33259498D01*
X69879944Y-33089571D01*
X69621368Y-32983220D01*
X69339631Y-32938422D01*
X69055138Y-32953152D01*
X68788294Y-33025386D01*
X68559504Y-33153102D01*
X68389174Y-33334273D01*
X68336527Y-33433913D01*
X68298518Y-33592057D01*
X68277594Y-33824620D01*
X68272477Y-34106093D01*
X68281892Y-34410968D01*
X68304562Y-34713736D01*
X68339210Y-34988890D01*
X68384560Y-35210921D01*
X68431997Y-35341533D01*
X68593652Y-35540230D01*
X68827871Y-35684764D01*
X69116075Y-35765867D01*
X69311400Y-35780233D01*
X69610440Y-35750305D01*
X69861299Y-35651287D01*
X70096625Y-35469332D01*
X70136265Y-35430338D01*
X70353252Y-35251399D01*
X70563195Y-35152884D01*
X70753872Y-35136222D01*
X70913064Y-35202844D01*
X71015274Y-35327475D01*
X71039236Y-35412045D01*
X71013540Y-35514480D01*
X70945072Y-35643811D01*
X70818823Y-35833315D01*
X70679199Y-35979503D01*
X70498665Y-36105473D01*
X70249683Y-36234322D01*
X70230122Y-36243512D01*
X70049963Y-36322431D01*
X69894566Y-36372937D01*
X69728321Y-36402485D01*
X69515619Y-36418529D01*
X69366522Y-36424278D01*
X69024314Y-36424268D01*
X68766689Y-36400144D01*
X68651000Y-36372591D01*
X68262957Y-36202766D01*
X67950928Y-35981458D01*
X67721990Y-35714637D01*
X67611922Y-35495945D01*
X67568839Y-35334352D01*
X67527218Y-35096650D01*
X67489367Y-34808327D01*
X67457597Y-34494869D01*
X67434216Y-34181764D01*
X67421535Y-33894501D01*
X67421863Y-33658565D01*
X67433155Y-33523190D01*
X67522373Y-33254713D01*
X67695244Y-32990475D01*
X67934571Y-32747034D01*
X68223156Y-32540949D01*
X68543802Y-32388778D01*
X68645932Y-32355458D01*
X68975758Y-32290489D01*
X69331235Y-32272752D01*
X69685391Y-32299377D01*
X69685391Y-32299377D01*
G37*
X69685391Y-32299377D02*
X70011253Y-32367497D01*
X70281851Y-32474242D01*
X70387302Y-32540679D01*
X70632951Y-32742059D01*
X70788063Y-32910527D01*
X70856544Y-33050622D01*
X70860800Y-33090491D01*
X70818167Y-33248326D01*
X70693307Y-33349999D01*
X70490775Y-33392181D01*
X70446555Y-33393199D01*
X70277038Y-33377905D01*
X70158919Y-33320062D01*
X70094955Y-33259498D01*
X69879944Y-33089571D01*
X69621368Y-32983220D01*
X69339631Y-32938422D01*
X69055138Y-32953152D01*
X68788294Y-33025386D01*
X68559504Y-33153102D01*
X68389174Y-33334273D01*
X68336527Y-33433913D01*
X68298518Y-33592057D01*
X68277594Y-33824620D01*
X68272477Y-34106093D01*
X68281892Y-34410968D01*
X68304562Y-34713736D01*
X68339210Y-34988890D01*
X68384560Y-35210921D01*
X68431997Y-35341533D01*
X68593652Y-35540230D01*
X68827871Y-35684764D01*
X69116075Y-35765867D01*
X69311400Y-35780233D01*
X69610440Y-35750305D01*
X69861299Y-35651287D01*
X70096625Y-35469332D01*
X70136265Y-35430338D01*
X70353252Y-35251399D01*
X70563195Y-35152884D01*
X70753872Y-35136222D01*
X70913064Y-35202844D01*
X71015274Y-35327475D01*
X71039236Y-35412045D01*
X71013540Y-35514480D01*
X70945072Y-35643811D01*
X70818823Y-35833315D01*
X70679199Y-35979503D01*
X70498665Y-36105473D01*
X70249683Y-36234322D01*
X70230122Y-36243512D01*
X70049963Y-36322431D01*
X69894566Y-36372937D01*
X69728321Y-36402485D01*
X69515619Y-36418529D01*
X69366522Y-36424278D01*
X69024314Y-36424268D01*
X68766689Y-36400144D01*
X68651000Y-36372591D01*
X68262957Y-36202766D01*
X67950928Y-35981458D01*
X67721990Y-35714637D01*
X67611922Y-35495945D01*
X67568839Y-35334352D01*
X67527218Y-35096650D01*
X67489367Y-34808327D01*
X67457597Y-34494869D01*
X67434216Y-34181764D01*
X67421535Y-33894501D01*
X67421863Y-33658565D01*
X67433155Y-33523190D01*
X67522373Y-33254713D01*
X67695244Y-32990475D01*
X67934571Y-32747034D01*
X68223156Y-32540949D01*
X68543802Y-32388778D01*
X68645932Y-32355458D01*
X68975758Y-32290489D01*
X69331235Y-32272752D01*
X69685391Y-32299377D01*
G36*
X65349719Y-32594604D02*
G01*
X65667294Y-32636199D01*
X65919558Y-32714784D01*
X66139852Y-32843048D01*
X66262369Y-32941909D01*
X66468706Y-33178222D01*
X66595103Y-33443440D01*
X66640165Y-33719540D01*
X66602501Y-33988499D01*
X66480717Y-34232297D01*
X66371547Y-34354555D01*
X66282860Y-34445939D01*
X66239005Y-34509950D01*
X66238000Y-34515511D01*
X66277175Y-34563566D01*
X66374845Y-34637024D01*
X66411749Y-34660696D01*
X66624386Y-34842422D01*
X66757463Y-35079230D01*
X66814904Y-35378998D01*
X66817970Y-35476000D01*
X66776276Y-35813036D01*
X66647881Y-36101279D01*
X66430466Y-36344031D01*
X66121717Y-36544594D01*
X66041187Y-36583438D01*
X65775783Y-36669767D01*
X65456521Y-36720975D01*
X65123564Y-36734539D01*
X64817073Y-36707936D01*
X64658364Y-36670296D01*
X64490726Y-36593224D01*
X64313959Y-36475571D01*
X64150898Y-36337466D01*
X64024381Y-36199039D01*
X63957244Y-36080421D01*
X63952000Y-36047636D01*
X63996027Y-35932564D01*
X64105486Y-35823644D01*
X64246446Y-35748221D01*
X64346145Y-35730000D01*
X64449953Y-35757558D01*
X64603397Y-35830018D01*
X64774289Y-35932051D01*
X64783794Y-35938377D01*
X64953607Y-36047198D01*
X65075640Y-36106571D01*
X65183700Y-36127596D01*
X65311594Y-36121373D01*
X65333568Y-36118894D01*
X65632102Y-36049760D01*
X65854209Y-35923424D01*
X65994965Y-35744078D01*
X66049448Y-35515916D01*
X66049683Y-35508880D01*
X66011971Y-35278502D01*
X65887104Y-35096592D01*
X65679037Y-34966656D01*
X65391725Y-34892201D01*
X65347991Y-34886694D01*
X65134444Y-34854424D01*
X65003896Y-34808298D01*
X64937758Y-34736263D01*
X64917445Y-34626269D01*
X64917200Y-34607350D01*
X64959145Y-34463663D01*
X65088098Y-34357708D01*
X65308736Y-34285918D01*
X65349000Y-34278063D01*
X65571295Y-34190124D01*
X65723728Y-34069757D01*
X65829320Y-33951922D01*
X65872111Y-33855158D01*
X65868940Y-33737451D01*
X65865599Y-33715751D01*
X65786028Y-33490124D01*
X65641577Y-33327257D01*
X65448862Y-33229236D01*
X65224496Y-33198144D01*
X64985092Y-33236069D01*
X64747266Y-33345093D01*
X64527631Y-33527304D01*
X64510800Y-33545713D01*
X64334882Y-33693428D01*
X64153034Y-33762821D01*
X63984171Y-33751757D01*
X63847204Y-33658102D01*
X63821434Y-33623487D01*
X63775702Y-33540787D01*
X63771959Y-33467063D01*
X63814294Y-33364607D01*
X63858363Y-33282959D01*
X64063472Y-33013726D01*
X64340503Y-32804776D01*
X64675100Y-32662734D01*
X65052910Y-32594226D01*
X65349719Y-32594604D01*
X65349719Y-32594604D01*
G37*
X65349719Y-32594604D02*
X65667294Y-32636199D01*
X65919558Y-32714784D01*
X66139852Y-32843048D01*
X66262369Y-32941909D01*
X66468706Y-33178222D01*
X66595103Y-33443440D01*
X66640165Y-33719540D01*
X66602501Y-33988499D01*
X66480717Y-34232297D01*
X66371547Y-34354555D01*
X66282860Y-34445939D01*
X66239005Y-34509950D01*
X66238000Y-34515511D01*
X66277175Y-34563566D01*
X66374845Y-34637024D01*
X66411749Y-34660696D01*
X66624386Y-34842422D01*
X66757463Y-35079230D01*
X66814904Y-35378998D01*
X66817970Y-35476000D01*
X66776276Y-35813036D01*
X66647881Y-36101279D01*
X66430466Y-36344031D01*
X66121717Y-36544594D01*
X66041187Y-36583438D01*
X65775783Y-36669767D01*
X65456521Y-36720975D01*
X65123564Y-36734539D01*
X64817073Y-36707936D01*
X64658364Y-36670296D01*
X64490726Y-36593224D01*
X64313959Y-36475571D01*
X64150898Y-36337466D01*
X64024381Y-36199039D01*
X63957244Y-36080421D01*
X63952000Y-36047636D01*
X63996027Y-35932564D01*
X64105486Y-35823644D01*
X64246446Y-35748221D01*
X64346145Y-35730000D01*
X64449953Y-35757558D01*
X64603397Y-35830018D01*
X64774289Y-35932051D01*
X64783794Y-35938377D01*
X64953607Y-36047198D01*
X65075640Y-36106571D01*
X65183700Y-36127596D01*
X65311594Y-36121373D01*
X65333568Y-36118894D01*
X65632102Y-36049760D01*
X65854209Y-35923424D01*
X65994965Y-35744078D01*
X66049448Y-35515916D01*
X66049683Y-35508880D01*
X66011971Y-35278502D01*
X65887104Y-35096592D01*
X65679037Y-34966656D01*
X65391725Y-34892201D01*
X65347991Y-34886694D01*
X65134444Y-34854424D01*
X65003896Y-34808298D01*
X64937758Y-34736263D01*
X64917445Y-34626269D01*
X64917200Y-34607350D01*
X64959145Y-34463663D01*
X65088098Y-34357708D01*
X65308736Y-34285918D01*
X65349000Y-34278063D01*
X65571295Y-34190124D01*
X65723728Y-34069757D01*
X65829320Y-33951922D01*
X65872111Y-33855158D01*
X65868940Y-33737451D01*
X65865599Y-33715751D01*
X65786028Y-33490124D01*
X65641577Y-33327257D01*
X65448862Y-33229236D01*
X65224496Y-33198144D01*
X64985092Y-33236069D01*
X64747266Y-33345093D01*
X64527631Y-33527304D01*
X64510800Y-33545713D01*
X64334882Y-33693428D01*
X64153034Y-33762821D01*
X63984171Y-33751757D01*
X63847204Y-33658102D01*
X63821434Y-33623487D01*
X63775702Y-33540787D01*
X63771959Y-33467063D01*
X63814294Y-33364607D01*
X63858363Y-33282959D01*
X64063472Y-33013726D01*
X64340503Y-32804776D01*
X64675100Y-32662734D01*
X65052910Y-32594226D01*
X65349719Y-32594604D01*
G36*
X72707555Y-35965968D02*
G01*
X72814827Y-36074611D01*
X72936821Y-36263059D01*
X72981181Y-36339600D01*
X73113475Y-36594910D01*
X73177275Y-36781779D01*
X73173089Y-36906340D01*
X73101424Y-36974724D01*
X73035108Y-36990422D01*
X72938368Y-36984136D01*
X72857423Y-36925173D01*
X72767771Y-36799922D01*
X72648351Y-36651279D01*
X72528809Y-36596568D01*
X72396726Y-36635722D01*
X72239684Y-36768669D01*
X72213112Y-36796800D01*
X72055328Y-36933402D01*
X71907842Y-36999718D01*
X71789093Y-36988884D01*
X71758266Y-36966133D01*
X71722680Y-36882545D01*
X71755770Y-36763856D01*
X71861647Y-36602514D01*
X72044423Y-36390969D01*
X72108083Y-36323647D01*
X72315267Y-36115970D01*
X72473655Y-35986938D01*
X72599124Y-35936841D01*
X72707555Y-35965968D01*
X72707555Y-35965968D01*
G37*
X72707555Y-35965968D02*
X72814827Y-36074611D01*
X72936821Y-36263059D01*
X72981181Y-36339600D01*
X73113475Y-36594910D01*
X73177275Y-36781779D01*
X73173089Y-36906340D01*
X73101424Y-36974724D01*
X73035108Y-36990422D01*
X72938368Y-36984136D01*
X72857423Y-36925173D01*
X72767771Y-36799922D01*
X72648351Y-36651279D01*
X72528809Y-36596568D01*
X72396726Y-36635722D01*
X72239684Y-36768669D01*
X72213112Y-36796800D01*
X72055328Y-36933402D01*
X71907842Y-36999718D01*
X71789093Y-36988884D01*
X71758266Y-36966133D01*
X71722680Y-36882545D01*
X71755770Y-36763856D01*
X71861647Y-36602514D01*
X72044423Y-36390969D01*
X72108083Y-36323647D01*
X72315267Y-36115970D01*
X72473655Y-35986938D01*
X72599124Y-35936841D01*
X72707555Y-35965968D01*
G36*
X61481160Y-32899458D02*
G01*
X61614446Y-32948018D01*
X61738913Y-33057044D01*
X61869173Y-33238861D01*
X62000483Y-33469400D01*
X62145490Y-33740056D01*
X62271743Y-33974763D01*
X62390295Y-34193781D01*
X62512197Y-34417368D01*
X62648501Y-34665784D01*
X62810259Y-34959290D01*
X63008524Y-35318145D01*
X63044132Y-35382544D01*
X63243092Y-35746302D01*
X63393636Y-36033879D01*
X63499102Y-36256524D01*
X63562826Y-36425490D01*
X63588145Y-36552025D01*
X63578398Y-36647379D01*
X63536920Y-36722803D01*
X63467050Y-36789548D01*
X63462549Y-36793112D01*
X63300667Y-36886648D01*
X63152306Y-36894809D01*
X63008901Y-36813622D01*
X62861887Y-36639115D01*
X62755508Y-36465159D01*
X62653870Y-36297338D01*
X62558729Y-36163894D01*
X62489271Y-36091494D01*
X62484715Y-36088765D01*
X62399268Y-36074569D01*
X62225336Y-36071490D01*
X61975397Y-36079322D01*
X61661933Y-36097855D01*
X61578676Y-36103869D01*
X61236494Y-36132061D01*
X60981416Y-36161615D01*
X60799006Y-36197389D01*
X60674826Y-36244239D01*
X60594442Y-36307023D01*
X60543417Y-36390600D01*
X60518481Y-36460599D01*
X60401854Y-36776556D01*
X60272101Y-36993330D01*
X60127516Y-37112695D01*
X59966395Y-37136425D01*
X59888000Y-37116360D01*
X59728904Y-37010556D01*
X59645145Y-36845731D01*
X59640698Y-36635184D01*
X59691025Y-36457207D01*
X59734610Y-36343564D01*
X59806954Y-36150002D01*
X59902347Y-35892174D01*
X60015076Y-35585735D01*
X60130397Y-35270988D01*
X60989108Y-35270988D01*
X61025191Y-35400285D01*
X61115794Y-35476036D01*
X61264404Y-35508142D01*
X61474508Y-35506502D01*
X61539000Y-35501822D01*
X61729548Y-35477623D01*
X61853692Y-35434546D01*
X61946460Y-35359503D01*
X61959943Y-35344556D01*
X62010439Y-35282735D01*
X62039786Y-35223446D01*
X62043910Y-35151572D01*
X62018734Y-35052000D01*
X61960185Y-34909615D01*
X61864185Y-34709301D01*
X61726659Y-34435944D01*
X61701648Y-34386623D01*
X61393863Y-33779846D01*
X61173117Y-34462823D01*
X61066557Y-34812157D01*
X61004058Y-35078246D01*
X60989108Y-35270988D01*
X60130397Y-35270988D01*
X60139429Y-35246338D01*
X60269696Y-34889638D01*
X60400163Y-34531288D01*
X60525120Y-34186942D01*
X60638855Y-33872255D01*
X60735656Y-33602881D01*
X60809811Y-33394472D01*
X60840176Y-33307752D01*
X60938798Y-33098787D01*
X61072086Y-32971757D01*
X61262463Y-32907734D01*
X61324443Y-32899033D01*
X61481160Y-32899458D01*
X61481160Y-32899458D01*
G37*
X61481160Y-32899458D02*
X61614446Y-32948018D01*
X61738913Y-33057044D01*
X61869173Y-33238861D01*
X62000483Y-33469400D01*
X62145490Y-33740056D01*
X62271743Y-33974763D01*
X62390295Y-34193781D01*
X62512197Y-34417368D01*
X62648501Y-34665784D01*
X62810259Y-34959290D01*
X63008524Y-35318145D01*
X63044132Y-35382544D01*
X63243092Y-35746302D01*
X63393636Y-36033879D01*
X63499102Y-36256524D01*
X63562826Y-36425490D01*
X63588145Y-36552025D01*
X63578398Y-36647379D01*
X63536920Y-36722803D01*
X63467050Y-36789548D01*
X63462549Y-36793112D01*
X63300667Y-36886648D01*
X63152306Y-36894809D01*
X63008901Y-36813622D01*
X62861887Y-36639115D01*
X62755508Y-36465159D01*
X62653870Y-36297338D01*
X62558729Y-36163894D01*
X62489271Y-36091494D01*
X62484715Y-36088765D01*
X62399268Y-36074569D01*
X62225336Y-36071490D01*
X61975397Y-36079322D01*
X61661933Y-36097855D01*
X61578676Y-36103869D01*
X61236494Y-36132061D01*
X60981416Y-36161615D01*
X60799006Y-36197389D01*
X60674826Y-36244239D01*
X60594442Y-36307023D01*
X60543417Y-36390600D01*
X60518481Y-36460599D01*
X60401854Y-36776556D01*
X60272101Y-36993330D01*
X60127516Y-37112695D01*
X59966395Y-37136425D01*
X59888000Y-37116360D01*
X59728904Y-37010556D01*
X59645145Y-36845731D01*
X59640698Y-36635184D01*
X59691025Y-36457207D01*
X59734610Y-36343564D01*
X59806954Y-36150002D01*
X59902347Y-35892174D01*
X60015076Y-35585735D01*
X60130397Y-35270988D01*
X60989108Y-35270988D01*
X61025191Y-35400285D01*
X61115794Y-35476036D01*
X61264404Y-35508142D01*
X61474508Y-35506502D01*
X61539000Y-35501822D01*
X61729548Y-35477623D01*
X61853692Y-35434546D01*
X61946460Y-35359503D01*
X61959943Y-35344556D01*
X62010439Y-35282735D01*
X62039786Y-35223446D01*
X62043910Y-35151572D01*
X62018734Y-35052000D01*
X61960185Y-34909615D01*
X61864185Y-34709301D01*
X61726659Y-34435944D01*
X61701648Y-34386623D01*
X61393863Y-33779846D01*
X61173117Y-34462823D01*
X61066557Y-34812157D01*
X61004058Y-35078246D01*
X60989108Y-35270988D01*
X60130397Y-35270988D01*
X60139429Y-35246338D01*
X60269696Y-34889638D01*
X60400163Y-34531288D01*
X60525120Y-34186942D01*
X60638855Y-33872255D01*
X60735656Y-33602881D01*
X60809811Y-33394472D01*
X60840176Y-33307752D01*
X60938798Y-33098787D01*
X61072086Y-32971757D01*
X61262463Y-32907734D01*
X61324443Y-32899033D01*
X61481160Y-32899458D01*
G36*
X71463812Y-36011319D02*
G01*
X71602939Y-36105639D01*
X71696068Y-36263578D01*
X71724400Y-36440522D01*
X71680883Y-36733433D01*
X71546897Y-36985473D01*
X71399999Y-37140493D01*
X71246390Y-37256102D01*
X71133901Y-37301149D01*
X71072469Y-37273009D01*
X71064000Y-37229329D01*
X71076578Y-37136690D01*
X71108296Y-36991253D01*
X71125466Y-36924043D01*
X71158911Y-36768421D01*
X71152719Y-36660562D01*
X71103718Y-36553398D01*
X71100066Y-36547176D01*
X71023489Y-36354087D01*
X71031294Y-36188323D01*
X71122637Y-36065547D01*
X71126103Y-36063080D01*
X71298323Y-35993004D01*
X71463812Y-36011319D01*
X71463812Y-36011319D01*
G37*
X71463812Y-36011319D02*
X71602939Y-36105639D01*
X71696068Y-36263578D01*
X71724400Y-36440522D01*
X71680883Y-36733433D01*
X71546897Y-36985473D01*
X71399999Y-37140493D01*
X71246390Y-37256102D01*
X71133901Y-37301149D01*
X71072469Y-37273009D01*
X71064000Y-37229329D01*
X71076578Y-37136690D01*
X71108296Y-36991253D01*
X71125466Y-36924043D01*
X71158911Y-36768421D01*
X71152719Y-36660562D01*
X71103718Y-36553398D01*
X71100066Y-36547176D01*
X71023489Y-36354087D01*
X71031294Y-36188323D01*
X71122637Y-36065547D01*
X71126103Y-36063080D01*
X71298323Y-35993004D01*
X71463812Y-36011319D01*
G36*
X75378050Y-36632890D02*
G01*
X75557691Y-36741672D01*
X75662380Y-36906312D01*
X75683851Y-37113174D01*
X75613835Y-37348625D01*
X75602845Y-37370594D01*
X75503596Y-37519593D01*
X75349750Y-37703306D01*
X75165742Y-37896982D01*
X74976001Y-38075868D01*
X74804961Y-38215212D01*
X74708900Y-38276250D01*
X74567839Y-38362188D01*
X74524311Y-38427336D01*
X74577040Y-38474562D01*
X74615227Y-38486671D01*
X74749256Y-38479223D01*
X74928952Y-38411312D01*
X75129047Y-38295215D01*
X75324274Y-38143208D01*
X75326802Y-38140929D01*
X75445792Y-38041883D01*
X75533637Y-37984351D01*
X75564418Y-37978284D01*
X75581630Y-38058341D01*
X75555735Y-38192335D01*
X75497487Y-38348056D01*
X75417640Y-38493293D01*
X75372864Y-38552043D01*
X75203808Y-38692244D01*
X74982191Y-38806219D01*
X74744057Y-38880803D01*
X74525452Y-38902836D01*
X74442200Y-38891896D01*
X74226338Y-38793176D01*
X74073070Y-38618590D01*
X73986105Y-38375068D01*
X73969152Y-38069539D01*
X73973169Y-38015532D01*
X73994263Y-37906108D01*
X74603367Y-37906108D01*
X74618262Y-37914400D01*
X74668964Y-37879616D01*
X74770032Y-37786561D01*
X74903528Y-37652180D01*
X74969775Y-37582341D01*
X75108576Y-37426078D01*
X75215377Y-37290832D01*
X75274016Y-37197748D01*
X75280400Y-37175941D01*
X75250048Y-37108782D01*
X75168599Y-37114060D01*
X75050460Y-37186549D01*
X74924630Y-37304983D01*
X74823974Y-37431175D01*
X74729869Y-37577559D01*
X74653966Y-37720958D01*
X74607915Y-37838200D01*
X74603367Y-37906108D01*
X73994263Y-37906108D01*
X74039255Y-37672716D01*
X74166165Y-37353105D01*
X74341966Y-37071346D01*
X74554721Y-36842089D01*
X74792496Y-36679982D01*
X75043354Y-36599672D01*
X75131724Y-36593600D01*
X75378050Y-36632890D01*
X75378050Y-36632890D01*
G37*
X75378050Y-36632890D02*
X75557691Y-36741672D01*
X75662380Y-36906312D01*
X75683851Y-37113174D01*
X75613835Y-37348625D01*
X75602845Y-37370594D01*
X75503596Y-37519593D01*
X75349750Y-37703306D01*
X75165742Y-37896982D01*
X74976001Y-38075868D01*
X74804961Y-38215212D01*
X74708900Y-38276250D01*
X74567839Y-38362188D01*
X74524311Y-38427336D01*
X74577040Y-38474562D01*
X74615227Y-38486671D01*
X74749256Y-38479223D01*
X74928952Y-38411312D01*
X75129047Y-38295215D01*
X75324274Y-38143208D01*
X75326802Y-38140929D01*
X75445792Y-38041883D01*
X75533637Y-37984351D01*
X75564418Y-37978284D01*
X75581630Y-38058341D01*
X75555735Y-38192335D01*
X75497487Y-38348056D01*
X75417640Y-38493293D01*
X75372864Y-38552043D01*
X75203808Y-38692244D01*
X74982191Y-38806219D01*
X74744057Y-38880803D01*
X74525452Y-38902836D01*
X74442200Y-38891896D01*
X74226338Y-38793176D01*
X74073070Y-38618590D01*
X73986105Y-38375068D01*
X73969152Y-38069539D01*
X73973169Y-38015532D01*
X73994263Y-37906108D01*
X74603367Y-37906108D01*
X74618262Y-37914400D01*
X74668964Y-37879616D01*
X74770032Y-37786561D01*
X74903528Y-37652180D01*
X74969775Y-37582341D01*
X75108576Y-37426078D01*
X75215377Y-37290832D01*
X75274016Y-37197748D01*
X75280400Y-37175941D01*
X75250048Y-37108782D01*
X75168599Y-37114060D01*
X75050460Y-37186549D01*
X74924630Y-37304983D01*
X74823974Y-37431175D01*
X74729869Y-37577559D01*
X74653966Y-37720958D01*
X74607915Y-37838200D01*
X74603367Y-37906108D01*
X73994263Y-37906108D01*
X74039255Y-37672716D01*
X74166165Y-37353105D01*
X74341966Y-37071346D01*
X74554721Y-36842089D01*
X74792496Y-36679982D01*
X75043354Y-36599672D01*
X75131724Y-36593600D01*
X75378050Y-36632890D01*
G36*
X73832836Y-35309097D02*
G01*
X73970887Y-35352723D01*
X74102058Y-35443012D01*
X74105384Y-35446293D01*
X74179596Y-35536819D01*
X74215980Y-35640091D01*
X74225184Y-35793677D01*
X74223994Y-35864766D01*
X74207757Y-36044651D01*
X74170639Y-36283271D01*
X74119180Y-36541534D01*
X74089731Y-36667370D01*
X74029962Y-36911036D01*
X73955693Y-37217752D01*
X73875566Y-37551635D01*
X73798221Y-37876806D01*
X73783336Y-37939800D01*
X73695604Y-38313051D01*
X73627653Y-38598255D01*
X73574467Y-38805890D01*
X73531027Y-38946436D01*
X73492316Y-39030372D01*
X73453319Y-39068178D01*
X73409017Y-39070332D01*
X73354394Y-39047315D01*
X73284433Y-39009605D01*
X73273800Y-39004093D01*
X73128615Y-38909064D01*
X73037496Y-38790824D01*
X72997481Y-38633423D01*
X73005608Y-38420910D01*
X73058913Y-38137334D01*
X73089438Y-38011426D01*
X73149328Y-37766822D01*
X73222248Y-37457621D01*
X73302727Y-37108179D01*
X73385297Y-36742849D01*
X73464487Y-36385987D01*
X73534829Y-36061947D01*
X73590852Y-35795083D01*
X73618913Y-35653800D01*
X73656070Y-35469366D01*
X73688305Y-35364000D01*
X73728612Y-35316761D01*
X73789987Y-35306708D01*
X73832836Y-35309097D01*
X73832836Y-35309097D01*
G37*
X73832836Y-35309097D02*
X73970887Y-35352723D01*
X74102058Y-35443012D01*
X74105384Y-35446293D01*
X74179596Y-35536819D01*
X74215980Y-35640091D01*
X74225184Y-35793677D01*
X74223994Y-35864766D01*
X74207757Y-36044651D01*
X74170639Y-36283271D01*
X74119180Y-36541534D01*
X74089731Y-36667370D01*
X74029962Y-36911036D01*
X73955693Y-37217752D01*
X73875566Y-37551635D01*
X73798221Y-37876806D01*
X73783336Y-37939800D01*
X73695604Y-38313051D01*
X73627653Y-38598255D01*
X73574467Y-38805890D01*
X73531027Y-38946436D01*
X73492316Y-39030372D01*
X73453319Y-39068178D01*
X73409017Y-39070332D01*
X73354394Y-39047315D01*
X73284433Y-39009605D01*
X73273800Y-39004093D01*
X73128615Y-38909064D01*
X73037496Y-38790824D01*
X72997481Y-38633423D01*
X73005608Y-38420910D01*
X73058913Y-38137334D01*
X73089438Y-38011426D01*
X73149328Y-37766822D01*
X73222248Y-37457621D01*
X73302727Y-37108179D01*
X73385297Y-36742849D01*
X73464487Y-36385987D01*
X73534829Y-36061947D01*
X73590852Y-35795083D01*
X73618913Y-35653800D01*
X73656070Y-35469366D01*
X73688305Y-35364000D01*
X73728612Y-35316761D01*
X73789987Y-35306708D01*
X73832836Y-35309097D01*
G36*
X72372100Y-37030975D02*
G01*
X72528625Y-37100290D01*
X72669665Y-37216175D01*
X72765955Y-37349743D01*
X72791200Y-37444646D01*
X72775678Y-37544040D01*
X72733429Y-37709267D01*
X72670921Y-37921358D01*
X72594625Y-38161345D01*
X72511012Y-38410258D01*
X72426551Y-38649130D01*
X72347713Y-38858992D01*
X72280968Y-39020874D01*
X72232787Y-39115809D01*
X72215382Y-39132744D01*
X72136852Y-39106549D01*
X72018002Y-39042908D01*
X71990762Y-39025941D01*
X71891068Y-38953468D01*
X71824116Y-38875106D01*
X71790559Y-38776876D01*
X71791051Y-38644799D01*
X71826248Y-38464895D01*
X71896803Y-38223187D01*
X72003372Y-37905695D01*
X72049381Y-37773850D01*
X72124987Y-37546972D01*
X72185389Y-37343982D01*
X72223236Y-37190931D01*
X72232400Y-37125183D01*
X72244543Y-37037017D01*
X72301787Y-37017827D01*
X72372100Y-37030975D01*
X72372100Y-37030975D01*
G37*
X72372100Y-37030975D02*
X72528625Y-37100290D01*
X72669665Y-37216175D01*
X72765955Y-37349743D01*
X72791200Y-37444646D01*
X72775678Y-37544040D01*
X72733429Y-37709267D01*
X72670921Y-37921358D01*
X72594625Y-38161345D01*
X72511012Y-38410258D01*
X72426551Y-38649130D01*
X72347713Y-38858992D01*
X72280968Y-39020874D01*
X72232787Y-39115809D01*
X72215382Y-39132744D01*
X72136852Y-39106549D01*
X72018002Y-39042908D01*
X71990762Y-39025941D01*
X71891068Y-38953468D01*
X71824116Y-38875106D01*
X71790559Y-38776876D01*
X71791051Y-38644799D01*
X71826248Y-38464895D01*
X71896803Y-38223187D01*
X72003372Y-37905695D01*
X72049381Y-37773850D01*
X72124987Y-37546972D01*
X72185389Y-37343982D01*
X72223236Y-37190931D01*
X72232400Y-37125183D01*
X72244543Y-37037017D01*
X72301787Y-37017827D01*
X72372100Y-37030975D01*
G36*
X70596274Y-36981048D02*
G01*
X70728887Y-37059739D01*
X70755302Y-37080715D01*
X70852603Y-37177366D01*
X70898642Y-37279728D01*
X70911434Y-37431896D01*
X70911600Y-37463268D01*
X70899012Y-37614483D01*
X70864880Y-37832660D01*
X70814644Y-38086812D01*
X70762932Y-38309652D01*
X70701837Y-38555871D01*
X70647429Y-38777998D01*
X70605881Y-38950648D01*
X70584164Y-39044700D01*
X70535920Y-39150797D01*
X70446794Y-39178396D01*
X70306029Y-39128508D01*
X70219547Y-39078935D01*
X70070073Y-38942132D01*
X70004821Y-38812235D01*
X69960741Y-38651000D01*
X69871474Y-38867851D01*
X69791040Y-39015644D01*
X69684890Y-39152080D01*
X69577248Y-39250380D01*
X69495049Y-39284011D01*
X69431388Y-39264190D01*
X69318014Y-39218536D01*
X69305217Y-39213004D01*
X69125441Y-39093870D01*
X69018638Y-38921135D01*
X68983531Y-38688876D01*
X69018845Y-38391169D01*
X69078567Y-38161051D01*
X69157191Y-37874812D01*
X69226706Y-37575201D01*
X69278231Y-37302923D01*
X69298639Y-37152400D01*
X69324166Y-37062375D01*
X69397090Y-37037190D01*
X69457306Y-37040995D01*
X69668527Y-37096005D01*
X69811264Y-37211232D01*
X69886616Y-37390800D01*
X69895680Y-37638836D01*
X69839553Y-37959463D01*
X69768267Y-38209903D01*
X69712593Y-38391251D01*
X69673529Y-38530279D01*
X69657666Y-38603123D01*
X69658234Y-38608368D01*
X69693108Y-38581398D01*
X69758192Y-38479439D01*
X69844504Y-38321240D01*
X69943061Y-38125546D01*
X70044880Y-37911106D01*
X70140979Y-37696666D01*
X70222374Y-37500974D01*
X70280082Y-37342777D01*
X70301105Y-37266700D01*
X70341576Y-37092173D01*
X70380139Y-36995964D01*
X70429516Y-36955848D01*
X70482843Y-36949200D01*
X70596274Y-36981048D01*
X70596274Y-36981048D01*
G37*
X70596274Y-36981048D02*
X70728887Y-37059739D01*
X70755302Y-37080715D01*
X70852603Y-37177366D01*
X70898642Y-37279728D01*
X70911434Y-37431896D01*
X70911600Y-37463268D01*
X70899012Y-37614483D01*
X70864880Y-37832660D01*
X70814644Y-38086812D01*
X70762932Y-38309652D01*
X70701837Y-38555871D01*
X70647429Y-38777998D01*
X70605881Y-38950648D01*
X70584164Y-39044700D01*
X70535920Y-39150797D01*
X70446794Y-39178396D01*
X70306029Y-39128508D01*
X70219547Y-39078935D01*
X70070073Y-38942132D01*
X70004821Y-38812235D01*
X69960741Y-38651000D01*
X69871474Y-38867851D01*
X69791040Y-39015644D01*
X69684890Y-39152080D01*
X69577248Y-39250380D01*
X69495049Y-39284011D01*
X69431388Y-39264190D01*
X69318014Y-39218536D01*
X69305217Y-39213004D01*
X69125441Y-39093870D01*
X69018638Y-38921135D01*
X68983531Y-38688876D01*
X69018845Y-38391169D01*
X69078567Y-38161051D01*
X69157191Y-37874812D01*
X69226706Y-37575201D01*
X69278231Y-37302923D01*
X69298639Y-37152400D01*
X69324166Y-37062375D01*
X69397090Y-37037190D01*
X69457306Y-37040995D01*
X69668527Y-37096005D01*
X69811264Y-37211232D01*
X69886616Y-37390800D01*
X69895680Y-37638836D01*
X69839553Y-37959463D01*
X69768267Y-38209903D01*
X69712593Y-38391251D01*
X69673529Y-38530279D01*
X69657666Y-38603123D01*
X69658234Y-38608368D01*
X69693108Y-38581398D01*
X69758192Y-38479439D01*
X69844504Y-38321240D01*
X69943061Y-38125546D01*
X70044880Y-37911106D01*
X70140979Y-37696666D01*
X70222374Y-37500974D01*
X70280082Y-37342777D01*
X70301105Y-37266700D01*
X70341576Y-37092173D01*
X70380139Y-36995964D01*
X70429516Y-36955848D01*
X70482843Y-36949200D01*
X70596274Y-36981048D01*
G36*
X66292207Y-37230536D02*
G01*
X66425460Y-37241894D01*
X66513599Y-37270995D01*
X66584864Y-37326161D01*
X66648567Y-37394501D01*
X66767287Y-37573139D01*
X66786438Y-37732282D01*
X66706038Y-37872560D01*
X66662949Y-37910712D01*
X66521643Y-37998607D01*
X66426234Y-37999099D01*
X66368995Y-37911086D01*
X66358091Y-37867158D01*
X66300013Y-37718063D01*
X66204555Y-37599370D01*
X66095594Y-37532523D01*
X65997008Y-37538967D01*
X65994416Y-37540544D01*
X65914912Y-37616786D01*
X65906907Y-37711490D01*
X65973836Y-37839192D01*
X66101884Y-37995362D01*
X66355854Y-38305854D01*
X66520489Y-38575347D01*
X66596776Y-38809367D01*
X66585700Y-39013440D01*
X66488249Y-39193092D01*
X66340076Y-39329378D01*
X66177507Y-39406757D01*
X65958231Y-39458778D01*
X65725374Y-39478949D01*
X65522063Y-39460778D01*
X65501400Y-39455631D01*
X65346846Y-39369447D01*
X65206245Y-39218064D01*
X65105730Y-39037148D01*
X65071215Y-38868531D01*
X65120107Y-38742208D01*
X65240234Y-38639692D01*
X65358961Y-38595667D01*
X65454908Y-38583987D01*
X65507331Y-38615097D01*
X65541411Y-38712566D01*
X65556689Y-38780706D01*
X65622872Y-38965304D01*
X65719758Y-39064339D01*
X65840022Y-39070662D01*
X65850095Y-39067079D01*
X65929843Y-38991258D01*
X65932061Y-38860855D01*
X65859039Y-38684146D01*
X65713069Y-38469407D01*
X65669941Y-38416137D01*
X65532108Y-38242283D01*
X65449196Y-38109195D01*
X65405386Y-37984708D01*
X65384861Y-37836660D01*
X65384845Y-37836475D01*
X65378412Y-37669858D01*
X65403152Y-37556978D01*
X65473140Y-37451421D01*
X65516937Y-37400875D01*
X65597285Y-37315879D01*
X65669986Y-37264765D01*
X65763467Y-37238923D01*
X65906154Y-37229739D01*
X66085600Y-37228600D01*
X66292207Y-37230536D01*
X66292207Y-37230536D01*
G37*
X66292207Y-37230536D02*
X66425460Y-37241894D01*
X66513599Y-37270995D01*
X66584864Y-37326161D01*
X66648567Y-37394501D01*
X66767287Y-37573139D01*
X66786438Y-37732282D01*
X66706038Y-37872560D01*
X66662949Y-37910712D01*
X66521643Y-37998607D01*
X66426234Y-37999099D01*
X66368995Y-37911086D01*
X66358091Y-37867158D01*
X66300013Y-37718063D01*
X66204555Y-37599370D01*
X66095594Y-37532523D01*
X65997008Y-37538967D01*
X65994416Y-37540544D01*
X65914912Y-37616786D01*
X65906907Y-37711490D01*
X65973836Y-37839192D01*
X66101884Y-37995362D01*
X66355854Y-38305854D01*
X66520489Y-38575347D01*
X66596776Y-38809367D01*
X66585700Y-39013440D01*
X66488249Y-39193092D01*
X66340076Y-39329378D01*
X66177507Y-39406757D01*
X65958231Y-39458778D01*
X65725374Y-39478949D01*
X65522063Y-39460778D01*
X65501400Y-39455631D01*
X65346846Y-39369447D01*
X65206245Y-39218064D01*
X65105730Y-39037148D01*
X65071215Y-38868531D01*
X65120107Y-38742208D01*
X65240234Y-38639692D01*
X65358961Y-38595667D01*
X65454908Y-38583987D01*
X65507331Y-38615097D01*
X65541411Y-38712566D01*
X65556689Y-38780706D01*
X65622872Y-38965304D01*
X65719758Y-39064339D01*
X65840022Y-39070662D01*
X65850095Y-39067079D01*
X65929843Y-38991258D01*
X65932061Y-38860855D01*
X65859039Y-38684146D01*
X65713069Y-38469407D01*
X65669941Y-38416137D01*
X65532108Y-38242283D01*
X65449196Y-38109195D01*
X65405386Y-37984708D01*
X65384861Y-37836660D01*
X65384845Y-37836475D01*
X65378412Y-37669858D01*
X65403152Y-37556978D01*
X65473140Y-37451421D01*
X65516937Y-37400875D01*
X65597285Y-37315879D01*
X65669986Y-37264765D01*
X65763467Y-37238923D01*
X65906154Y-37229739D01*
X66085600Y-37228600D01*
X66292207Y-37230536D01*
G36*
X64701300Y-37312263D02*
G01*
X64904750Y-37408040D01*
X65030058Y-37559226D01*
X65073259Y-37751803D01*
X65030390Y-37971753D01*
X64937798Y-38148611D01*
X64761039Y-38379916D01*
X64544744Y-38613330D01*
X64319213Y-38818725D01*
X64117089Y-38964595D01*
X63981891Y-39060839D01*
X63935333Y-39133382D01*
X63979110Y-39175884D01*
X64058229Y-39184400D01*
X64248966Y-39144219D01*
X64467728Y-39033058D01*
X64686961Y-38864984D01*
X64690900Y-38861380D01*
X64841580Y-38732705D01*
X64931938Y-38684196D01*
X64967601Y-38718733D01*
X64954198Y-38839197D01*
X64918200Y-38977711D01*
X64801212Y-39208323D01*
X64603734Y-39392318D01*
X64341789Y-39514821D01*
X64338531Y-39515794D01*
X64096071Y-39574621D01*
X63908350Y-39583426D01*
X63741138Y-39541255D01*
X63646407Y-39496463D01*
X63489299Y-39358973D01*
X63392029Y-39157840D01*
X63352356Y-38909850D01*
X63368039Y-38631789D01*
X63372069Y-38614720D01*
X63989265Y-38614720D01*
X63996309Y-38625600D01*
X64048072Y-38591594D01*
X64144989Y-38503522D01*
X64237874Y-38409700D01*
X64447398Y-38176629D01*
X64588667Y-37990837D01*
X64659030Y-37857015D01*
X64655836Y-37779858D01*
X64603692Y-37762000D01*
X64522649Y-37801329D01*
X64408564Y-37903649D01*
X64281700Y-38045457D01*
X64162322Y-38203251D01*
X64070693Y-38353528D01*
X64044752Y-38410281D01*
X64001831Y-38537414D01*
X63989265Y-38614720D01*
X63372069Y-38614720D01*
X63436836Y-38340444D01*
X63556507Y-38052599D01*
X63724809Y-37785041D01*
X63901070Y-37589237D01*
X64148795Y-37397888D01*
X64386228Y-37301573D01*
X64625257Y-37296179D01*
X64701300Y-37312263D01*
X64701300Y-37312263D01*
G37*
X64701300Y-37312263D02*
X64904750Y-37408040D01*
X65030058Y-37559226D01*
X65073259Y-37751803D01*
X65030390Y-37971753D01*
X64937798Y-38148611D01*
X64761039Y-38379916D01*
X64544744Y-38613330D01*
X64319213Y-38818725D01*
X64117089Y-38964595D01*
X63981891Y-39060839D01*
X63935333Y-39133382D01*
X63979110Y-39175884D01*
X64058229Y-39184400D01*
X64248966Y-39144219D01*
X64467728Y-39033058D01*
X64686961Y-38864984D01*
X64690900Y-38861380D01*
X64841580Y-38732705D01*
X64931938Y-38684196D01*
X64967601Y-38718733D01*
X64954198Y-38839197D01*
X64918200Y-38977711D01*
X64801212Y-39208323D01*
X64603734Y-39392318D01*
X64341789Y-39514821D01*
X64338531Y-39515794D01*
X64096071Y-39574621D01*
X63908350Y-39583426D01*
X63741138Y-39541255D01*
X63646407Y-39496463D01*
X63489299Y-39358973D01*
X63392029Y-39157840D01*
X63352356Y-38909850D01*
X63368039Y-38631789D01*
X63372069Y-38614720D01*
X63989265Y-38614720D01*
X63996309Y-38625600D01*
X64048072Y-38591594D01*
X64144989Y-38503522D01*
X64237874Y-38409700D01*
X64447398Y-38176629D01*
X64588667Y-37990837D01*
X64659030Y-37857015D01*
X64655836Y-37779858D01*
X64603692Y-37762000D01*
X64522649Y-37801329D01*
X64408564Y-37903649D01*
X64281700Y-38045457D01*
X64162322Y-38203251D01*
X64070693Y-38353528D01*
X64044752Y-38410281D01*
X64001831Y-38537414D01*
X63989265Y-38614720D01*
X63372069Y-38614720D01*
X63436836Y-38340444D01*
X63556507Y-38052599D01*
X63724809Y-37785041D01*
X63901070Y-37589237D01*
X64148795Y-37397888D01*
X64386228Y-37301573D01*
X64625257Y-37296179D01*
X64701300Y-37312263D01*
G36*
X62884421Y-37447301D02*
G01*
X63039547Y-37552143D01*
X63171243Y-37681610D01*
X63255421Y-37816034D01*
X63268080Y-37935445D01*
X63244367Y-38046731D01*
X63218602Y-38211832D01*
X63206430Y-38308100D01*
X63178203Y-38476772D01*
X63128543Y-38557998D01*
X63035310Y-38564443D01*
X62876362Y-38508773D01*
X62864369Y-38503783D01*
X62721763Y-38428873D01*
X62639839Y-38332513D01*
X62592941Y-38179751D01*
X62582132Y-38119325D01*
X62552626Y-37939800D01*
X62294588Y-38371600D01*
X62080178Y-38787095D01*
X61926658Y-39204609D01*
X61918056Y-39235200D01*
X61861886Y-39431864D01*
X61812907Y-39588903D01*
X61778855Y-39682082D01*
X61770881Y-39696327D01*
X61703647Y-39711158D01*
X61640600Y-39704190D01*
X61496385Y-39635337D01*
X61356976Y-39508709D01*
X61251445Y-39357410D01*
X61208864Y-39214547D01*
X61208853Y-39212534D01*
X61221803Y-39095132D01*
X61257425Y-38900913D01*
X61310958Y-38650885D01*
X61377637Y-38366055D01*
X61452701Y-38067431D01*
X61531385Y-37776022D01*
X61547204Y-37720224D01*
X61624546Y-37449848D01*
X61835773Y-37484454D01*
X62050022Y-37548289D01*
X62182726Y-37652937D01*
X62225765Y-37782573D01*
X62239499Y-37823423D01*
X62284136Y-37786571D01*
X62366936Y-37665751D01*
X62373843Y-37654793D01*
X62470605Y-37517510D01*
X62559533Y-37418918D01*
X62600233Y-37390165D01*
X62729953Y-37386753D01*
X62884421Y-37447301D01*
X62884421Y-37447301D01*
G37*
X62884421Y-37447301D02*
X63039547Y-37552143D01*
X63171243Y-37681610D01*
X63255421Y-37816034D01*
X63268080Y-37935445D01*
X63244367Y-38046731D01*
X63218602Y-38211832D01*
X63206430Y-38308100D01*
X63178203Y-38476772D01*
X63128543Y-38557998D01*
X63035310Y-38564443D01*
X62876362Y-38508773D01*
X62864369Y-38503783D01*
X62721763Y-38428873D01*
X62639839Y-38332513D01*
X62592941Y-38179751D01*
X62582132Y-38119325D01*
X62552626Y-37939800D01*
X62294588Y-38371600D01*
X62080178Y-38787095D01*
X61926658Y-39204609D01*
X61918056Y-39235200D01*
X61861886Y-39431864D01*
X61812907Y-39588903D01*
X61778855Y-39682082D01*
X61770881Y-39696327D01*
X61703647Y-39711158D01*
X61640600Y-39704190D01*
X61496385Y-39635337D01*
X61356976Y-39508709D01*
X61251445Y-39357410D01*
X61208864Y-39214547D01*
X61208853Y-39212534D01*
X61221803Y-39095132D01*
X61257425Y-38900913D01*
X61310958Y-38650885D01*
X61377637Y-38366055D01*
X61452701Y-38067431D01*
X61531385Y-37776022D01*
X61547204Y-37720224D01*
X61624546Y-37449848D01*
X61835773Y-37484454D01*
X62050022Y-37548289D01*
X62182726Y-37652937D01*
X62225765Y-37782573D01*
X62239499Y-37823423D01*
X62284136Y-37786571D01*
X62366936Y-37665751D01*
X62373843Y-37654793D01*
X62470605Y-37517510D01*
X62559533Y-37418918D01*
X62600233Y-37390165D01*
X62729953Y-37386753D01*
X62884421Y-37447301D01*
G36*
X67988685Y-37113050D02*
G01*
X68110785Y-37228600D01*
X68207999Y-37333837D01*
X68276203Y-37397620D01*
X68291546Y-37406400D01*
X68315904Y-37362085D01*
X68344735Y-37252606D01*
X68350495Y-37223569D01*
X68380202Y-37104146D01*
X68428182Y-37060545D01*
X68525941Y-37067850D01*
X68543297Y-37071115D01*
X68712200Y-37144667D01*
X68848583Y-37277038D01*
X68923804Y-37436763D01*
X68930400Y-37496340D01*
X68918398Y-37585095D01*
X68884884Y-37755329D01*
X68833589Y-37990109D01*
X68768246Y-38272502D01*
X68692589Y-38585573D01*
X68671676Y-38669959D01*
X68586889Y-39016257D01*
X68504727Y-39362635D01*
X68430744Y-39684873D01*
X68370496Y-39958751D01*
X68329534Y-40160050D01*
X68327615Y-40170351D01*
X68275205Y-40417086D01*
X68219791Y-40572279D01*
X68150159Y-40645654D01*
X68055092Y-40646937D01*
X67923375Y-40585853D01*
X67879056Y-40559303D01*
X67756633Y-40452215D01*
X67686065Y-40306342D01*
X67666725Y-40110088D01*
X67697985Y-39851858D01*
X67779220Y-39520054D01*
X67816122Y-39394948D01*
X67866063Y-39227262D01*
X67901443Y-39101544D01*
X67914400Y-39046137D01*
X67880779Y-39062258D01*
X67794099Y-39131138D01*
X67711053Y-39203888D01*
X67511423Y-39343714D01*
X67326874Y-39385297D01*
X67150453Y-39329575D01*
X67089927Y-39287721D01*
X66956419Y-39144213D01*
X66879419Y-38958430D01*
X66866147Y-38832682D01*
X67371657Y-38832682D01*
X67387008Y-38911083D01*
X67441174Y-38908791D01*
X67536415Y-38839509D01*
X67629225Y-38736411D01*
X67746695Y-38569785D01*
X67876213Y-38362218D01*
X68005167Y-38136297D01*
X68120947Y-37914608D01*
X68210939Y-37719738D01*
X68262533Y-37574275D01*
X68270000Y-37525708D01*
X68233695Y-37523878D01*
X68141412Y-37568188D01*
X68018099Y-37643345D01*
X67888703Y-37734060D01*
X67778171Y-37825040D01*
X67771613Y-37831187D01*
X67569703Y-38091590D01*
X67435506Y-38422842D01*
X67387374Y-38664491D01*
X67371657Y-38832682D01*
X66866147Y-38832682D01*
X66853342Y-38711364D01*
X66861052Y-38508912D01*
X66932995Y-38105039D01*
X67079373Y-37736133D01*
X67290429Y-37421465D01*
X67521027Y-37205374D01*
X67706561Y-37091095D01*
X67854975Y-37060026D01*
X67988685Y-37113050D01*
X67988685Y-37113050D01*
G37*
X67988685Y-37113050D02*
X68110785Y-37228600D01*
X68207999Y-37333837D01*
X68276203Y-37397620D01*
X68291546Y-37406400D01*
X68315904Y-37362085D01*
X68344735Y-37252606D01*
X68350495Y-37223569D01*
X68380202Y-37104146D01*
X68428182Y-37060545D01*
X68525941Y-37067850D01*
X68543297Y-37071115D01*
X68712200Y-37144667D01*
X68848583Y-37277038D01*
X68923804Y-37436763D01*
X68930400Y-37496340D01*
X68918398Y-37585095D01*
X68884884Y-37755329D01*
X68833589Y-37990109D01*
X68768246Y-38272502D01*
X68692589Y-38585573D01*
X68671676Y-38669959D01*
X68586889Y-39016257D01*
X68504727Y-39362635D01*
X68430744Y-39684873D01*
X68370496Y-39958751D01*
X68329534Y-40160050D01*
X68327615Y-40170351D01*
X68275205Y-40417086D01*
X68219791Y-40572279D01*
X68150159Y-40645654D01*
X68055092Y-40646937D01*
X67923375Y-40585853D01*
X67879056Y-40559303D01*
X67756633Y-40452215D01*
X67686065Y-40306342D01*
X67666725Y-40110088D01*
X67697985Y-39851858D01*
X67779220Y-39520054D01*
X67816122Y-39394948D01*
X67866063Y-39227262D01*
X67901443Y-39101544D01*
X67914400Y-39046137D01*
X67880779Y-39062258D01*
X67794099Y-39131138D01*
X67711053Y-39203888D01*
X67511423Y-39343714D01*
X67326874Y-39385297D01*
X67150453Y-39329575D01*
X67089927Y-39287721D01*
X66956419Y-39144213D01*
X66879419Y-38958430D01*
X66866147Y-38832682D01*
X67371657Y-38832682D01*
X67387008Y-38911083D01*
X67441174Y-38908791D01*
X67536415Y-38839509D01*
X67629225Y-38736411D01*
X67746695Y-38569785D01*
X67876213Y-38362218D01*
X68005167Y-38136297D01*
X68120947Y-37914608D01*
X68210939Y-37719738D01*
X68262533Y-37574275D01*
X68270000Y-37525708D01*
X68233695Y-37523878D01*
X68141412Y-37568188D01*
X68018099Y-37643345D01*
X67888703Y-37734060D01*
X67778171Y-37825040D01*
X67771613Y-37831187D01*
X67569703Y-38091590D01*
X67435506Y-38422842D01*
X67387374Y-38664491D01*
X67371657Y-38832682D01*
X66866147Y-38832682D01*
X66853342Y-38711364D01*
X66861052Y-38508912D01*
X66932995Y-38105039D01*
X67079373Y-37736133D01*
X67290429Y-37421465D01*
X67521027Y-37205374D01*
X67706561Y-37091095D01*
X67854975Y-37060026D01*
X67988685Y-37113050D01*
G36*
X60767180Y-37560394D02*
G01*
X60870989Y-37624368D01*
X61004630Y-37792223D01*
X61085468Y-38024535D01*
X61115342Y-38300104D01*
X61096090Y-38597734D01*
X61029551Y-38896224D01*
X60917564Y-39174377D01*
X60761966Y-39410993D01*
X60711216Y-39466530D01*
X60479672Y-39658799D01*
X60252766Y-39768357D01*
X60042002Y-39792455D01*
X59858883Y-39728343D01*
X59802574Y-39683733D01*
X59713923Y-39615766D01*
X59658310Y-39600691D01*
X59656582Y-39602084D01*
X59636911Y-39659396D01*
X59601687Y-39798347D01*
X59555129Y-40000920D01*
X59501458Y-40249094D01*
X59473109Y-40385451D01*
X59417158Y-40650268D01*
X59365768Y-40879016D01*
X59323262Y-41053519D01*
X59293963Y-41155599D01*
X59285627Y-41173790D01*
X59222305Y-41178007D01*
X59105496Y-41146748D01*
X59069439Y-41133024D01*
X58919104Y-41043880D01*
X58822868Y-40913144D01*
X58778675Y-40729468D01*
X58784472Y-40481504D01*
X58838206Y-40157903D01*
X58868444Y-40022600D01*
X58922530Y-39793154D01*
X58989774Y-39509151D01*
X58993755Y-39492392D01*
X59676026Y-39492392D01*
X59870913Y-39384242D01*
X60023088Y-39289992D01*
X60155410Y-39192268D01*
X60178450Y-39172141D01*
X60271861Y-39046341D01*
X60367948Y-38853468D01*
X60454260Y-38626920D01*
X60518343Y-38400089D01*
X60547745Y-38206373D01*
X60548400Y-38180022D01*
X60540375Y-38048583D01*
X60520207Y-37972800D01*
X60510300Y-37965453D01*
X60454816Y-38008012D01*
X60365088Y-38122670D01*
X60252184Y-38290591D01*
X60127169Y-38492936D01*
X60001111Y-38710869D01*
X59885075Y-38925550D01*
X59790129Y-39118144D01*
X59727340Y-39269811D01*
X59711188Y-39325696D01*
X59676026Y-39492392D01*
X58993755Y-39492392D01*
X59059687Y-39214845D01*
X59097199Y-39057400D01*
X59164292Y-38774113D01*
X59234946Y-38472413D01*
X59298480Y-38198036D01*
X59327068Y-38072931D01*
X59376630Y-37873284D01*
X59424879Y-37710825D01*
X59463661Y-37612029D01*
X59473585Y-37597294D01*
X59546815Y-37587864D01*
X59664752Y-37629493D01*
X59796883Y-37704944D01*
X59912693Y-37796980D01*
X59979290Y-37882962D01*
X60017577Y-37953746D01*
X60046052Y-37940998D01*
X60081886Y-37857571D01*
X60201096Y-37673285D01*
X60371576Y-37557443D01*
X60568533Y-37517371D01*
X60767180Y-37560394D01*
X60767180Y-37560394D01*
G37*
X60767180Y-37560394D02*
X60870989Y-37624368D01*
X61004630Y-37792223D01*
X61085468Y-38024535D01*
X61115342Y-38300104D01*
X61096090Y-38597734D01*
X61029551Y-38896224D01*
X60917564Y-39174377D01*
X60761966Y-39410993D01*
X60711216Y-39466530D01*
X60479672Y-39658799D01*
X60252766Y-39768357D01*
X60042002Y-39792455D01*
X59858883Y-39728343D01*
X59802574Y-39683733D01*
X59713923Y-39615766D01*
X59658310Y-39600691D01*
X59656582Y-39602084D01*
X59636911Y-39659396D01*
X59601687Y-39798347D01*
X59555129Y-40000920D01*
X59501458Y-40249094D01*
X59473109Y-40385451D01*
X59417158Y-40650268D01*
X59365768Y-40879016D01*
X59323262Y-41053519D01*
X59293963Y-41155599D01*
X59285627Y-41173790D01*
X59222305Y-41178007D01*
X59105496Y-41146748D01*
X59069439Y-41133024D01*
X58919104Y-41043880D01*
X58822868Y-40913144D01*
X58778675Y-40729468D01*
X58784472Y-40481504D01*
X58838206Y-40157903D01*
X58868444Y-40022600D01*
X58922530Y-39793154D01*
X58989774Y-39509151D01*
X58993755Y-39492392D01*
X59676026Y-39492392D01*
X59870913Y-39384242D01*
X60023088Y-39289992D01*
X60155410Y-39192268D01*
X60178450Y-39172141D01*
X60271861Y-39046341D01*
X60367948Y-38853468D01*
X60454260Y-38626920D01*
X60518343Y-38400089D01*
X60547745Y-38206373D01*
X60548400Y-38180022D01*
X60540375Y-38048583D01*
X60520207Y-37972800D01*
X60510300Y-37965453D01*
X60454816Y-38008012D01*
X60365088Y-38122670D01*
X60252184Y-38290591D01*
X60127169Y-38492936D01*
X60001111Y-38710869D01*
X59885075Y-38925550D01*
X59790129Y-39118144D01*
X59727340Y-39269811D01*
X59711188Y-39325696D01*
X59676026Y-39492392D01*
X58993755Y-39492392D01*
X59059687Y-39214845D01*
X59097199Y-39057400D01*
X59164292Y-38774113D01*
X59234946Y-38472413D01*
X59298480Y-38198036D01*
X59327068Y-38072931D01*
X59376630Y-37873284D01*
X59424879Y-37710825D01*
X59463661Y-37612029D01*
X59473585Y-37597294D01*
X59546815Y-37587864D01*
X59664752Y-37629493D01*
X59796883Y-37704944D01*
X59912693Y-37796980D01*
X59979290Y-37882962D01*
X60017577Y-37953746D01*
X60046052Y-37940998D01*
X60081886Y-37857571D01*
X60201096Y-37673285D01*
X60371576Y-37557443D01*
X60568533Y-37517371D01*
X60767180Y-37560394D01*
G36*
X75515303Y-39891463D02*
G01*
X75643490Y-39898933D01*
X75674100Y-39904434D01*
X75770863Y-39969850D01*
X75774610Y-40064441D01*
X75688703Y-40185234D01*
X75516507Y-40329254D01*
X75261382Y-40493529D01*
X74926694Y-40675084D01*
X74651367Y-40808766D01*
X73918031Y-41109319D01*
X73127169Y-41352167D01*
X72271221Y-41538957D01*
X71342627Y-41671337D01*
X70333827Y-41750954D01*
X70327400Y-41751282D01*
X70065064Y-41763185D01*
X69881908Y-41765988D01*
X69755746Y-41757507D01*
X69664392Y-41735553D01*
X69585661Y-41697941D01*
X69546905Y-41674357D01*
X69436638Y-41592992D01*
X69397506Y-41515619D01*
X69407256Y-41410217D01*
X69447789Y-41284264D01*
X69518899Y-41126804D01*
X69605671Y-40964360D01*
X69693188Y-40823452D01*
X69766534Y-40730604D01*
X69801961Y-40708400D01*
X69837205Y-40735500D01*
X69833768Y-40746500D01*
X69723807Y-40973341D01*
X69634114Y-41181160D01*
X69573314Y-41348072D01*
X69550027Y-41452195D01*
X69550809Y-41464576D01*
X69611845Y-41520436D01*
X69764220Y-41553164D01*
X70000292Y-41562552D01*
X70312423Y-41548395D01*
X70692969Y-41510485D01*
X70791563Y-41498099D01*
X71678069Y-41361745D01*
X72481886Y-41192811D01*
X73217850Y-40987198D01*
X73900798Y-40740808D01*
X74493000Y-40475596D01*
X74950200Y-40250827D01*
X72242182Y-40276187D01*
X71553124Y-40283682D01*
X70957994Y-40292366D01*
X70458015Y-40302204D01*
X70054412Y-40313161D01*
X69748411Y-40325203D01*
X69541236Y-40338294D01*
X69434112Y-40352400D01*
X69422782Y-40356239D01*
X69338775Y-40417404D01*
X69210252Y-40533671D01*
X69059950Y-40683986D01*
X68999927Y-40747739D01*
X68688454Y-41084548D01*
X67552127Y-41148276D01*
X67170557Y-41169665D01*
X66718471Y-41194990D01*
X66226793Y-41222521D01*
X65726448Y-41250525D01*
X65248361Y-41277272D01*
X64993400Y-41291530D01*
X64552577Y-41316833D01*
X64080907Y-41345049D01*
X63606883Y-41374394D01*
X63159002Y-41403086D01*
X62765759Y-41429340D01*
X62555000Y-41444107D01*
X62199473Y-41469184D01*
X61837038Y-41493894D01*
X61495514Y-41516401D01*
X61202721Y-41534867D01*
X61005600Y-41546418D01*
X60756278Y-41561526D01*
X60520609Y-41578303D01*
X60332447Y-41594224D01*
X60256998Y-41602247D01*
X60103929Y-41609398D01*
X59999023Y-41573356D01*
X59914098Y-41501116D01*
X59810111Y-41364626D01*
X59800230Y-41243146D01*
X59883843Y-41114931D01*
X59902686Y-41095495D01*
X60018973Y-40979208D01*
X63395186Y-40940900D01*
X64002075Y-40933651D01*
X64602242Y-40925794D01*
X65184098Y-40917524D01*
X65736055Y-40909036D01*
X66246524Y-40900525D01*
X66703917Y-40892185D01*
X67096645Y-40884211D01*
X67413120Y-40876797D01*
X67641753Y-40870140D01*
X67673786Y-40868996D01*
X68576173Y-40835400D01*
X68860255Y-40516428D01*
X68965511Y-40397516D01*
X69056419Y-40299900D01*
X69143932Y-40221247D01*
X69239004Y-40159226D01*
X69352586Y-40111505D01*
X69495631Y-40075753D01*
X69679092Y-40049638D01*
X69913921Y-40030828D01*
X70211071Y-40016992D01*
X70581495Y-40005798D01*
X71036145Y-39994914D01*
X71343400Y-39987810D01*
X71835779Y-39975905D01*
X72352577Y-39962764D01*
X72871142Y-39949009D01*
X73368821Y-39935259D01*
X73822960Y-39922135D01*
X74210908Y-39910258D01*
X74391400Y-39904361D01*
X74731910Y-39894718D01*
X75043444Y-39889354D01*
X75309931Y-39888270D01*
X75515303Y-39891463D01*
X75515303Y-39891463D01*
G37*
X75515303Y-39891463D02*
X75643490Y-39898933D01*
X75674100Y-39904434D01*
X75770863Y-39969850D01*
X75774610Y-40064441D01*
X75688703Y-40185234D01*
X75516507Y-40329254D01*
X75261382Y-40493529D01*
X74926694Y-40675084D01*
X74651367Y-40808766D01*
X73918031Y-41109319D01*
X73127169Y-41352167D01*
X72271221Y-41538957D01*
X71342627Y-41671337D01*
X70333827Y-41750954D01*
X70327400Y-41751282D01*
X70065064Y-41763185D01*
X69881908Y-41765988D01*
X69755746Y-41757507D01*
X69664392Y-41735553D01*
X69585661Y-41697941D01*
X69546905Y-41674357D01*
X69436638Y-41592992D01*
X69397506Y-41515619D01*
X69407256Y-41410217D01*
X69447789Y-41284264D01*
X69518899Y-41126804D01*
X69605671Y-40964360D01*
X69693188Y-40823452D01*
X69766534Y-40730604D01*
X69801961Y-40708400D01*
X69837205Y-40735500D01*
X69833768Y-40746500D01*
X69723807Y-40973341D01*
X69634114Y-41181160D01*
X69573314Y-41348072D01*
X69550027Y-41452195D01*
X69550809Y-41464576D01*
X69611845Y-41520436D01*
X69764220Y-41553164D01*
X70000292Y-41562552D01*
X70312423Y-41548395D01*
X70692969Y-41510485D01*
X70791563Y-41498099D01*
X71678069Y-41361745D01*
X72481886Y-41192811D01*
X73217850Y-40987198D01*
X73900798Y-40740808D01*
X74493000Y-40475596D01*
X74950200Y-40250827D01*
X72242182Y-40276187D01*
X71553124Y-40283682D01*
X70957994Y-40292366D01*
X70458015Y-40302204D01*
X70054412Y-40313161D01*
X69748411Y-40325203D01*
X69541236Y-40338294D01*
X69434112Y-40352400D01*
X69422782Y-40356239D01*
X69338775Y-40417404D01*
X69210252Y-40533671D01*
X69059950Y-40683986D01*
X68999927Y-40747739D01*
X68688454Y-41084548D01*
X67552127Y-41148276D01*
X67170557Y-41169665D01*
X66718471Y-41194990D01*
X66226793Y-41222521D01*
X65726448Y-41250525D01*
X65248361Y-41277272D01*
X64993400Y-41291530D01*
X64552577Y-41316833D01*
X64080907Y-41345049D01*
X63606883Y-41374394D01*
X63159002Y-41403086D01*
X62765759Y-41429340D01*
X62555000Y-41444107D01*
X62199473Y-41469184D01*
X61837038Y-41493894D01*
X61495514Y-41516401D01*
X61202721Y-41534867D01*
X61005600Y-41546418D01*
X60756278Y-41561526D01*
X60520609Y-41578303D01*
X60332447Y-41594224D01*
X60256998Y-41602247D01*
X60103929Y-41609398D01*
X59999023Y-41573356D01*
X59914098Y-41501116D01*
X59810111Y-41364626D01*
X59800230Y-41243146D01*
X59883843Y-41114931D01*
X59902686Y-41095495D01*
X60018973Y-40979208D01*
X63395186Y-40940900D01*
X64002075Y-40933651D01*
X64602242Y-40925794D01*
X65184098Y-40917524D01*
X65736055Y-40909036D01*
X66246524Y-40900525D01*
X66703917Y-40892185D01*
X67096645Y-40884211D01*
X67413120Y-40876797D01*
X67641753Y-40870140D01*
X67673786Y-40868996D01*
X68576173Y-40835400D01*
X68860255Y-40516428D01*
X68965511Y-40397516D01*
X69056419Y-40299900D01*
X69143932Y-40221247D01*
X69239004Y-40159226D01*
X69352586Y-40111505D01*
X69495631Y-40075753D01*
X69679092Y-40049638D01*
X69913921Y-40030828D01*
X70211071Y-40016992D01*
X70581495Y-40005798D01*
X71036145Y-39994914D01*
X71343400Y-39987810D01*
X71835779Y-39975905D01*
X72352577Y-39962764D01*
X72871142Y-39949009D01*
X73368821Y-39935259D01*
X73822960Y-39922135D01*
X74210908Y-39910258D01*
X74391400Y-39904361D01*
X74731910Y-39894718D01*
X75043444Y-39889354D01*
X75309931Y-39888270D01*
X75515303Y-39891463D01*
D12*
X30990000Y-100820000D02*
X30990000Y-100664000D01*
X30990000Y-103136000D02*
X30990000Y-102980000D01*
X28388870Y-100820163D02*
G75*
G02X30470961Y-100820000I1041130J-1079837D01*
G01*
X28388870Y-102979837D02*
G75*
G03X30470961Y-102980000I1041130J1079837D01*
G01*
X27757665Y-100821392D02*
G75*
G02X30990000Y-100664484I1672335J-1078608D01*
G01*
X27757665Y-102978608D02*
G75*
G03X30990000Y-103135516I1672335J1078608D01*
G01*
X86330000Y-35330000D02*
X85000000Y-35330000D01*
X86330000Y-34000000D02*
X86330000Y-35330000D01*
X86330000Y-32730000D02*
X83670000Y-32730000D01*
X83670000Y-32730000D02*
X83670000Y-30130000D01*
X86330000Y-32730000D02*
X86330000Y-30130000D01*
X86330000Y-30130000D02*
X83670000Y-30130000D01*
X43760000Y-66060000D02*
X43430000Y-66060000D01*
X43430000Y-66060000D02*
X43430000Y-59520000D01*
X43430000Y-59520000D02*
X43760000Y-59520000D01*
X45840000Y-66060000D02*
X46170000Y-66060000D01*
X46170000Y-66060000D02*
X46170000Y-59520000D01*
X46170000Y-59520000D02*
X45840000Y-59520000D01*
X83420000Y-88140000D02*
X83750000Y-88140000D01*
X83420000Y-81600000D02*
X83420000Y-88140000D01*
X83750000Y-81600000D02*
X83420000Y-81600000D01*
X86160000Y-88140000D02*
X85830000Y-88140000D01*
X86160000Y-81600000D02*
X86160000Y-88140000D01*
X85830000Y-81600000D02*
X86160000Y-81600000D01*
X57420000Y-88240000D02*
X57750000Y-88240000D01*
X57420000Y-81700000D02*
X57420000Y-88240000D01*
X57750000Y-81700000D02*
X57420000Y-81700000D01*
X60160000Y-88240000D02*
X59830000Y-88240000D01*
X60160000Y-81700000D02*
X60160000Y-88240000D01*
X59830000Y-81700000D02*
X60160000Y-81700000D01*
X49440000Y-59440000D02*
X49770000Y-59440000D01*
X49770000Y-59440000D02*
X49770000Y-65980000D01*
X49770000Y-65980000D02*
X49440000Y-65980000D01*
X47360000Y-59440000D02*
X47030000Y-59440000D01*
X47030000Y-59440000D02*
X47030000Y-65980000D01*
X47030000Y-65980000D02*
X47360000Y-65980000D01*
X37240000Y-95430000D02*
X37240000Y-95760000D01*
X43780000Y-95430000D02*
X37240000Y-95430000D01*
X43780000Y-95760000D02*
X43780000Y-95430000D01*
X37240000Y-98170000D02*
X37240000Y-97840000D01*
X43780000Y-98170000D02*
X37240000Y-98170000D01*
X43780000Y-97840000D02*
X43780000Y-98170000D01*
X56160000Y-81780000D02*
X55830000Y-81780000D01*
X56160000Y-88320000D02*
X56160000Y-81780000D01*
X55830000Y-88320000D02*
X56160000Y-88320000D01*
X53420000Y-81780000D02*
X53750000Y-81780000D01*
X53420000Y-88320000D02*
X53420000Y-81780000D01*
X53750000Y-88320000D02*
X53420000Y-88320000D01*
X64260000Y-88230000D02*
X63930000Y-88230000D01*
X63930000Y-88230000D02*
X63930000Y-81690000D01*
X63930000Y-81690000D02*
X64260000Y-81690000D01*
X66340000Y-88230000D02*
X66670000Y-88230000D01*
X66670000Y-88230000D02*
X66670000Y-81690000D01*
X66670000Y-81690000D02*
X66340000Y-81690000D01*
X37770000Y-94470000D02*
X37770000Y-94800000D01*
X37770000Y-94800000D02*
X31230000Y-94800000D01*
X31230000Y-94800000D02*
X31230000Y-94470000D01*
X37770000Y-92390000D02*
X37770000Y-92060000D01*
X37770000Y-92060000D02*
X31230000Y-92060000D01*
X31230000Y-92060000D02*
X31230000Y-92390000D01*
X70030000Y-81700000D02*
X70360000Y-81700000D01*
X70360000Y-81700000D02*
X70360000Y-88240000D01*
X70360000Y-88240000D02*
X70030000Y-88240000D01*
X67950000Y-81700000D02*
X67620000Y-81700000D01*
X67620000Y-81700000D02*
X67620000Y-88240000D01*
X67620000Y-88240000D02*
X67950000Y-88240000D01*
X49240000Y-95440000D02*
X49240000Y-95770000D01*
X55780000Y-95440000D02*
X49240000Y-95440000D01*
X55780000Y-95770000D02*
X55780000Y-95440000D01*
X49240000Y-98180000D02*
X49240000Y-97850000D01*
X55780000Y-98180000D02*
X49240000Y-98180000D01*
X55780000Y-97850000D02*
X55780000Y-98180000D01*
X49780000Y-94450000D02*
X49780000Y-94780000D01*
X49780000Y-94780000D02*
X43240000Y-94780000D01*
X43240000Y-94780000D02*
X43240000Y-94450000D01*
X49780000Y-92370000D02*
X49780000Y-92040000D01*
X49780000Y-92040000D02*
X43240000Y-92040000D01*
X43240000Y-92040000D02*
X43240000Y-92370000D01*
X84230000Y-96170000D02*
X84230000Y-95840000D01*
X77690000Y-96170000D02*
X84230000Y-96170000D01*
X77690000Y-95840000D02*
X77690000Y-96170000D01*
X84230000Y-93430000D02*
X84230000Y-93760000D01*
X77690000Y-93430000D02*
X84230000Y-93430000D01*
X77690000Y-93760000D02*
X77690000Y-93430000D01*
X76060000Y-81680000D02*
X75730000Y-81680000D01*
X76060000Y-88220000D02*
X76060000Y-81680000D01*
X75730000Y-88220000D02*
X76060000Y-88220000D01*
X73320000Y-81680000D02*
X73650000Y-81680000D01*
X73320000Y-88220000D02*
X73320000Y-81680000D01*
X73650000Y-88220000D02*
X73320000Y-88220000D01*
X50960000Y-65960000D02*
X50630000Y-65960000D01*
X50630000Y-65960000D02*
X50630000Y-59420000D01*
X50630000Y-59420000D02*
X50960000Y-59420000D01*
X53040000Y-65960000D02*
X53370000Y-65960000D01*
X53370000Y-65960000D02*
X53370000Y-59420000D01*
X53370000Y-59420000D02*
X53040000Y-59420000D01*
X25240000Y-95430000D02*
X25240000Y-95760000D01*
X31780000Y-95430000D02*
X25240000Y-95430000D01*
X31780000Y-95760000D02*
X31780000Y-95430000D01*
X25240000Y-98170000D02*
X25240000Y-97840000D01*
X31780000Y-98170000D02*
X25240000Y-98170000D01*
X31780000Y-97840000D02*
X31780000Y-98170000D01*
X63435000Y-72070000D02*
X63435000Y-74610000D01*
X63435000Y-74610000D02*
X43115000Y-74610000D01*
X43115000Y-74610000D02*
X43115000Y-72070000D01*
X43115000Y-72070000D02*
X63435000Y-72070000D01*
X43115000Y-72070000D02*
X43115000Y-74610000D01*
X43115000Y-74610000D02*
X27875000Y-74610000D01*
X27875000Y-74610000D02*
X27875000Y-72070000D01*
X27875000Y-72070000D02*
X43115000Y-72070000D01*
X63435000Y-51750000D02*
X63435000Y-54290000D01*
X63435000Y-54290000D02*
X43115000Y-54290000D01*
X43115000Y-54290000D02*
X43115000Y-51750000D01*
X43115000Y-51750000D02*
X63435000Y-51750000D01*
X43115000Y-51750000D02*
X43115000Y-54290000D01*
X43115000Y-54290000D02*
X27875000Y-54290000D01*
X27875000Y-54290000D02*
X27875000Y-51750000D01*
X27875000Y-51750000D02*
X43115000Y-51750000D01*
X32220000Y-55630000D02*
X32220000Y-55960000D01*
X38760000Y-55630000D02*
X32220000Y-55630000D01*
X38760000Y-55960000D02*
X38760000Y-55630000D01*
X32220000Y-58370000D02*
X32220000Y-58040000D01*
X38760000Y-58370000D02*
X32220000Y-58370000D01*
X38760000Y-58040000D02*
X38760000Y-58370000D01*
X77250000Y-88120000D02*
X76920000Y-88120000D01*
X76920000Y-88120000D02*
X76920000Y-81580000D01*
X76920000Y-81580000D02*
X77250000Y-81580000D01*
X79330000Y-88120000D02*
X79660000Y-88120000D01*
X79660000Y-88120000D02*
X79660000Y-81580000D01*
X79660000Y-81580000D02*
X79330000Y-81580000D01*
X49730000Y-81800000D02*
X50060000Y-81800000D01*
X50060000Y-81800000D02*
X50060000Y-88340000D01*
X50060000Y-88340000D02*
X49730000Y-88340000D01*
X47650000Y-81800000D02*
X47320000Y-81800000D01*
X47320000Y-81800000D02*
X47320000Y-88340000D01*
X47320000Y-88340000D02*
X47650000Y-88340000D01*
X50320000Y-101270000D02*
X60480000Y-101270000D01*
X50320000Y-106350000D02*
X60480000Y-106350000D01*
X60480000Y-101270000D02*
X60480000Y-106350000D01*
X60480000Y-106350000D02*
X50320000Y-106350000D01*
X50320000Y-106350000D02*
X50320000Y-101270000D01*
X60480000Y-106324600D02*
X60480000Y-107645400D01*
X60480000Y-107645400D02*
X51615400Y-107645400D01*
X55425400Y-107645400D02*
X55425400Y-108102600D01*
X55425400Y-108102600D02*
X56441400Y-108102600D01*
X56441400Y-108102600D02*
X56441400Y-107696200D01*
X51590000Y-107645400D02*
X51590000Y-106350000D01*
X79690000Y-98725000D02*
X87310000Y-98725000D01*
X87310000Y-98725000D02*
X87310000Y-106345000D01*
X87310000Y-106345000D02*
X79690000Y-106345000D01*
X79690000Y-106345000D02*
X79690000Y-98725000D01*
X82230000Y-106345000D02*
X82230000Y-107615000D01*
X82230000Y-107615000D02*
X84770000Y-107615000D01*
X84770000Y-107615000D02*
X84770000Y-106345000D01*
X82992000Y-107615000D02*
X82992000Y-108250000D01*
X82992000Y-108250000D02*
X83881000Y-108250000D01*
X83881000Y-108250000D02*
X83881000Y-107615000D01*
X83881000Y-108250000D02*
X85278000Y-108250000D01*
X85278000Y-108250000D02*
X85278000Y-108885000D01*
X85278000Y-108885000D02*
X81849000Y-108885000D01*
X81849000Y-108885000D02*
X81849000Y-108250000D01*
X81849000Y-108250000D02*
X82992000Y-108250000D01*
X76640000Y-105470000D02*
X71560000Y-105470000D01*
X71560000Y-105470000D02*
X71560000Y-102930000D01*
X71560000Y-102930000D02*
X76640000Y-102930000D01*
X76640000Y-102930000D02*
X76640000Y-105470000D01*
X68740000Y-102930000D02*
X68740000Y-105470000D01*
X63660000Y-102930000D02*
X68740000Y-102930000D01*
X63660000Y-105470000D02*
X63660000Y-102930000D01*
X68740000Y-105470000D02*
X63660000Y-105470000D01*
D14*
X46691904Y-105312380D02*
X46691904Y-104312380D01*
X46930000Y-104312380D01*
X47072857Y-104360000D01*
X47168095Y-104455238D01*
X47215714Y-104550476D01*
X47263333Y-104740952D01*
X47263333Y-104883809D01*
X47215714Y-105074285D01*
X47168095Y-105169523D01*
X47072857Y-105264761D01*
X46930000Y-105312380D01*
X46691904Y-105312380D01*
X48120476Y-104645714D02*
X48120476Y-105312380D01*
X47882380Y-104264761D02*
X47644285Y-104979047D01*
X48263333Y-104979047D01*
X22636904Y-105277380D02*
X22636904Y-104277380D01*
X22875000Y-104277380D01*
X23017857Y-104325000D01*
X23113095Y-104420238D01*
X23160714Y-104515476D01*
X23208333Y-104705952D01*
X23208333Y-104848809D01*
X23160714Y-105039285D01*
X23113095Y-105134523D01*
X23017857Y-105229761D01*
X22875000Y-105277380D01*
X22636904Y-105277380D01*
X24160714Y-105277380D02*
X23589285Y-105277380D01*
X23875000Y-105277380D02*
X23875000Y-104277380D01*
X23779761Y-104420238D01*
X23684523Y-104515476D01*
X23589285Y-104563095D01*
X71723333Y-85817142D02*
X71675714Y-85864761D01*
X71532857Y-85912380D01*
X71437619Y-85912380D01*
X71294761Y-85864761D01*
X71199523Y-85769523D01*
X71151904Y-85674285D01*
X71104285Y-85483809D01*
X71104285Y-85340952D01*
X71151904Y-85150476D01*
X71199523Y-85055238D01*
X71294761Y-84960000D01*
X71437619Y-84912380D01*
X71532857Y-84912380D01*
X71675714Y-84960000D01*
X71723333Y-85007619D01*
X72056666Y-84912380D02*
X72675714Y-84912380D01*
X72342380Y-85293333D01*
X72485238Y-85293333D01*
X72580476Y-85340952D01*
X72628095Y-85388571D01*
X72675714Y-85483809D01*
X72675714Y-85721904D01*
X72628095Y-85817142D01*
X72580476Y-85864761D01*
X72485238Y-85912380D01*
X72199523Y-85912380D01*
X72104285Y-85864761D01*
X72056666Y-85817142D01*
X81752380Y-25108333D02*
X82466666Y-25108333D01*
X82609523Y-25155952D01*
X82704761Y-25251190D01*
X82752380Y-25394047D01*
X82752380Y-25489285D01*
X82752380Y-24108333D02*
X82752380Y-24679761D01*
X82752380Y-24394047D02*
X81752380Y-24394047D01*
X81895238Y-24489285D01*
X81990476Y-24584523D01*
X82038095Y-24679761D01*
X81627380Y-41108333D02*
X82341666Y-41108333D01*
X82484523Y-41155952D01*
X82579761Y-41251190D01*
X82627380Y-41394047D01*
X82627380Y-41489285D01*
X81722619Y-40679761D02*
X81675000Y-40632142D01*
X81627380Y-40536904D01*
X81627380Y-40298809D01*
X81675000Y-40203571D01*
X81722619Y-40155952D01*
X81817857Y-40108333D01*
X81913095Y-40108333D01*
X82055952Y-40155952D01*
X82627380Y-40727380D01*
X82627380Y-40108333D01*
X40856666Y-77852380D02*
X40856666Y-78566666D01*
X40809047Y-78709523D01*
X40713809Y-78804761D01*
X40570952Y-78852380D01*
X40475714Y-78852380D01*
X41237619Y-77852380D02*
X41856666Y-77852380D01*
X41523333Y-78233333D01*
X41666190Y-78233333D01*
X41761428Y-78280952D01*
X41809047Y-78328571D01*
X41856666Y-78423809D01*
X41856666Y-78661904D01*
X41809047Y-78757142D01*
X41761428Y-78804761D01*
X41666190Y-78852380D01*
X41380476Y-78852380D01*
X41285238Y-78804761D01*
X41237619Y-78757142D01*
X56953333Y-64697142D02*
X56905714Y-64744761D01*
X56762857Y-64792380D01*
X56667619Y-64792380D01*
X56524761Y-64744761D01*
X56429523Y-64649523D01*
X56381904Y-64554285D01*
X56334285Y-64363809D01*
X56334285Y-64220952D01*
X56381904Y-64030476D01*
X56429523Y-63935238D01*
X56524761Y-63840000D01*
X56667619Y-63792380D01*
X56762857Y-63792380D01*
X56905714Y-63840000D01*
X56953333Y-63887619D01*
X57905714Y-64792380D02*
X57334285Y-64792380D01*
X57620000Y-64792380D02*
X57620000Y-63792380D01*
X57524761Y-63935238D01*
X57429523Y-64030476D01*
X57334285Y-64078095D01*
X29296666Y-77912380D02*
X29296666Y-78626666D01*
X29249047Y-78769523D01*
X29153809Y-78864761D01*
X29010952Y-78912380D01*
X28915714Y-78912380D01*
X30201428Y-78245714D02*
X30201428Y-78912380D01*
X29963333Y-77864761D02*
X29725238Y-78579047D01*
X30344285Y-78579047D01*
X81223333Y-85617142D02*
X81175714Y-85664761D01*
X81032857Y-85712380D01*
X80937619Y-85712380D01*
X80794761Y-85664761D01*
X80699523Y-85569523D01*
X80651904Y-85474285D01*
X80604285Y-85283809D01*
X80604285Y-85140952D01*
X80651904Y-84950476D01*
X80699523Y-84855238D01*
X80794761Y-84760000D01*
X80937619Y-84712380D01*
X81032857Y-84712380D01*
X81175714Y-84760000D01*
X81223333Y-84807619D01*
X81604285Y-84807619D02*
X81651904Y-84760000D01*
X81747142Y-84712380D01*
X81985238Y-84712380D01*
X82080476Y-84760000D01*
X82128095Y-84807619D01*
X82175714Y-84902857D01*
X82175714Y-84998095D01*
X82128095Y-85140952D01*
X81556666Y-85712380D01*
X82175714Y-85712380D01*
X61923333Y-85817142D02*
X61875714Y-85864761D01*
X61732857Y-85912380D01*
X61637619Y-85912380D01*
X61494761Y-85864761D01*
X61399523Y-85769523D01*
X61351904Y-85674285D01*
X61304285Y-85483809D01*
X61304285Y-85340952D01*
X61351904Y-85150476D01*
X61399523Y-85055238D01*
X61494761Y-84960000D01*
X61637619Y-84912380D01*
X61732857Y-84912380D01*
X61875714Y-84960000D01*
X61923333Y-85007619D01*
X62780476Y-85245714D02*
X62780476Y-85912380D01*
X62542380Y-84864761D02*
X62304285Y-85579047D01*
X62923333Y-85579047D01*
X34691904Y-105312380D02*
X34691904Y-104312380D01*
X34930000Y-104312380D01*
X35072857Y-104360000D01*
X35168095Y-104455238D01*
X35215714Y-104550476D01*
X35263333Y-104740952D01*
X35263333Y-104883809D01*
X35215714Y-105074285D01*
X35168095Y-105169523D01*
X35072857Y-105264761D01*
X34930000Y-105312380D01*
X34691904Y-105312380D01*
X35644285Y-104407619D02*
X35691904Y-104360000D01*
X35787142Y-104312380D01*
X36025238Y-104312380D01*
X36120476Y-104360000D01*
X36168095Y-104407619D01*
X36215714Y-104502857D01*
X36215714Y-104598095D01*
X36168095Y-104740952D01*
X35596666Y-105312380D01*
X36215714Y-105312380D01*
X40691904Y-105312380D02*
X40691904Y-104312380D01*
X40930000Y-104312380D01*
X41072857Y-104360000D01*
X41168095Y-104455238D01*
X41215714Y-104550476D01*
X41263333Y-104740952D01*
X41263333Y-104883809D01*
X41215714Y-105074285D01*
X41168095Y-105169523D01*
X41072857Y-105264761D01*
X40930000Y-105312380D01*
X40691904Y-105312380D01*
X42168095Y-104312380D02*
X41691904Y-104312380D01*
X41644285Y-104788571D01*
X41691904Y-104740952D01*
X41787142Y-104693333D01*
X42025238Y-104693333D01*
X42120476Y-104740952D01*
X42168095Y-104788571D01*
X42215714Y-104883809D01*
X42215714Y-105121904D01*
X42168095Y-105217142D01*
X42120476Y-105264761D01*
X42025238Y-105312380D01*
X41787142Y-105312380D01*
X41691904Y-105264761D01*
X41644285Y-105217142D01*
X52047142Y-86426666D02*
X52094761Y-86474285D01*
X52142380Y-86617142D01*
X52142380Y-86712380D01*
X52094761Y-86855238D01*
X51999523Y-86950476D01*
X51904285Y-86998095D01*
X51713809Y-87045714D01*
X51570952Y-87045714D01*
X51380476Y-86998095D01*
X51285238Y-86950476D01*
X51190000Y-86855238D01*
X51142380Y-86712380D01*
X51142380Y-86617142D01*
X51190000Y-86474285D01*
X51237619Y-86426666D01*
X51142380Y-85521904D02*
X51142380Y-85998095D01*
X51618571Y-86045714D01*
X51570952Y-85998095D01*
X51523333Y-85902857D01*
X51523333Y-85664761D01*
X51570952Y-85569523D01*
X51618571Y-85521904D01*
X51713809Y-85474285D01*
X51951904Y-85474285D01*
X52047142Y-85521904D01*
X52094761Y-85569523D01*
X52142380Y-85664761D01*
X52142380Y-85902857D01*
X52094761Y-85998095D01*
X52047142Y-86045714D01*
X28691904Y-105312380D02*
X28691904Y-104312380D01*
X28930000Y-104312380D01*
X29072857Y-104360000D01*
X29168095Y-104455238D01*
X29215714Y-104550476D01*
X29263333Y-104740952D01*
X29263333Y-104883809D01*
X29215714Y-105074285D01*
X29168095Y-105169523D01*
X29072857Y-105264761D01*
X28930000Y-105312380D01*
X28691904Y-105312380D01*
X29596666Y-104312380D02*
X30215714Y-104312380D01*
X29882380Y-104693333D01*
X30025238Y-104693333D01*
X30120476Y-104740952D01*
X30168095Y-104788571D01*
X30215714Y-104883809D01*
X30215714Y-105121904D01*
X30168095Y-105217142D01*
X30120476Y-105264761D01*
X30025238Y-105312380D01*
X29739523Y-105312380D01*
X29644285Y-105264761D01*
X29596666Y-105217142D01*
X81802380Y-33333333D02*
X82516666Y-33333333D01*
X82659523Y-33380952D01*
X82754761Y-33476190D01*
X82802380Y-33619047D01*
X82802380Y-33714285D01*
X81802380Y-32380952D02*
X81802380Y-32857142D01*
X82278571Y-32904761D01*
X82230952Y-32857142D01*
X82183333Y-32761904D01*
X82183333Y-32523809D01*
X82230952Y-32428571D01*
X82278571Y-32380952D01*
X82373809Y-32333333D01*
X82611904Y-32333333D01*
X82707142Y-32380952D01*
X82754761Y-32428571D01*
X82802380Y-32523809D01*
X82802380Y-32761904D01*
X82754761Y-32857142D01*
X82707142Y-32904761D01*
X44633333Y-57752380D02*
X44300000Y-57276190D01*
X44061904Y-57752380D02*
X44061904Y-56752380D01*
X44442857Y-56752380D01*
X44538095Y-56800000D01*
X44585714Y-56847619D01*
X44633333Y-56942857D01*
X44633333Y-57085714D01*
X44585714Y-57180952D01*
X44538095Y-57228571D01*
X44442857Y-57276190D01*
X44061904Y-57276190D01*
X44966666Y-56752380D02*
X45585714Y-56752380D01*
X45252380Y-57133333D01*
X45395238Y-57133333D01*
X45490476Y-57180952D01*
X45538095Y-57228571D01*
X45585714Y-57323809D01*
X45585714Y-57561904D01*
X45538095Y-57657142D01*
X45490476Y-57704761D01*
X45395238Y-57752380D01*
X45109523Y-57752380D01*
X45014285Y-57704761D01*
X44966666Y-57657142D01*
X84147142Y-90812380D02*
X83813809Y-90336190D01*
X83575714Y-90812380D02*
X83575714Y-89812380D01*
X83956666Y-89812380D01*
X84051904Y-89860000D01*
X84099523Y-89907619D01*
X84147142Y-90002857D01*
X84147142Y-90145714D01*
X84099523Y-90240952D01*
X84051904Y-90288571D01*
X83956666Y-90336190D01*
X83575714Y-90336190D01*
X85099523Y-90812380D02*
X84528095Y-90812380D01*
X84813809Y-90812380D02*
X84813809Y-89812380D01*
X84718571Y-89955238D01*
X84623333Y-90050476D01*
X84528095Y-90098095D01*
X85718571Y-89812380D02*
X85813809Y-89812380D01*
X85909047Y-89860000D01*
X85956666Y-89907619D01*
X86004285Y-90002857D01*
X86051904Y-90193333D01*
X86051904Y-90431428D01*
X86004285Y-90621904D01*
X85956666Y-90717142D01*
X85909047Y-90764761D01*
X85813809Y-90812380D01*
X85718571Y-90812380D01*
X85623333Y-90764761D01*
X85575714Y-90717142D01*
X85528095Y-90621904D01*
X85480476Y-90431428D01*
X85480476Y-90193333D01*
X85528095Y-90002857D01*
X85575714Y-89907619D01*
X85623333Y-89860000D01*
X85718571Y-89812380D01*
X58147142Y-90912380D02*
X57813809Y-90436190D01*
X57575714Y-90912380D02*
X57575714Y-89912380D01*
X57956666Y-89912380D01*
X58051904Y-89960000D01*
X58099523Y-90007619D01*
X58147142Y-90102857D01*
X58147142Y-90245714D01*
X58099523Y-90340952D01*
X58051904Y-90388571D01*
X57956666Y-90436190D01*
X57575714Y-90436190D01*
X59099523Y-90912380D02*
X58528095Y-90912380D01*
X58813809Y-90912380D02*
X58813809Y-89912380D01*
X58718571Y-90055238D01*
X58623333Y-90150476D01*
X58528095Y-90198095D01*
X59432857Y-89912380D02*
X60051904Y-89912380D01*
X59718571Y-90293333D01*
X59861428Y-90293333D01*
X59956666Y-90340952D01*
X60004285Y-90388571D01*
X60051904Y-90483809D01*
X60051904Y-90721904D01*
X60004285Y-90817142D01*
X59956666Y-90864761D01*
X59861428Y-90912380D01*
X59575714Y-90912380D01*
X59480476Y-90864761D01*
X59432857Y-90817142D01*
X48233333Y-57652380D02*
X47900000Y-57176190D01*
X47661904Y-57652380D02*
X47661904Y-56652380D01*
X48042857Y-56652380D01*
X48138095Y-56700000D01*
X48185714Y-56747619D01*
X48233333Y-56842857D01*
X48233333Y-56985714D01*
X48185714Y-57080952D01*
X48138095Y-57128571D01*
X48042857Y-57176190D01*
X47661904Y-57176190D01*
X49138095Y-56652380D02*
X48661904Y-56652380D01*
X48614285Y-57128571D01*
X48661904Y-57080952D01*
X48757142Y-57033333D01*
X48995238Y-57033333D01*
X49090476Y-57080952D01*
X49138095Y-57128571D01*
X49185714Y-57223809D01*
X49185714Y-57461904D01*
X49138095Y-57557142D01*
X49090476Y-57604761D01*
X48995238Y-57652380D01*
X48757142Y-57652380D01*
X48661904Y-57604761D01*
X48614285Y-57557142D01*
X35472380Y-97442857D02*
X34996190Y-97776190D01*
X35472380Y-98014285D02*
X34472380Y-98014285D01*
X34472380Y-97633333D01*
X34520000Y-97538095D01*
X34567619Y-97490476D01*
X34662857Y-97442857D01*
X34805714Y-97442857D01*
X34900952Y-97490476D01*
X34948571Y-97538095D01*
X34996190Y-97633333D01*
X34996190Y-98014285D01*
X35472380Y-96490476D02*
X35472380Y-97061904D01*
X35472380Y-96776190D02*
X34472380Y-96776190D01*
X34615238Y-96871428D01*
X34710476Y-96966666D01*
X34758095Y-97061904D01*
X34805714Y-95633333D02*
X35472380Y-95633333D01*
X34424761Y-95871428D02*
X35139047Y-96109523D01*
X35139047Y-95490476D01*
X54623333Y-91012380D02*
X54290000Y-90536190D01*
X54051904Y-91012380D02*
X54051904Y-90012380D01*
X54432857Y-90012380D01*
X54528095Y-90060000D01*
X54575714Y-90107619D01*
X54623333Y-90202857D01*
X54623333Y-90345714D01*
X54575714Y-90440952D01*
X54528095Y-90488571D01*
X54432857Y-90536190D01*
X54051904Y-90536190D01*
X55480476Y-90012380D02*
X55290000Y-90012380D01*
X55194761Y-90060000D01*
X55147142Y-90107619D01*
X55051904Y-90250476D01*
X55004285Y-90440952D01*
X55004285Y-90821904D01*
X55051904Y-90917142D01*
X55099523Y-90964761D01*
X55194761Y-91012380D01*
X55385238Y-91012380D01*
X55480476Y-90964761D01*
X55528095Y-90917142D01*
X55575714Y-90821904D01*
X55575714Y-90583809D01*
X55528095Y-90488571D01*
X55480476Y-90440952D01*
X55385238Y-90393333D01*
X55194761Y-90393333D01*
X55099523Y-90440952D01*
X55051904Y-90488571D01*
X55004285Y-90583809D01*
X65133333Y-90922380D02*
X64800000Y-90446190D01*
X64561904Y-90922380D02*
X64561904Y-89922380D01*
X64942857Y-89922380D01*
X65038095Y-89970000D01*
X65085714Y-90017619D01*
X65133333Y-90112857D01*
X65133333Y-90255714D01*
X65085714Y-90350952D01*
X65038095Y-90398571D01*
X64942857Y-90446190D01*
X64561904Y-90446190D01*
X65466666Y-89922380D02*
X66133333Y-89922380D01*
X65704761Y-90922380D01*
X29462380Y-94072857D02*
X28986190Y-94406190D01*
X29462380Y-94644285D02*
X28462380Y-94644285D01*
X28462380Y-94263333D01*
X28510000Y-94168095D01*
X28557619Y-94120476D01*
X28652857Y-94072857D01*
X28795714Y-94072857D01*
X28890952Y-94120476D01*
X28938571Y-94168095D01*
X28986190Y-94263333D01*
X28986190Y-94644285D01*
X29462380Y-93120476D02*
X29462380Y-93691904D01*
X29462380Y-93406190D02*
X28462380Y-93406190D01*
X28605238Y-93501428D01*
X28700476Y-93596666D01*
X28748095Y-93691904D01*
X28462380Y-92215714D02*
X28462380Y-92691904D01*
X28938571Y-92739523D01*
X28890952Y-92691904D01*
X28843333Y-92596666D01*
X28843333Y-92358571D01*
X28890952Y-92263333D01*
X28938571Y-92215714D01*
X29033809Y-92168095D01*
X29271904Y-92168095D01*
X29367142Y-92215714D01*
X29414761Y-92263333D01*
X29462380Y-92358571D01*
X29462380Y-92596666D01*
X29414761Y-92691904D01*
X29367142Y-92739523D01*
X68347142Y-90912380D02*
X68013809Y-90436190D01*
X67775714Y-90912380D02*
X67775714Y-89912380D01*
X68156666Y-89912380D01*
X68251904Y-89960000D01*
X68299523Y-90007619D01*
X68347142Y-90102857D01*
X68347142Y-90245714D01*
X68299523Y-90340952D01*
X68251904Y-90388571D01*
X68156666Y-90436190D01*
X67775714Y-90436190D01*
X69299523Y-90912380D02*
X68728095Y-90912380D01*
X69013809Y-90912380D02*
X69013809Y-89912380D01*
X68918571Y-90055238D01*
X68823333Y-90150476D01*
X68728095Y-90198095D01*
X69680476Y-90007619D02*
X69728095Y-89960000D01*
X69823333Y-89912380D01*
X70061428Y-89912380D01*
X70156666Y-89960000D01*
X70204285Y-90007619D01*
X70251904Y-90102857D01*
X70251904Y-90198095D01*
X70204285Y-90340952D01*
X69632857Y-90912380D01*
X70251904Y-90912380D01*
X47472380Y-97452857D02*
X46996190Y-97786190D01*
X47472380Y-98024285D02*
X46472380Y-98024285D01*
X46472380Y-97643333D01*
X46520000Y-97548095D01*
X46567619Y-97500476D01*
X46662857Y-97452857D01*
X46805714Y-97452857D01*
X46900952Y-97500476D01*
X46948571Y-97548095D01*
X46996190Y-97643333D01*
X46996190Y-98024285D01*
X47472380Y-96500476D02*
X47472380Y-97071904D01*
X47472380Y-96786190D02*
X46472380Y-96786190D01*
X46615238Y-96881428D01*
X46710476Y-96976666D01*
X46758095Y-97071904D01*
X46472380Y-95643333D02*
X46472380Y-95833809D01*
X46520000Y-95929047D01*
X46567619Y-95976666D01*
X46710476Y-96071904D01*
X46900952Y-96119523D01*
X47281904Y-96119523D01*
X47377142Y-96071904D01*
X47424761Y-96024285D01*
X47472380Y-95929047D01*
X47472380Y-95738571D01*
X47424761Y-95643333D01*
X47377142Y-95595714D01*
X47281904Y-95548095D01*
X47043809Y-95548095D01*
X46948571Y-95595714D01*
X46900952Y-95643333D01*
X46853333Y-95738571D01*
X46853333Y-95929047D01*
X46900952Y-96024285D01*
X46948571Y-96071904D01*
X47043809Y-96119523D01*
X41472380Y-94052857D02*
X40996190Y-94386190D01*
X41472380Y-94624285D02*
X40472380Y-94624285D01*
X40472380Y-94243333D01*
X40520000Y-94148095D01*
X40567619Y-94100476D01*
X40662857Y-94052857D01*
X40805714Y-94052857D01*
X40900952Y-94100476D01*
X40948571Y-94148095D01*
X40996190Y-94243333D01*
X40996190Y-94624285D01*
X41472380Y-93100476D02*
X41472380Y-93671904D01*
X41472380Y-93386190D02*
X40472380Y-93386190D01*
X40615238Y-93481428D01*
X40710476Y-93576666D01*
X40758095Y-93671904D01*
X40472380Y-92767142D02*
X40472380Y-92100476D01*
X41472380Y-92529047D01*
X80007142Y-97352380D02*
X79673809Y-96876190D01*
X79435714Y-97352380D02*
X79435714Y-96352380D01*
X79816666Y-96352380D01*
X79911904Y-96400000D01*
X79959523Y-96447619D01*
X80007142Y-96542857D01*
X80007142Y-96685714D01*
X79959523Y-96780952D01*
X79911904Y-96828571D01*
X79816666Y-96876190D01*
X79435714Y-96876190D01*
X80959523Y-97352380D02*
X80388095Y-97352380D01*
X80673809Y-97352380D02*
X80673809Y-96352380D01*
X80578571Y-96495238D01*
X80483333Y-96590476D01*
X80388095Y-96638095D01*
X81911904Y-97352380D02*
X81340476Y-97352380D01*
X81626190Y-97352380D02*
X81626190Y-96352380D01*
X81530952Y-96495238D01*
X81435714Y-96590476D01*
X81340476Y-96638095D01*
X74523333Y-90912380D02*
X74190000Y-90436190D01*
X73951904Y-90912380D02*
X73951904Y-89912380D01*
X74332857Y-89912380D01*
X74428095Y-89960000D01*
X74475714Y-90007619D01*
X74523333Y-90102857D01*
X74523333Y-90245714D01*
X74475714Y-90340952D01*
X74428095Y-90388571D01*
X74332857Y-90436190D01*
X73951904Y-90436190D01*
X75094761Y-90340952D02*
X74999523Y-90293333D01*
X74951904Y-90245714D01*
X74904285Y-90150476D01*
X74904285Y-90102857D01*
X74951904Y-90007619D01*
X74999523Y-89960000D01*
X75094761Y-89912380D01*
X75285238Y-89912380D01*
X75380476Y-89960000D01*
X75428095Y-90007619D01*
X75475714Y-90102857D01*
X75475714Y-90150476D01*
X75428095Y-90245714D01*
X75380476Y-90293333D01*
X75285238Y-90340952D01*
X75094761Y-90340952D01*
X74999523Y-90388571D01*
X74951904Y-90436190D01*
X74904285Y-90531428D01*
X74904285Y-90721904D01*
X74951904Y-90817142D01*
X74999523Y-90864761D01*
X75094761Y-90912380D01*
X75285238Y-90912380D01*
X75380476Y-90864761D01*
X75428095Y-90817142D01*
X75475714Y-90721904D01*
X75475714Y-90531428D01*
X75428095Y-90436190D01*
X75380476Y-90388571D01*
X75285238Y-90340952D01*
X51833333Y-57652380D02*
X51500000Y-57176190D01*
X51261904Y-57652380D02*
X51261904Y-56652380D01*
X51642857Y-56652380D01*
X51738095Y-56700000D01*
X51785714Y-56747619D01*
X51833333Y-56842857D01*
X51833333Y-56985714D01*
X51785714Y-57080952D01*
X51738095Y-57128571D01*
X51642857Y-57176190D01*
X51261904Y-57176190D01*
X52785714Y-57652380D02*
X52214285Y-57652380D01*
X52500000Y-57652380D02*
X52500000Y-56652380D01*
X52404761Y-56795238D01*
X52309523Y-56890476D01*
X52214285Y-56938095D01*
X23452380Y-96916666D02*
X22976190Y-97250000D01*
X23452380Y-97488095D02*
X22452380Y-97488095D01*
X22452380Y-97107142D01*
X22500000Y-97011904D01*
X22547619Y-96964285D01*
X22642857Y-96916666D01*
X22785714Y-96916666D01*
X22880952Y-96964285D01*
X22928571Y-97011904D01*
X22976190Y-97107142D01*
X22976190Y-97488095D01*
X22547619Y-96535714D02*
X22500000Y-96488095D01*
X22452380Y-96392857D01*
X22452380Y-96154761D01*
X22500000Y-96059523D01*
X22547619Y-96011904D01*
X22642857Y-95964285D01*
X22738095Y-95964285D01*
X22880952Y-96011904D01*
X23452380Y-96583333D01*
X23452380Y-95964285D01*
X45266666Y-70752380D02*
X45266666Y-71466666D01*
X45219047Y-71609523D01*
X45123809Y-71704761D01*
X44980952Y-71752380D01*
X44885714Y-71752380D01*
X46171428Y-70752380D02*
X45980952Y-70752380D01*
X45885714Y-70800000D01*
X45838095Y-70847619D01*
X45742857Y-70990476D01*
X45695238Y-71180952D01*
X45695238Y-71561904D01*
X45742857Y-71657142D01*
X45790476Y-71704761D01*
X45885714Y-71752380D01*
X46076190Y-71752380D01*
X46171428Y-71704761D01*
X46219047Y-71657142D01*
X46266666Y-71561904D01*
X46266666Y-71323809D01*
X46219047Y-71228571D01*
X46171428Y-71180952D01*
X46076190Y-71133333D01*
X45885714Y-71133333D01*
X45790476Y-71180952D01*
X45742857Y-71228571D01*
X45695238Y-71323809D01*
X46940285Y-75155285D02*
X46976571Y-75119000D01*
X47049142Y-75082714D01*
X47230571Y-75082714D01*
X47303142Y-75119000D01*
X47339428Y-75155285D01*
X47375714Y-75227857D01*
X47375714Y-75300428D01*
X47339428Y-75409285D01*
X46904000Y-75844714D01*
X47375714Y-75844714D01*
X47629714Y-75082714D02*
X48137714Y-75844714D01*
X48137714Y-75082714D02*
X47629714Y-75844714D01*
X48536857Y-75409285D02*
X48464285Y-75373000D01*
X48428000Y-75336714D01*
X48391714Y-75264142D01*
X48391714Y-75227857D01*
X48428000Y-75155285D01*
X48464285Y-75119000D01*
X48536857Y-75082714D01*
X48682000Y-75082714D01*
X48754571Y-75119000D01*
X48790857Y-75155285D01*
X48827142Y-75227857D01*
X48827142Y-75264142D01*
X48790857Y-75336714D01*
X48754571Y-75373000D01*
X48682000Y-75409285D01*
X48536857Y-75409285D01*
X48464285Y-75445571D01*
X48428000Y-75481857D01*
X48391714Y-75554428D01*
X48391714Y-75699571D01*
X48428000Y-75772142D01*
X48464285Y-75808428D01*
X48536857Y-75844714D01*
X48682000Y-75844714D01*
X48754571Y-75808428D01*
X48790857Y-75772142D01*
X48827142Y-75699571D01*
X48827142Y-75554428D01*
X48790857Y-75481857D01*
X48754571Y-75445571D01*
X48682000Y-75409285D01*
X49734285Y-75336714D02*
X49734285Y-76098714D01*
X49734285Y-75373000D02*
X49806857Y-75336714D01*
X49952000Y-75336714D01*
X50024571Y-75373000D01*
X50060857Y-75409285D01*
X50097142Y-75481857D01*
X50097142Y-75699571D01*
X50060857Y-75772142D01*
X50024571Y-75808428D01*
X49952000Y-75844714D01*
X49806857Y-75844714D01*
X49734285Y-75808428D01*
X50423714Y-75844714D02*
X50423714Y-75336714D01*
X50423714Y-75082714D02*
X50387428Y-75119000D01*
X50423714Y-75155285D01*
X50460000Y-75119000D01*
X50423714Y-75082714D01*
X50423714Y-75155285D01*
X50786571Y-75336714D02*
X50786571Y-75844714D01*
X50786571Y-75409285D02*
X50822857Y-75373000D01*
X50895428Y-75336714D01*
X51004285Y-75336714D01*
X51076857Y-75373000D01*
X51113142Y-75445571D01*
X51113142Y-75844714D01*
X52020285Y-75808428D02*
X52092857Y-75844714D01*
X52238000Y-75844714D01*
X52310571Y-75808428D01*
X52346857Y-75735857D01*
X52346857Y-75699571D01*
X52310571Y-75627000D01*
X52238000Y-75590714D01*
X52129142Y-75590714D01*
X52056571Y-75554428D01*
X52020285Y-75481857D01*
X52020285Y-75445571D01*
X52056571Y-75373000D01*
X52129142Y-75336714D01*
X52238000Y-75336714D01*
X52310571Y-75373000D01*
X52564571Y-75336714D02*
X52854857Y-75336714D01*
X52673428Y-75082714D02*
X52673428Y-75735857D01*
X52709714Y-75808428D01*
X52782285Y-75844714D01*
X52854857Y-75844714D01*
X53435428Y-75844714D02*
X53435428Y-75445571D01*
X53399142Y-75373000D01*
X53326571Y-75336714D01*
X53181428Y-75336714D01*
X53108857Y-75373000D01*
X53435428Y-75808428D02*
X53362857Y-75844714D01*
X53181428Y-75844714D01*
X53108857Y-75808428D01*
X53072571Y-75735857D01*
X53072571Y-75663285D01*
X53108857Y-75590714D01*
X53181428Y-75554428D01*
X53362857Y-75554428D01*
X53435428Y-75518142D01*
X54124857Y-75808428D02*
X54052285Y-75844714D01*
X53907142Y-75844714D01*
X53834571Y-75808428D01*
X53798285Y-75772142D01*
X53762000Y-75699571D01*
X53762000Y-75481857D01*
X53798285Y-75409285D01*
X53834571Y-75373000D01*
X53907142Y-75336714D01*
X54052285Y-75336714D01*
X54124857Y-75373000D01*
X54451428Y-75844714D02*
X54451428Y-75082714D01*
X54524000Y-75554428D02*
X54741714Y-75844714D01*
X54741714Y-75336714D02*
X54451428Y-75627000D01*
X55394857Y-75844714D02*
X55394857Y-75445571D01*
X55358571Y-75373000D01*
X55286000Y-75336714D01*
X55140857Y-75336714D01*
X55068285Y-75373000D01*
X55394857Y-75808428D02*
X55322285Y-75844714D01*
X55140857Y-75844714D01*
X55068285Y-75808428D01*
X55032000Y-75735857D01*
X55032000Y-75663285D01*
X55068285Y-75590714D01*
X55140857Y-75554428D01*
X55322285Y-75554428D01*
X55394857Y-75518142D01*
X55757714Y-75844714D02*
X55757714Y-75082714D01*
X55757714Y-75373000D02*
X55830285Y-75336714D01*
X55975428Y-75336714D01*
X56048000Y-75373000D01*
X56084285Y-75409285D01*
X56120571Y-75481857D01*
X56120571Y-75699571D01*
X56084285Y-75772142D01*
X56048000Y-75808428D01*
X55975428Y-75844714D01*
X55830285Y-75844714D01*
X55757714Y-75808428D01*
X56556000Y-75844714D02*
X56483428Y-75808428D01*
X56447142Y-75735857D01*
X56447142Y-75082714D01*
X57136571Y-75808428D02*
X57064000Y-75844714D01*
X56918857Y-75844714D01*
X56846285Y-75808428D01*
X56810000Y-75735857D01*
X56810000Y-75445571D01*
X56846285Y-75373000D01*
X56918857Y-75336714D01*
X57064000Y-75336714D01*
X57136571Y-75373000D01*
X57172857Y-75445571D01*
X57172857Y-75518142D01*
X56810000Y-75590714D01*
X58080000Y-75844714D02*
X58080000Y-75082714D01*
X58406571Y-75844714D02*
X58406571Y-75445571D01*
X58370285Y-75373000D01*
X58297714Y-75336714D01*
X58188857Y-75336714D01*
X58116285Y-75373000D01*
X58080000Y-75409285D01*
X59059714Y-75808428D02*
X58987142Y-75844714D01*
X58842000Y-75844714D01*
X58769428Y-75808428D01*
X58733142Y-75735857D01*
X58733142Y-75445571D01*
X58769428Y-75373000D01*
X58842000Y-75336714D01*
X58987142Y-75336714D01*
X59059714Y-75373000D01*
X59096000Y-75445571D01*
X59096000Y-75518142D01*
X58733142Y-75590714D01*
X59749142Y-75844714D02*
X59749142Y-75445571D01*
X59712857Y-75373000D01*
X59640285Y-75336714D01*
X59495142Y-75336714D01*
X59422571Y-75373000D01*
X59749142Y-75808428D02*
X59676571Y-75844714D01*
X59495142Y-75844714D01*
X59422571Y-75808428D01*
X59386285Y-75735857D01*
X59386285Y-75663285D01*
X59422571Y-75590714D01*
X59495142Y-75554428D01*
X59676571Y-75554428D01*
X59749142Y-75518142D01*
X60438571Y-75844714D02*
X60438571Y-75082714D01*
X60438571Y-75808428D02*
X60366000Y-75844714D01*
X60220857Y-75844714D01*
X60148285Y-75808428D01*
X60112000Y-75772142D01*
X60075714Y-75699571D01*
X60075714Y-75481857D01*
X60112000Y-75409285D01*
X60148285Y-75373000D01*
X60220857Y-75336714D01*
X60366000Y-75336714D01*
X60438571Y-75373000D01*
X61091714Y-75808428D02*
X61019142Y-75844714D01*
X60874000Y-75844714D01*
X60801428Y-75808428D01*
X60765142Y-75735857D01*
X60765142Y-75445571D01*
X60801428Y-75373000D01*
X60874000Y-75336714D01*
X61019142Y-75336714D01*
X61091714Y-75373000D01*
X61128000Y-75445571D01*
X61128000Y-75518142D01*
X60765142Y-75590714D01*
X61454571Y-75844714D02*
X61454571Y-75336714D01*
X61454571Y-75481857D02*
X61490857Y-75409285D01*
X61527142Y-75373000D01*
X61599714Y-75336714D01*
X61672285Y-75336714D01*
X28170285Y-75155285D02*
X28206571Y-75119000D01*
X28279142Y-75082714D01*
X28460571Y-75082714D01*
X28533142Y-75119000D01*
X28569428Y-75155285D01*
X28605714Y-75227857D01*
X28605714Y-75300428D01*
X28569428Y-75409285D01*
X28133999Y-75844714D01*
X28605714Y-75844714D01*
X28859714Y-75082714D02*
X29367714Y-75844714D01*
X29367714Y-75082714D02*
X28859714Y-75844714D01*
X29984571Y-75082714D02*
X29839428Y-75082714D01*
X29766857Y-75119000D01*
X29730571Y-75155285D01*
X29657999Y-75264142D01*
X29621714Y-75409285D01*
X29621714Y-75699571D01*
X29657999Y-75772142D01*
X29694285Y-75808428D01*
X29766857Y-75844714D01*
X29911999Y-75844714D01*
X29984571Y-75808428D01*
X30020857Y-75772142D01*
X30057142Y-75699571D01*
X30057142Y-75518142D01*
X30020857Y-75445571D01*
X29984571Y-75409285D01*
X29911999Y-75373000D01*
X29766857Y-75373000D01*
X29694285Y-75409285D01*
X29657999Y-75445571D01*
X29621714Y-75518142D01*
X30964285Y-75336714D02*
X30964285Y-76098714D01*
X30964285Y-75373000D02*
X31036857Y-75336714D01*
X31181999Y-75336714D01*
X31254571Y-75373000D01*
X31290857Y-75409285D01*
X31327142Y-75481857D01*
X31327142Y-75699571D01*
X31290857Y-75772142D01*
X31254571Y-75808428D01*
X31181999Y-75844714D01*
X31036857Y-75844714D01*
X30964285Y-75808428D01*
X31653714Y-75844714D02*
X31653714Y-75336714D01*
X31653714Y-75082714D02*
X31617428Y-75119000D01*
X31653714Y-75155285D01*
X31689999Y-75119000D01*
X31653714Y-75082714D01*
X31653714Y-75155285D01*
X32016571Y-75336714D02*
X32016571Y-75844714D01*
X32016571Y-75409285D02*
X32052857Y-75373000D01*
X32125428Y-75336714D01*
X32234285Y-75336714D01*
X32306857Y-75373000D01*
X32343142Y-75445571D01*
X32343142Y-75844714D01*
X33250285Y-75808428D02*
X33322857Y-75844714D01*
X33467999Y-75844714D01*
X33540571Y-75808428D01*
X33576857Y-75735857D01*
X33576857Y-75699571D01*
X33540571Y-75627000D01*
X33467999Y-75590714D01*
X33359142Y-75590714D01*
X33286571Y-75554428D01*
X33250285Y-75481857D01*
X33250285Y-75445571D01*
X33286571Y-75373000D01*
X33359142Y-75336714D01*
X33467999Y-75336714D01*
X33540571Y-75373000D01*
X33794571Y-75336714D02*
X34084857Y-75336714D01*
X33903428Y-75082714D02*
X33903428Y-75735857D01*
X33939714Y-75808428D01*
X34012285Y-75844714D01*
X34084857Y-75844714D01*
X34665428Y-75844714D02*
X34665428Y-75445571D01*
X34629142Y-75373000D01*
X34556571Y-75336714D01*
X34411428Y-75336714D01*
X34338857Y-75373000D01*
X34665428Y-75808428D02*
X34592857Y-75844714D01*
X34411428Y-75844714D01*
X34338857Y-75808428D01*
X34302571Y-75735857D01*
X34302571Y-75663285D01*
X34338857Y-75590714D01*
X34411428Y-75554428D01*
X34592857Y-75554428D01*
X34665428Y-75518142D01*
X35354857Y-75808428D02*
X35282285Y-75844714D01*
X35137142Y-75844714D01*
X35064571Y-75808428D01*
X35028285Y-75772142D01*
X34992000Y-75699571D01*
X34992000Y-75481857D01*
X35028285Y-75409285D01*
X35064571Y-75373000D01*
X35137142Y-75336714D01*
X35282285Y-75336714D01*
X35354857Y-75373000D01*
X35681428Y-75844714D02*
X35681428Y-75082714D01*
X35754000Y-75554428D02*
X35971714Y-75844714D01*
X35971714Y-75336714D02*
X35681428Y-75627000D01*
X36624857Y-75844714D02*
X36624857Y-75445571D01*
X36588571Y-75373000D01*
X36516000Y-75336714D01*
X36370857Y-75336714D01*
X36298285Y-75373000D01*
X36624857Y-75808428D02*
X36552285Y-75844714D01*
X36370857Y-75844714D01*
X36298285Y-75808428D01*
X36262000Y-75735857D01*
X36262000Y-75663285D01*
X36298285Y-75590714D01*
X36370857Y-75554428D01*
X36552285Y-75554428D01*
X36624857Y-75518142D01*
X36987714Y-75844714D02*
X36987714Y-75082714D01*
X36987714Y-75373000D02*
X37060285Y-75336714D01*
X37205428Y-75336714D01*
X37278000Y-75373000D01*
X37314285Y-75409285D01*
X37350571Y-75481857D01*
X37350571Y-75699571D01*
X37314285Y-75772142D01*
X37278000Y-75808428D01*
X37205428Y-75844714D01*
X37060285Y-75844714D01*
X36987714Y-75808428D01*
X37786000Y-75844714D02*
X37713428Y-75808428D01*
X37677142Y-75735857D01*
X37677142Y-75082714D01*
X38366571Y-75808428D02*
X38293999Y-75844714D01*
X38148857Y-75844714D01*
X38076285Y-75808428D01*
X38039999Y-75735857D01*
X38039999Y-75445571D01*
X38076285Y-75373000D01*
X38148857Y-75336714D01*
X38293999Y-75336714D01*
X38366571Y-75373000D01*
X38402857Y-75445571D01*
X38402857Y-75518142D01*
X38039999Y-75590714D01*
X39309999Y-75844714D02*
X39309999Y-75082714D01*
X39636571Y-75844714D02*
X39636571Y-75445571D01*
X39600285Y-75373000D01*
X39527714Y-75336714D01*
X39418857Y-75336714D01*
X39346285Y-75373000D01*
X39309999Y-75409285D01*
X40289714Y-75808428D02*
X40217142Y-75844714D01*
X40071999Y-75844714D01*
X39999428Y-75808428D01*
X39963142Y-75735857D01*
X39963142Y-75445571D01*
X39999428Y-75373000D01*
X40071999Y-75336714D01*
X40217142Y-75336714D01*
X40289714Y-75373000D01*
X40325999Y-75445571D01*
X40325999Y-75518142D01*
X39963142Y-75590714D01*
X40979142Y-75844714D02*
X40979142Y-75445571D01*
X40942857Y-75373000D01*
X40870285Y-75336714D01*
X40725142Y-75336714D01*
X40652571Y-75373000D01*
X40979142Y-75808428D02*
X40906571Y-75844714D01*
X40725142Y-75844714D01*
X40652571Y-75808428D01*
X40616285Y-75735857D01*
X40616285Y-75663285D01*
X40652571Y-75590714D01*
X40725142Y-75554428D01*
X40906571Y-75554428D01*
X40979142Y-75518142D01*
X41668571Y-75844714D02*
X41668571Y-75082714D01*
X41668571Y-75808428D02*
X41595999Y-75844714D01*
X41450857Y-75844714D01*
X41378285Y-75808428D01*
X41341999Y-75772142D01*
X41305714Y-75699571D01*
X41305714Y-75481857D01*
X41341999Y-75409285D01*
X41378285Y-75373000D01*
X41450857Y-75336714D01*
X41595999Y-75336714D01*
X41668571Y-75373000D01*
X42321714Y-75808428D02*
X42249142Y-75844714D01*
X42103999Y-75844714D01*
X42031428Y-75808428D01*
X41995142Y-75735857D01*
X41995142Y-75445571D01*
X42031428Y-75373000D01*
X42103999Y-75336714D01*
X42249142Y-75336714D01*
X42321714Y-75373000D01*
X42357999Y-75445571D01*
X42357999Y-75518142D01*
X41995142Y-75590714D01*
X42684571Y-75844714D02*
X42684571Y-75336714D01*
X42684571Y-75481857D02*
X42720857Y-75409285D01*
X42757142Y-75373000D01*
X42829714Y-75336714D01*
X42902285Y-75336714D01*
X35333333Y-59652380D02*
X35000000Y-59176190D01*
X34761904Y-59652380D02*
X34761904Y-58652380D01*
X35142857Y-58652380D01*
X35238095Y-58700000D01*
X35285714Y-58747619D01*
X35333333Y-58842857D01*
X35333333Y-58985714D01*
X35285714Y-59080952D01*
X35238095Y-59128571D01*
X35142857Y-59176190D01*
X34761904Y-59176190D01*
X36190476Y-58985714D02*
X36190476Y-59652380D01*
X35952380Y-58604761D02*
X35714285Y-59319047D01*
X36333333Y-59319047D01*
X78123333Y-90812380D02*
X77790000Y-90336190D01*
X77551904Y-90812380D02*
X77551904Y-89812380D01*
X77932857Y-89812380D01*
X78028095Y-89860000D01*
X78075714Y-89907619D01*
X78123333Y-90002857D01*
X78123333Y-90145714D01*
X78075714Y-90240952D01*
X78028095Y-90288571D01*
X77932857Y-90336190D01*
X77551904Y-90336190D01*
X78599523Y-90812380D02*
X78790000Y-90812380D01*
X78885238Y-90764761D01*
X78932857Y-90717142D01*
X79028095Y-90574285D01*
X79075714Y-90383809D01*
X79075714Y-90002857D01*
X79028095Y-89907619D01*
X78980476Y-89860000D01*
X78885238Y-89812380D01*
X78694761Y-89812380D01*
X78599523Y-89860000D01*
X78551904Y-89907619D01*
X78504285Y-90002857D01*
X78504285Y-90240952D01*
X78551904Y-90336190D01*
X78599523Y-90383809D01*
X78694761Y-90431428D01*
X78885238Y-90431428D01*
X78980476Y-90383809D01*
X79028095Y-90336190D01*
X79075714Y-90240952D01*
X48047142Y-91012380D02*
X47713809Y-90536190D01*
X47475714Y-91012380D02*
X47475714Y-90012380D01*
X47856666Y-90012380D01*
X47951904Y-90060000D01*
X47999523Y-90107619D01*
X48047142Y-90202857D01*
X48047142Y-90345714D01*
X47999523Y-90440952D01*
X47951904Y-90488571D01*
X47856666Y-90536190D01*
X47475714Y-90536190D01*
X48999523Y-91012380D02*
X48428095Y-91012380D01*
X48713809Y-91012380D02*
X48713809Y-90012380D01*
X48618571Y-90155238D01*
X48523333Y-90250476D01*
X48428095Y-90298095D01*
X49570952Y-90440952D02*
X49475714Y-90393333D01*
X49428095Y-90345714D01*
X49380476Y-90250476D01*
X49380476Y-90202857D01*
X49428095Y-90107619D01*
X49475714Y-90060000D01*
X49570952Y-90012380D01*
X49761428Y-90012380D01*
X49856666Y-90060000D01*
X49904285Y-90107619D01*
X49951904Y-90202857D01*
X49951904Y-90250476D01*
X49904285Y-90345714D01*
X49856666Y-90393333D01*
X49761428Y-90440952D01*
X49570952Y-90440952D01*
X49475714Y-90488571D01*
X49428095Y-90536190D01*
X49380476Y-90631428D01*
X49380476Y-90821904D01*
X49428095Y-90917142D01*
X49475714Y-90964761D01*
X49570952Y-91012380D01*
X49761428Y-91012380D01*
X49856666Y-90964761D01*
X49904285Y-90917142D01*
X49951904Y-90821904D01*
X49951904Y-90631428D01*
X49904285Y-90536190D01*
X49856666Y-90488571D01*
X49761428Y-90440952D01*
X54384000Y-104118428D02*
X54492857Y-104154714D01*
X54674285Y-104154714D01*
X54746857Y-104118428D01*
X54783142Y-104082142D01*
X54819428Y-104009571D01*
X54819428Y-103937000D01*
X54783142Y-103864428D01*
X54746857Y-103828142D01*
X54674285Y-103791857D01*
X54529142Y-103755571D01*
X54456571Y-103719285D01*
X54420285Y-103683000D01*
X54384000Y-103610428D01*
X54384000Y-103537857D01*
X54420285Y-103465285D01*
X54456571Y-103429000D01*
X54529142Y-103392714D01*
X54710571Y-103392714D01*
X54819428Y-103429000D01*
X55073428Y-103392714D02*
X55254857Y-104154714D01*
X55400000Y-103610428D01*
X55545142Y-104154714D01*
X55726571Y-103392714D01*
X55944285Y-103392714D02*
X56416000Y-103392714D01*
X56162000Y-103683000D01*
X56270857Y-103683000D01*
X56343428Y-103719285D01*
X56379714Y-103755571D01*
X56416000Y-103828142D01*
X56416000Y-104009571D01*
X56379714Y-104082142D01*
X56343428Y-104118428D01*
X56270857Y-104154714D01*
X56053142Y-104154714D01*
X55980571Y-104118428D01*
X55944285Y-104082142D01*
X82166666Y-101669761D02*
X82309523Y-101717380D01*
X82547619Y-101717380D01*
X82642857Y-101669761D01*
X82690476Y-101622142D01*
X82738095Y-101526904D01*
X82738095Y-101431666D01*
X82690476Y-101336428D01*
X82642857Y-101288809D01*
X82547619Y-101241190D01*
X82357142Y-101193571D01*
X82261904Y-101145952D01*
X82214285Y-101098333D01*
X82166666Y-101003095D01*
X82166666Y-100907857D01*
X82214285Y-100812619D01*
X82261904Y-100765000D01*
X82357142Y-100717380D01*
X82595238Y-100717380D01*
X82738095Y-100765000D01*
X83071428Y-100717380D02*
X83309523Y-101717380D01*
X83500000Y-101003095D01*
X83690476Y-101717380D01*
X83928571Y-100717380D01*
X84738095Y-101050714D02*
X84738095Y-101717380D01*
X84500000Y-100669761D02*
X84261904Y-101384047D01*
X84880952Y-101384047D01*
X72766666Y-102604761D02*
X72909523Y-102652380D01*
X73147619Y-102652380D01*
X73242857Y-102604761D01*
X73290476Y-102557142D01*
X73338095Y-102461904D01*
X73338095Y-102366666D01*
X73290476Y-102271428D01*
X73242857Y-102223809D01*
X73147619Y-102176190D01*
X72957142Y-102128571D01*
X72861904Y-102080952D01*
X72814285Y-102033333D01*
X72766666Y-101938095D01*
X72766666Y-101842857D01*
X72814285Y-101747619D01*
X72861904Y-101700000D01*
X72957142Y-101652380D01*
X73195238Y-101652380D01*
X73338095Y-101700000D01*
X73671428Y-101652380D02*
X73909523Y-102652380D01*
X74100000Y-101938095D01*
X74290476Y-102652380D01*
X74528571Y-101652380D01*
X74861904Y-101747619D02*
X74909523Y-101700000D01*
X75004761Y-101652380D01*
X75242857Y-101652380D01*
X75338095Y-101700000D01*
X75385714Y-101747619D01*
X75433333Y-101842857D01*
X75433333Y-101938095D01*
X75385714Y-102080952D01*
X74814285Y-102652380D01*
X75433333Y-102652380D01*
X64866666Y-102604761D02*
X65009523Y-102652380D01*
X65247619Y-102652380D01*
X65342857Y-102604761D01*
X65390476Y-102557142D01*
X65438095Y-102461904D01*
X65438095Y-102366666D01*
X65390476Y-102271428D01*
X65342857Y-102223809D01*
X65247619Y-102176190D01*
X65057142Y-102128571D01*
X64961904Y-102080952D01*
X64914285Y-102033333D01*
X64866666Y-101938095D01*
X64866666Y-101842857D01*
X64914285Y-101747619D01*
X64961904Y-101700000D01*
X65057142Y-101652380D01*
X65295238Y-101652380D01*
X65438095Y-101700000D01*
X65771428Y-101652380D02*
X66009523Y-102652380D01*
X66200000Y-101938095D01*
X66390476Y-102652380D01*
X66628571Y-101652380D01*
X67533333Y-102652380D02*
X66961904Y-102652380D01*
X67247619Y-102652380D02*
X67247619Y-101652380D01*
X67152380Y-101795238D01*
X67057142Y-101890476D01*
X66961904Y-101938095D01*
M02*
