%FSLAX45Y45*%
G04 Gerber Fmt 4.5, Leading zero omitted, Abs format (unit mm)*
G04 Created by KiCad (PCBNEW (5.1.4)-1) date 2019-12-06 09:41:00*
%MOMM*%
%LPD*%
G04 APERTURE LIST*
%ADD10C,0.100000*%
%ADD11C,0.200000*%
%ADD12C,0.300000*%
G04 APERTURE END LIST*
D10*
X4032600Y-4667000D02*
X4032600Y-4921000D01*
X2762600Y-4667000D02*
X2762600Y-4921000D01*
X2762600Y-4667000D02*
X4032600Y-4667000D01*
X2762600Y-4921000D02*
X4032600Y-4921000D01*
X4794000Y-4921000D02*
X4794000Y-4667000D01*
X6064000Y-4667000D02*
X6064000Y-4921000D01*
X4794000Y-4667000D02*
X6064000Y-4667000D01*
X4794000Y-4921000D02*
X6064000Y-4921000D01*
X2330200Y-6445000D02*
X3346200Y-6445000D01*
X3346200Y-6191000D02*
X2330200Y-6191000D01*
X2330200Y-6191000D02*
X2330200Y-6445000D01*
X2000000Y-10636000D02*
X8858000Y-10636000D01*
X8858000Y-2000000D02*
X8858000Y-10636000D01*
X2000000Y-2000000D02*
X2000000Y-10636000D01*
X3346200Y-6191000D02*
X3346200Y-6445000D01*
X2000000Y-2000000D02*
X8858000Y-2000000D01*
D11*
X2628000Y-10008000D02*
X2668000Y-10048000D01*
X2668000Y-10008000D02*
X2628000Y-10048000D01*
X2693000Y-9755000D02*
X2733000Y-9795000D01*
X2733000Y-9755000D02*
X2693000Y-9795000D01*
X3132000Y-8423000D02*
X3172000Y-8463000D01*
X3172000Y-8423000D02*
X3132000Y-8463000D01*
X3137000Y-7780000D02*
X3177000Y-7820000D01*
X3177000Y-7780000D02*
X3137000Y-7820000D01*
X3228000Y-10009000D02*
X3268000Y-10049000D01*
X3268000Y-10009000D02*
X3228000Y-10049000D01*
X3300000Y-5882000D02*
X3340000Y-5922000D01*
X3340000Y-5882000D02*
X3300000Y-5922000D01*
X3301000Y-8423000D02*
X3341000Y-8463000D01*
X3341000Y-8423000D02*
X3301000Y-8463000D01*
X3301000Y-8423000D02*
X3341000Y-8463000D01*
X3341000Y-8423000D02*
X3301000Y-8463000D01*
X3322000Y-7780000D02*
X3362000Y-7820000D01*
X3362000Y-7780000D02*
X3322000Y-7820000D01*
X3368000Y-9345000D02*
X3408000Y-9385000D01*
X3408000Y-9345000D02*
X3368000Y-9385000D01*
X3514000Y-5723000D02*
X3554000Y-5763000D01*
X3554000Y-5723000D02*
X3514000Y-5763000D01*
X3789000Y-7707000D02*
X3829000Y-7747000D01*
X3829000Y-7707000D02*
X3789000Y-7747000D01*
X3789000Y-7852500D02*
X3829000Y-7892500D01*
X3829000Y-7852500D02*
X3789000Y-7892500D01*
X3822000Y-10001000D02*
X3862000Y-10041000D01*
X3862000Y-10001000D02*
X3822000Y-10041000D01*
X3889000Y-9685000D02*
X3929000Y-9725000D01*
X3929000Y-9685000D02*
X3889000Y-9725000D01*
X4075000Y-5912000D02*
X4115000Y-5952000D01*
X4115000Y-5912000D02*
X4075000Y-5952000D01*
X4431000Y-10005000D02*
X4471000Y-10045000D01*
X4471000Y-10005000D02*
X4431000Y-10045000D01*
X4565000Y-9354000D02*
X4605000Y-9394000D01*
X4605000Y-9354000D02*
X4565000Y-9394000D01*
X4567000Y-4879000D02*
X4607000Y-4919000D01*
X4607000Y-4879000D02*
X4567000Y-4919000D01*
X4567000Y-5051500D02*
X4607000Y-5091500D01*
X4607000Y-5051500D02*
X4567000Y-5091500D01*
X4640000Y-6010000D02*
X4680000Y-6050000D01*
X4680000Y-6010000D02*
X4640000Y-6050000D01*
X4640000Y-6230000D02*
X4680000Y-6270000D01*
X4680000Y-6230000D02*
X4640000Y-6270000D01*
X6044000Y-7635000D02*
X6084000Y-7675000D01*
X6084000Y-7635000D02*
X6044000Y-7675000D01*
X6044000Y-7792500D02*
X6084000Y-7832500D01*
X6084000Y-7792500D02*
X6044000Y-7832500D01*
X6196000Y-7792500D02*
X6236000Y-7832500D01*
X6236000Y-7792500D02*
X6196000Y-7832500D01*
X6213000Y-9036000D02*
X6253000Y-9076000D01*
X6253000Y-9036000D02*
X6213000Y-9076000D01*
X6213000Y-9409000D02*
X6253000Y-9449000D01*
X6253000Y-9409000D02*
X6213000Y-9449000D01*
X6355000Y-5609000D02*
X6395000Y-5649000D01*
X6395000Y-5609000D02*
X6355000Y-5649000D01*
X6356000Y-4486000D02*
X6396000Y-4526000D01*
X6396000Y-4486000D02*
X6356000Y-4526000D01*
X6390000Y-9788000D02*
X6430000Y-9828000D01*
X6430000Y-9788000D02*
X6390000Y-9828000D01*
X7277000Y-9788000D02*
X7317000Y-9828000D01*
X7317000Y-9788000D02*
X7277000Y-9828000D01*
X7611000Y-4455000D02*
X7651000Y-4495000D01*
X7651000Y-4455000D02*
X7611000Y-4495000D01*
X7611000Y-4642000D02*
X7651000Y-4682000D01*
X7651000Y-4642000D02*
X7611000Y-4682000D01*
X7611000Y-5539000D02*
X7651000Y-5579000D01*
X7651000Y-5539000D02*
X7611000Y-5579000D01*
X7611000Y-5850000D02*
X7651000Y-5890000D01*
X7651000Y-5850000D02*
X7611000Y-5890000D01*
X8611000Y-4476000D02*
X8651000Y-4516000D01*
X8651000Y-4476000D02*
X8611000Y-4516000D01*
X8611000Y-4661000D02*
X8651000Y-4701000D01*
X8651000Y-4661000D02*
X8611000Y-4701000D01*
X5268500Y-9036500D02*
G75*
G03X5268500Y-9036500I-25000J0D01*
G01*
X5268500Y-9223500D02*
G75*
G03X5268500Y-9223500I-25000J0D01*
G01*
X6216500Y-7295900D02*
X6216500Y-7372100D01*
X6178400Y-7334000D02*
X6254600Y-7334000D01*
X5286000Y-9961900D02*
X5286000Y-10038100D01*
X5247900Y-10000000D02*
X5324100Y-10000000D01*
X5540000Y-9961900D02*
X5540000Y-10038100D01*
X5501900Y-10000000D02*
X5578100Y-10000000D01*
X5794000Y-9961900D02*
X5794000Y-10038100D01*
X5755900Y-10000000D02*
X5832100Y-10000000D01*
X6493000Y-10381900D02*
X6493000Y-10458100D01*
X6454900Y-10420000D02*
X6531100Y-10420000D01*
X6747000Y-10381900D02*
X6747000Y-10458100D01*
X6708900Y-10420000D02*
X6785100Y-10420000D01*
X8223000Y-9834400D02*
X8223000Y-9910600D01*
X8184900Y-9872500D02*
X8261100Y-9872500D01*
X8477000Y-9834400D02*
X8477000Y-9910600D01*
X8438900Y-9872500D02*
X8515100Y-9872500D01*
X7283000Y-10381900D02*
X7283000Y-10458100D01*
X7244900Y-10420000D02*
X7321100Y-10420000D01*
X7537000Y-10381900D02*
X7537000Y-10458100D01*
X7498900Y-10420000D02*
X7575100Y-10420000D01*
X4897285Y-8154284D02*
X4897285Y-8097715D01*
X4840716Y-8097715D01*
X4840716Y-8154284D01*
X4897285Y-8154284D01*
X4897285Y-8916285D02*
X4897285Y-8859716D01*
X4840716Y-8859716D01*
X4840716Y-8916285D01*
X4897285Y-8916285D01*
X4298285Y-9369285D02*
X4298285Y-9312716D01*
X4241716Y-9312716D01*
X4241716Y-9369285D01*
X4298285Y-9369285D01*
X5060285Y-9369285D02*
X5060285Y-9312716D01*
X5003716Y-9312716D01*
X5003716Y-9369285D01*
X5060285Y-9369285D01*
X7743284Y-9508285D02*
X7743284Y-9451716D01*
X7686715Y-9451716D01*
X7686715Y-9508285D01*
X7743284Y-9508285D01*
X8505285Y-9508285D02*
X8505285Y-9451716D01*
X8448716Y-9451716D01*
X8448716Y-9508285D01*
X8505285Y-9508285D01*
X4898285Y-9709285D02*
X4898285Y-9652716D01*
X4841716Y-9652716D01*
X4841716Y-9709285D01*
X4898285Y-9709285D01*
X5660284Y-9709285D02*
X5660284Y-9652716D01*
X5603715Y-9652716D01*
X5603715Y-9709285D01*
X5660284Y-9709285D01*
X2498285Y-9708285D02*
X2498285Y-9651716D01*
X2441716Y-9651716D01*
X2441716Y-9708285D01*
X2498285Y-9708285D01*
X3260284Y-9708285D02*
X3260284Y-9651716D01*
X3203715Y-9651716D01*
X3203715Y-9708285D01*
X3260284Y-9708285D01*
X3698284Y-9708285D02*
X3698284Y-9651716D01*
X3641715Y-9651716D01*
X3641715Y-9708285D01*
X3698284Y-9708285D01*
X4460285Y-9708285D02*
X4460285Y-9651716D01*
X4403716Y-9651716D01*
X4403716Y-9708285D01*
X4460285Y-9708285D01*
X8507285Y-8134284D02*
X8507285Y-8077715D01*
X8450716Y-8077715D01*
X8450716Y-8134284D01*
X8507285Y-8134284D01*
X8507285Y-8896285D02*
X8507285Y-8839716D01*
X8450716Y-8839716D01*
X8450716Y-8896285D01*
X8507285Y-8896285D01*
X7207284Y-8144284D02*
X7207284Y-8087715D01*
X7150715Y-8087715D01*
X7150715Y-8144284D01*
X7207284Y-8144284D01*
X7207284Y-8394285D02*
X7207284Y-8337715D01*
X7150715Y-8337715D01*
X7150715Y-8394285D01*
X7207284Y-8394285D01*
X5738284Y-6678284D02*
X5738284Y-6621715D01*
X5681715Y-6621715D01*
X5681715Y-6678284D01*
X5738284Y-6678284D01*
X5738284Y-6928284D02*
X5738284Y-6871715D01*
X5681715Y-6871715D01*
X5681715Y-6928284D01*
X5738284Y-6928284D01*
X5907284Y-8144284D02*
X5907284Y-8087715D01*
X5850715Y-8087715D01*
X5850715Y-8144284D01*
X5907284Y-8144284D01*
X5907284Y-8906285D02*
X5907284Y-8849716D01*
X5850715Y-8849716D01*
X5850715Y-8906285D01*
X5907284Y-8906285D01*
X5228285Y-5916284D02*
X5228285Y-5859715D01*
X5171716Y-5859715D01*
X5171716Y-5916284D01*
X5228285Y-5916284D01*
X5228285Y-6678284D02*
X5228285Y-6621715D01*
X5171716Y-6621715D01*
X5171716Y-6678284D01*
X5228285Y-6678284D01*
X4508285Y-5926284D02*
X4508285Y-5869715D01*
X4451716Y-5869715D01*
X4451716Y-5926284D01*
X4508285Y-5926284D01*
X4508285Y-6688284D02*
X4508285Y-6631715D01*
X4451716Y-6631715D01*
X4451716Y-6688284D01*
X4508285Y-6688284D01*
X5507285Y-8152284D02*
X5507285Y-8095715D01*
X5450716Y-8095715D01*
X5450716Y-8152284D01*
X5507285Y-8152284D01*
X5507285Y-8914285D02*
X5507285Y-8857716D01*
X5450716Y-8857716D01*
X5450716Y-8914285D01*
X5507285Y-8914285D01*
X7857284Y-8132284D02*
X7857284Y-8075715D01*
X7800715Y-8075715D01*
X7800715Y-8132284D01*
X7857284Y-8132284D01*
X7857284Y-8894285D02*
X7857284Y-8837716D01*
X7800715Y-8837716D01*
X7800715Y-8894285D01*
X7857284Y-8894285D01*
X5197285Y-8154284D02*
X5197285Y-8097715D01*
X5140716Y-8097715D01*
X5140716Y-8154284D01*
X5197285Y-8154284D01*
X5197285Y-8404285D02*
X5197285Y-8347715D01*
X5140716Y-8347715D01*
X5140716Y-8404285D01*
X5197285Y-8404285D01*
X4868285Y-5918284D02*
X4868285Y-5861715D01*
X4811716Y-5861715D01*
X4811716Y-5918284D01*
X4868285Y-5918284D01*
X4868285Y-6680284D02*
X4868285Y-6623715D01*
X4811716Y-6623715D01*
X4811716Y-6680284D01*
X4868285Y-6680284D01*
X8167284Y-8134284D02*
X8167284Y-8077715D01*
X8110715Y-8077715D01*
X8110715Y-8134284D01*
X8167284Y-8134284D01*
X8167284Y-8384284D02*
X8167284Y-8327715D01*
X8110715Y-8327715D01*
X8110715Y-8384284D01*
X8167284Y-8384284D01*
X7497284Y-8142284D02*
X7497284Y-8085715D01*
X7440715Y-8085715D01*
X7440715Y-8142284D01*
X7497284Y-8142284D01*
X7497284Y-8904285D02*
X7497284Y-8847716D01*
X7440715Y-8847716D01*
X7440715Y-8904285D01*
X7497284Y-8904285D01*
X3097284Y-9371285D02*
X3097284Y-9314716D01*
X3040715Y-9314716D01*
X3040715Y-9371285D01*
X3097284Y-9371285D01*
X3859284Y-9371285D02*
X3859284Y-9314716D01*
X3802715Y-9314716D01*
X3802715Y-9371285D01*
X3859284Y-9371285D01*
X6558284Y-8143284D02*
X6558284Y-8086715D01*
X6501715Y-8086715D01*
X6501715Y-8143284D01*
X6558284Y-8143284D01*
X6558284Y-8905285D02*
X6558284Y-8848716D01*
X6501715Y-8848716D01*
X6501715Y-8905285D01*
X6558284Y-8905285D01*
X6927284Y-8144284D02*
X6927284Y-8087715D01*
X6870715Y-8087715D01*
X6870715Y-8144284D01*
X6927284Y-8144284D01*
X6927284Y-8906285D02*
X6927284Y-8849716D01*
X6870715Y-8849716D01*
X6870715Y-8906285D01*
X6927284Y-8906285D01*
X3196284Y-5728284D02*
X3196284Y-5671715D01*
X3139715Y-5671715D01*
X3139715Y-5728284D01*
X3196284Y-5728284D01*
X3958284Y-5728284D02*
X3958284Y-5671715D01*
X3901715Y-5671715D01*
X3901715Y-5728284D01*
X3958284Y-5728284D01*
X6227284Y-8144284D02*
X6227284Y-8087715D01*
X6170715Y-8087715D01*
X6170715Y-8144284D01*
X6227284Y-8144284D01*
X6227284Y-8394285D02*
X6227284Y-8337715D01*
X6170715Y-8337715D01*
X6170715Y-8394285D01*
X6227284Y-8394285D01*
X2216000Y-10235000D02*
X2261000Y-10190000D01*
X2216000Y-10145000D01*
X2171000Y-10190000D01*
X2216000Y-10235000D01*
X2470000Y-10235000D02*
X2515000Y-10190000D01*
X2470000Y-10145000D01*
X2425000Y-10190000D01*
X2470000Y-10235000D01*
X4016000Y-10235000D02*
X4061000Y-10190000D01*
X4016000Y-10145000D01*
X3971000Y-10190000D01*
X4016000Y-10235000D01*
X4270000Y-10235000D02*
X4315000Y-10190000D01*
X4270000Y-10145000D01*
X4225000Y-10190000D01*
X4270000Y-10235000D01*
X4616000Y-10235000D02*
X4661000Y-10190000D01*
X4616000Y-10145000D01*
X4571000Y-10190000D01*
X4616000Y-10235000D01*
X4870000Y-10235000D02*
X4915000Y-10190000D01*
X4870000Y-10145000D01*
X4825000Y-10190000D01*
X4870000Y-10235000D01*
X2816000Y-10235000D02*
X2861000Y-10190000D01*
X2816000Y-10145000D01*
X2771000Y-10190000D01*
X2816000Y-10235000D01*
X3070000Y-10235000D02*
X3115000Y-10190000D01*
X3070000Y-10145000D01*
X3025000Y-10190000D01*
X3070000Y-10235000D01*
X3416000Y-10235000D02*
X3461000Y-10190000D01*
X3416000Y-10145000D01*
X3371000Y-10190000D01*
X3416000Y-10235000D01*
X3670000Y-10235000D02*
X3715000Y-10190000D01*
X3670000Y-10145000D01*
X3625000Y-10190000D01*
X3670000Y-10235000D01*
X2293000Y-8046000D02*
X2393000Y-8146000D01*
X2393000Y-8046000D02*
X2293000Y-8146000D01*
X2393000Y-8096000D02*
G75*
G03X2393000Y-8096000I-50000J0D01*
G01*
X2547000Y-8046000D02*
X2647000Y-8146000D01*
X2647000Y-8046000D02*
X2547000Y-8146000D01*
X2647000Y-8096000D02*
G75*
G03X2647000Y-8096000I-50000J0D01*
G01*
X2801000Y-8046000D02*
X2901000Y-8146000D01*
X2901000Y-8046000D02*
X2801000Y-8146000D01*
X2901000Y-8096000D02*
G75*
G03X2901000Y-8096000I-50000J0D01*
G01*
X3055000Y-8046000D02*
X3155000Y-8146000D01*
X3155000Y-8046000D02*
X3055000Y-8146000D01*
X3155000Y-8096000D02*
G75*
G03X3155000Y-8096000I-50000J0D01*
G01*
X3309000Y-8046000D02*
X3409000Y-8146000D01*
X3409000Y-8046000D02*
X3309000Y-8146000D01*
X3409000Y-8096000D02*
G75*
G03X3409000Y-8096000I-50000J0D01*
G01*
X3563000Y-8046000D02*
X3663000Y-8146000D01*
X3663000Y-8046000D02*
X3563000Y-8146000D01*
X3663000Y-8096000D02*
G75*
G03X3663000Y-8096000I-50000J0D01*
G01*
X3929000Y-8046000D02*
X4029000Y-8146000D01*
X4029000Y-8046000D02*
X3929000Y-8146000D01*
X4029000Y-8096000D02*
G75*
G03X4029000Y-8096000I-50000J0D01*
G01*
X4183000Y-8046000D02*
X4283000Y-8146000D01*
X4283000Y-8046000D02*
X4183000Y-8146000D01*
X4283000Y-8096000D02*
G75*
G03X4283000Y-8096000I-50000J0D01*
G01*
X8450000Y-3096000D02*
X8550000Y-3196000D01*
X8550000Y-3096000D02*
X8450000Y-3196000D01*
X8550000Y-3146000D02*
G75*
G03X8550000Y-3146000I-50000J0D01*
G01*
X8450000Y-3350000D02*
X8550000Y-3450000D01*
X8550000Y-3350000D02*
X8450000Y-3450000D01*
X8550000Y-3400000D02*
G75*
G03X8550000Y-3400000I-50000J0D01*
G01*
X8450000Y-2296000D02*
X8550000Y-2396000D01*
X8550000Y-2296000D02*
X8450000Y-2396000D01*
X8550000Y-2346000D02*
G75*
G03X8550000Y-2346000I-50000J0D01*
G01*
X8450000Y-2550000D02*
X8550000Y-2650000D01*
X8550000Y-2550000D02*
X8450000Y-2650000D01*
X8550000Y-2600000D02*
G75*
G03X8550000Y-2600000I-50000J0D01*
G01*
X2864500Y-5252000D02*
X2964500Y-5352000D01*
X2964500Y-5252000D02*
X2864500Y-5352000D01*
X2964500Y-5302000D02*
G75*
G03X2964500Y-5302000I-50000J0D01*
G01*
X2864500Y-7284000D02*
X2964500Y-7384000D01*
X2964500Y-7284000D02*
X2864500Y-7384000D01*
X2964500Y-7334000D02*
G75*
G03X2964500Y-7334000I-50000J0D01*
G01*
X3118500Y-5252000D02*
X3218500Y-5352000D01*
X3218500Y-5252000D02*
X3118500Y-5352000D01*
X3218500Y-5302000D02*
G75*
G03X3218500Y-5302000I-50000J0D01*
G01*
X3118500Y-7284000D02*
X3218500Y-7384000D01*
X3218500Y-7284000D02*
X3118500Y-7384000D01*
X3218500Y-7334000D02*
G75*
G03X3218500Y-7334000I-50000J0D01*
G01*
X3372500Y-5252000D02*
X3472500Y-5352000D01*
X3472500Y-5252000D02*
X3372500Y-5352000D01*
X3472500Y-5302000D02*
G75*
G03X3472500Y-5302000I-50000J0D01*
G01*
X3372500Y-7284000D02*
X3472500Y-7384000D01*
X3472500Y-7284000D02*
X3372500Y-7384000D01*
X3472500Y-7334000D02*
G75*
G03X3472500Y-7334000I-50000J0D01*
G01*
X3626500Y-5252000D02*
X3726500Y-5352000D01*
X3726500Y-5252000D02*
X3626500Y-5352000D01*
X3726500Y-5302000D02*
G75*
G03X3726500Y-5302000I-50000J0D01*
G01*
X3626500Y-7284000D02*
X3726500Y-7384000D01*
X3726500Y-7284000D02*
X3626500Y-7384000D01*
X3726500Y-7334000D02*
G75*
G03X3726500Y-7334000I-50000J0D01*
G01*
X3880500Y-5252000D02*
X3980500Y-5352000D01*
X3980500Y-5252000D02*
X3880500Y-5352000D01*
X3980500Y-5302000D02*
G75*
G03X3980500Y-5302000I-50000J0D01*
G01*
X3880500Y-7284000D02*
X3980500Y-7384000D01*
X3980500Y-7284000D02*
X3880500Y-7384000D01*
X3980500Y-7334000D02*
G75*
G03X3980500Y-7334000I-50000J0D01*
G01*
X4134500Y-5252000D02*
X4234500Y-5352000D01*
X4234500Y-5252000D02*
X4134500Y-5352000D01*
X4234500Y-5302000D02*
G75*
G03X4234500Y-5302000I-50000J0D01*
G01*
X4134500Y-7284000D02*
X4234500Y-7384000D01*
X4234500Y-7284000D02*
X4134500Y-7384000D01*
X4234500Y-7334000D02*
G75*
G03X4234500Y-7334000I-50000J0D01*
G01*
X4388500Y-5252000D02*
X4488500Y-5352000D01*
X4488500Y-5252000D02*
X4388500Y-5352000D01*
X4488500Y-5302000D02*
G75*
G03X4488500Y-5302000I-50000J0D01*
G01*
X4388500Y-7284000D02*
X4488500Y-7384000D01*
X4488500Y-7284000D02*
X4388500Y-7384000D01*
X4488500Y-7334000D02*
G75*
G03X4488500Y-7334000I-50000J0D01*
G01*
X4642500Y-5252000D02*
X4742500Y-5352000D01*
X4742500Y-5252000D02*
X4642500Y-5352000D01*
X4742500Y-5302000D02*
G75*
G03X4742500Y-5302000I-50000J0D01*
G01*
X4642500Y-7284000D02*
X4742500Y-7384000D01*
X4742500Y-7284000D02*
X4642500Y-7384000D01*
X4742500Y-7334000D02*
G75*
G03X4742500Y-7334000I-50000J0D01*
G01*
X4896500Y-5252000D02*
X4996500Y-5352000D01*
X4996500Y-5252000D02*
X4896500Y-5352000D01*
X4996500Y-5302000D02*
G75*
G03X4996500Y-5302000I-50000J0D01*
G01*
X4896500Y-7284000D02*
X4996500Y-7384000D01*
X4996500Y-7284000D02*
X4896500Y-7384000D01*
X4996500Y-7334000D02*
G75*
G03X4996500Y-7334000I-50000J0D01*
G01*
X5150500Y-5252000D02*
X5250500Y-5352000D01*
X5250500Y-5252000D02*
X5150500Y-5352000D01*
X5250500Y-5302000D02*
G75*
G03X5250500Y-5302000I-50000J0D01*
G01*
X5150500Y-7284000D02*
X5250500Y-7384000D01*
X5250500Y-7284000D02*
X5150500Y-7384000D01*
X5250500Y-7334000D02*
G75*
G03X5250500Y-7334000I-50000J0D01*
G01*
X5404500Y-5252000D02*
X5504500Y-5352000D01*
X5504500Y-5252000D02*
X5404500Y-5352000D01*
X5504500Y-5302000D02*
G75*
G03X5504500Y-5302000I-50000J0D01*
G01*
X5404500Y-7284000D02*
X5504500Y-7384000D01*
X5504500Y-7284000D02*
X5404500Y-7384000D01*
X5504500Y-7334000D02*
G75*
G03X5504500Y-7334000I-50000J0D01*
G01*
X5658500Y-5252000D02*
X5758500Y-5352000D01*
X5758500Y-5252000D02*
X5658500Y-5352000D01*
X5758500Y-5302000D02*
G75*
G03X5758500Y-5302000I-50000J0D01*
G01*
X5658500Y-7284000D02*
X5758500Y-7384000D01*
X5758500Y-7284000D02*
X5658500Y-7384000D01*
X5758500Y-7334000D02*
G75*
G03X5758500Y-7334000I-50000J0D01*
G01*
X5912500Y-5252000D02*
X6012500Y-5352000D01*
X6012500Y-5252000D02*
X5912500Y-5352000D01*
X6012500Y-5302000D02*
G75*
G03X6012500Y-5302000I-50000J0D01*
G01*
X5912500Y-7284000D02*
X6012500Y-7384000D01*
X6012500Y-7284000D02*
X5912500Y-7384000D01*
X6012500Y-7334000D02*
G75*
G03X6012500Y-7334000I-50000J0D01*
G01*
X6166500Y-5252000D02*
X6266500Y-5352000D01*
X6266500Y-5252000D02*
X6166500Y-5352000D01*
X6266500Y-5302000D02*
G75*
G03X6266500Y-5302000I-50000J0D01*
G01*
X8450000Y-3896000D02*
X8550000Y-3996000D01*
X8550000Y-3896000D02*
X8450000Y-3996000D01*
X8550000Y-3946000D02*
G75*
G03X8550000Y-3946000I-50000J0D01*
G01*
X8450000Y-4150000D02*
X8550000Y-4250000D01*
X8550000Y-4150000D02*
X8450000Y-4250000D01*
X8550000Y-4200000D02*
G75*
G03X8550000Y-4200000I-50000J0D01*
G01*
D12*
X2281428Y-11106714D02*
X2281428Y-10806714D01*
X2352857Y-10806714D01*
X2395714Y-10821000D01*
X2424286Y-10849572D01*
X2438571Y-10878143D01*
X2452857Y-10935286D01*
X2452857Y-10978143D01*
X2438571Y-11035286D01*
X2424286Y-11063857D01*
X2395714Y-11092429D01*
X2352857Y-11106714D01*
X2281428Y-11106714D01*
X2581428Y-11106714D02*
X2581428Y-10906714D01*
X2581428Y-10963857D02*
X2595714Y-10935286D01*
X2610000Y-10921000D01*
X2638571Y-10906714D01*
X2667143Y-10906714D01*
X2767143Y-11106714D02*
X2767143Y-10906714D01*
X2767143Y-10806714D02*
X2752857Y-10821000D01*
X2767143Y-10835286D01*
X2781428Y-10821000D01*
X2767143Y-10806714D01*
X2767143Y-10835286D01*
X2952857Y-11106714D02*
X2924286Y-11092429D01*
X2910000Y-11063857D01*
X2910000Y-10806714D01*
X3110000Y-11106714D02*
X3081428Y-11092429D01*
X3067143Y-11063857D01*
X3067143Y-10806714D01*
X3452857Y-11106714D02*
X3452857Y-10806714D01*
X3552857Y-11021000D01*
X3652857Y-10806714D01*
X3652857Y-11106714D01*
X3924286Y-11106714D02*
X3924286Y-10949572D01*
X3910000Y-10921000D01*
X3881428Y-10906714D01*
X3824286Y-10906714D01*
X3795714Y-10921000D01*
X3924286Y-11092429D02*
X3895714Y-11106714D01*
X3824286Y-11106714D01*
X3795714Y-11092429D01*
X3781428Y-11063857D01*
X3781428Y-11035286D01*
X3795714Y-11006714D01*
X3824286Y-10992429D01*
X3895714Y-10992429D01*
X3924286Y-10978143D01*
X4067143Y-10906714D02*
X4067143Y-11206714D01*
X4067143Y-10921000D02*
X4095714Y-10906714D01*
X4152857Y-10906714D01*
X4181428Y-10921000D01*
X4195714Y-10935286D01*
X4210000Y-10963857D01*
X4210000Y-11049572D01*
X4195714Y-11078143D01*
X4181428Y-11092429D01*
X4152857Y-11106714D01*
X4095714Y-11106714D01*
X4067143Y-11092429D01*
X4338571Y-11078143D02*
X4352857Y-11092429D01*
X4338571Y-11106714D01*
X4324286Y-11092429D01*
X4338571Y-11078143D01*
X4338571Y-11106714D01*
X4338571Y-10921000D02*
X4352857Y-10935286D01*
X4338571Y-10949572D01*
X4324286Y-10935286D01*
X4338571Y-10921000D01*
X4338571Y-10949572D01*
X1955000Y-11581000D02*
X1995000Y-11621000D01*
X1995000Y-11581000D02*
X1955000Y-11621000D01*
X2338571Y-11436714D02*
X2367143Y-11436714D01*
X2395714Y-11451000D01*
X2410000Y-11465286D01*
X2424286Y-11493857D01*
X2438571Y-11551000D01*
X2438571Y-11622429D01*
X2424286Y-11679571D01*
X2410000Y-11708143D01*
X2395714Y-11722429D01*
X2367143Y-11736714D01*
X2338571Y-11736714D01*
X2310000Y-11722429D01*
X2295714Y-11708143D01*
X2281428Y-11679571D01*
X2267143Y-11622429D01*
X2267143Y-11551000D01*
X2281428Y-11493857D01*
X2295714Y-11465286D01*
X2310000Y-11451000D01*
X2338571Y-11436714D01*
X2567143Y-11708143D02*
X2581428Y-11722429D01*
X2567143Y-11736714D01*
X2552857Y-11722429D01*
X2567143Y-11708143D01*
X2567143Y-11736714D01*
X2838571Y-11536714D02*
X2838571Y-11736714D01*
X2767143Y-11422429D02*
X2695714Y-11636714D01*
X2881428Y-11636714D01*
X3052857Y-11436714D02*
X3081428Y-11436714D01*
X3110000Y-11451000D01*
X3124286Y-11465286D01*
X3138571Y-11493857D01*
X3152857Y-11551000D01*
X3152857Y-11622429D01*
X3138571Y-11679571D01*
X3124286Y-11708143D01*
X3110000Y-11722429D01*
X3081428Y-11736714D01*
X3052857Y-11736714D01*
X3024286Y-11722429D01*
X3010000Y-11708143D01*
X2995714Y-11679571D01*
X2981428Y-11622429D01*
X2981428Y-11551000D01*
X2995714Y-11493857D01*
X3010000Y-11465286D01*
X3024286Y-11451000D01*
X3052857Y-11436714D01*
X3281428Y-11736714D02*
X3281428Y-11536714D01*
X3281428Y-11565286D02*
X3295714Y-11551000D01*
X3324286Y-11536714D01*
X3367143Y-11536714D01*
X3395714Y-11551000D01*
X3410000Y-11579571D01*
X3410000Y-11736714D01*
X3410000Y-11579571D02*
X3424286Y-11551000D01*
X3452857Y-11536714D01*
X3495714Y-11536714D01*
X3524286Y-11551000D01*
X3538571Y-11579571D01*
X3538571Y-11736714D01*
X3681428Y-11736714D02*
X3681428Y-11536714D01*
X3681428Y-11565286D02*
X3695714Y-11551000D01*
X3724286Y-11536714D01*
X3767143Y-11536714D01*
X3795714Y-11551000D01*
X3810000Y-11579571D01*
X3810000Y-11736714D01*
X3810000Y-11579571D02*
X3824286Y-11551000D01*
X3852857Y-11536714D01*
X3895714Y-11536714D01*
X3924286Y-11551000D01*
X3938571Y-11579571D01*
X3938571Y-11736714D01*
X4524286Y-11422429D02*
X4267143Y-11808143D01*
X4910000Y-11436714D02*
X4938571Y-11436714D01*
X4967143Y-11451000D01*
X4981428Y-11465286D01*
X4995714Y-11493857D01*
X5010000Y-11551000D01*
X5010000Y-11622429D01*
X4995714Y-11679571D01*
X4981428Y-11708143D01*
X4967143Y-11722429D01*
X4938571Y-11736714D01*
X4910000Y-11736714D01*
X4881428Y-11722429D01*
X4867143Y-11708143D01*
X4852857Y-11679571D01*
X4838571Y-11622429D01*
X4838571Y-11551000D01*
X4852857Y-11493857D01*
X4867143Y-11465286D01*
X4881428Y-11451000D01*
X4910000Y-11436714D01*
X5138571Y-11708143D02*
X5152857Y-11722429D01*
X5138571Y-11736714D01*
X5124286Y-11722429D01*
X5138571Y-11708143D01*
X5138571Y-11736714D01*
X5338571Y-11436714D02*
X5367143Y-11436714D01*
X5395714Y-11451000D01*
X5410000Y-11465286D01*
X5424286Y-11493857D01*
X5438571Y-11551000D01*
X5438571Y-11622429D01*
X5424286Y-11679571D01*
X5410000Y-11708143D01*
X5395714Y-11722429D01*
X5367143Y-11736714D01*
X5338571Y-11736714D01*
X5310000Y-11722429D01*
X5295714Y-11708143D01*
X5281428Y-11679571D01*
X5267143Y-11622429D01*
X5267143Y-11551000D01*
X5281428Y-11493857D01*
X5295714Y-11465286D01*
X5310000Y-11451000D01*
X5338571Y-11436714D01*
X5724286Y-11736714D02*
X5552857Y-11736714D01*
X5638571Y-11736714D02*
X5638571Y-11436714D01*
X5610000Y-11479571D01*
X5581428Y-11508143D01*
X5552857Y-11522429D01*
X5981428Y-11436714D02*
X5924286Y-11436714D01*
X5895714Y-11451000D01*
X5881428Y-11465286D01*
X5852857Y-11508143D01*
X5838571Y-11565286D01*
X5838571Y-11679571D01*
X5852857Y-11708143D01*
X5867143Y-11722429D01*
X5895714Y-11736714D01*
X5952857Y-11736714D01*
X5981428Y-11722429D01*
X5995714Y-11708143D01*
X6010000Y-11679571D01*
X6010000Y-11608143D01*
X5995714Y-11579571D01*
X5981428Y-11565286D01*
X5952857Y-11551000D01*
X5895714Y-11551000D01*
X5867143Y-11565286D01*
X5852857Y-11579571D01*
X5838571Y-11608143D01*
X6124286Y-11436714D02*
X6124286Y-11493857D01*
X6238571Y-11436714D02*
X6238571Y-11493857D01*
X6681428Y-11851000D02*
X6667143Y-11836714D01*
X6638571Y-11793857D01*
X6624286Y-11765286D01*
X6610000Y-11722429D01*
X6595714Y-11651000D01*
X6595714Y-11593857D01*
X6610000Y-11522429D01*
X6624286Y-11479571D01*
X6638571Y-11451000D01*
X6667143Y-11408143D01*
X6681428Y-11393857D01*
X6767143Y-11436714D02*
X6952857Y-11436714D01*
X6852857Y-11551000D01*
X6895714Y-11551000D01*
X6924286Y-11565286D01*
X6938571Y-11579571D01*
X6952857Y-11608143D01*
X6952857Y-11679571D01*
X6938571Y-11708143D01*
X6924286Y-11722429D01*
X6895714Y-11736714D01*
X6810000Y-11736714D01*
X6781428Y-11722429D01*
X6767143Y-11708143D01*
X7052857Y-11436714D02*
X7252857Y-11436714D01*
X7124286Y-11736714D01*
X7595714Y-11736714D02*
X7595714Y-11436714D01*
X7724286Y-11736714D02*
X7724286Y-11579571D01*
X7710000Y-11551000D01*
X7681428Y-11536714D01*
X7638571Y-11536714D01*
X7610000Y-11551000D01*
X7595714Y-11565286D01*
X7910000Y-11736714D02*
X7881428Y-11722429D01*
X7867143Y-11708143D01*
X7852857Y-11679571D01*
X7852857Y-11593857D01*
X7867143Y-11565286D01*
X7881428Y-11551000D01*
X7910000Y-11536714D01*
X7952857Y-11536714D01*
X7981428Y-11551000D01*
X7995714Y-11565286D01*
X8010000Y-11593857D01*
X8010000Y-11679571D01*
X7995714Y-11708143D01*
X7981428Y-11722429D01*
X7952857Y-11736714D01*
X7910000Y-11736714D01*
X8181428Y-11736714D02*
X8152857Y-11722429D01*
X8138571Y-11693857D01*
X8138571Y-11436714D01*
X8410000Y-11722429D02*
X8381428Y-11736714D01*
X8324286Y-11736714D01*
X8295714Y-11722429D01*
X8281428Y-11693857D01*
X8281428Y-11579571D01*
X8295714Y-11551000D01*
X8324286Y-11536714D01*
X8381428Y-11536714D01*
X8410000Y-11551000D01*
X8424286Y-11579571D01*
X8424286Y-11608143D01*
X8281428Y-11636714D01*
X8538571Y-11722429D02*
X8567143Y-11736714D01*
X8624286Y-11736714D01*
X8652857Y-11722429D01*
X8667143Y-11693857D01*
X8667143Y-11679571D01*
X8652857Y-11651000D01*
X8624286Y-11636714D01*
X8581428Y-11636714D01*
X8552857Y-11622429D01*
X8538571Y-11593857D01*
X8538571Y-11579571D01*
X8552857Y-11551000D01*
X8581428Y-11536714D01*
X8624286Y-11536714D01*
X8652857Y-11551000D01*
X8767143Y-11851000D02*
X8781428Y-11836714D01*
X8810000Y-11793857D01*
X8824286Y-11765286D01*
X8838571Y-11722429D01*
X8852857Y-11651000D01*
X8852857Y-11593857D01*
X8838571Y-11522429D01*
X8824286Y-11479571D01*
X8810000Y-11451000D01*
X8781428Y-11408143D01*
X8767143Y-11393857D01*
X1995000Y-11997000D02*
G75*
G03X1995000Y-11997000I-25000J0D01*
G01*
X2338571Y-11832714D02*
X2367143Y-11832714D01*
X2395714Y-11847000D01*
X2410000Y-11861286D01*
X2424286Y-11889857D01*
X2438571Y-11947000D01*
X2438571Y-12018429D01*
X2424286Y-12075571D01*
X2410000Y-12104143D01*
X2395714Y-12118429D01*
X2367143Y-12132714D01*
X2338571Y-12132714D01*
X2310000Y-12118429D01*
X2295714Y-12104143D01*
X2281428Y-12075571D01*
X2267143Y-12018429D01*
X2267143Y-11947000D01*
X2281428Y-11889857D01*
X2295714Y-11861286D01*
X2310000Y-11847000D01*
X2338571Y-11832714D01*
X2567143Y-12104143D02*
X2581428Y-12118429D01*
X2567143Y-12132714D01*
X2552857Y-12118429D01*
X2567143Y-12104143D01*
X2567143Y-12132714D01*
X2852857Y-11832714D02*
X2710000Y-11832714D01*
X2695714Y-11975571D01*
X2710000Y-11961286D01*
X2738571Y-11947000D01*
X2810000Y-11947000D01*
X2838571Y-11961286D01*
X2852857Y-11975571D01*
X2867143Y-12004143D01*
X2867143Y-12075571D01*
X2852857Y-12104143D01*
X2838571Y-12118429D01*
X2810000Y-12132714D01*
X2738571Y-12132714D01*
X2710000Y-12118429D01*
X2695714Y-12104143D01*
X3052857Y-11832714D02*
X3081428Y-11832714D01*
X3110000Y-11847000D01*
X3124286Y-11861286D01*
X3138571Y-11889857D01*
X3152857Y-11947000D01*
X3152857Y-12018429D01*
X3138571Y-12075571D01*
X3124286Y-12104143D01*
X3110000Y-12118429D01*
X3081428Y-12132714D01*
X3052857Y-12132714D01*
X3024286Y-12118429D01*
X3010000Y-12104143D01*
X2995714Y-12075571D01*
X2981428Y-12018429D01*
X2981428Y-11947000D01*
X2995714Y-11889857D01*
X3010000Y-11861286D01*
X3024286Y-11847000D01*
X3052857Y-11832714D01*
X3281428Y-12132714D02*
X3281428Y-11932714D01*
X3281428Y-11961286D02*
X3295714Y-11947000D01*
X3324286Y-11932714D01*
X3367143Y-11932714D01*
X3395714Y-11947000D01*
X3410000Y-11975571D01*
X3410000Y-12132714D01*
X3410000Y-11975571D02*
X3424286Y-11947000D01*
X3452857Y-11932714D01*
X3495714Y-11932714D01*
X3524286Y-11947000D01*
X3538571Y-11975571D01*
X3538571Y-12132714D01*
X3681428Y-12132714D02*
X3681428Y-11932714D01*
X3681428Y-11961286D02*
X3695714Y-11947000D01*
X3724286Y-11932714D01*
X3767143Y-11932714D01*
X3795714Y-11947000D01*
X3810000Y-11975571D01*
X3810000Y-12132714D01*
X3810000Y-11975571D02*
X3824286Y-11947000D01*
X3852857Y-11932714D01*
X3895714Y-11932714D01*
X3924286Y-11947000D01*
X3938571Y-11975571D01*
X3938571Y-12132714D01*
X4524286Y-11818429D02*
X4267143Y-12204143D01*
X4910000Y-11832714D02*
X4938571Y-11832714D01*
X4967143Y-11847000D01*
X4981428Y-11861286D01*
X4995714Y-11889857D01*
X5010000Y-11947000D01*
X5010000Y-12018429D01*
X4995714Y-12075571D01*
X4981428Y-12104143D01*
X4967143Y-12118429D01*
X4938571Y-12132714D01*
X4910000Y-12132714D01*
X4881428Y-12118429D01*
X4867143Y-12104143D01*
X4852857Y-12075571D01*
X4838571Y-12018429D01*
X4838571Y-11947000D01*
X4852857Y-11889857D01*
X4867143Y-11861286D01*
X4881428Y-11847000D01*
X4910000Y-11832714D01*
X5138571Y-12104143D02*
X5152857Y-12118429D01*
X5138571Y-12132714D01*
X5124286Y-12118429D01*
X5138571Y-12104143D01*
X5138571Y-12132714D01*
X5338571Y-11832714D02*
X5367143Y-11832714D01*
X5395714Y-11847000D01*
X5410000Y-11861286D01*
X5424286Y-11889857D01*
X5438571Y-11947000D01*
X5438571Y-12018429D01*
X5424286Y-12075571D01*
X5410000Y-12104143D01*
X5395714Y-12118429D01*
X5367143Y-12132714D01*
X5338571Y-12132714D01*
X5310000Y-12118429D01*
X5295714Y-12104143D01*
X5281428Y-12075571D01*
X5267143Y-12018429D01*
X5267143Y-11947000D01*
X5281428Y-11889857D01*
X5295714Y-11861286D01*
X5310000Y-11847000D01*
X5338571Y-11832714D01*
X5552857Y-11861286D02*
X5567143Y-11847000D01*
X5595714Y-11832714D01*
X5667143Y-11832714D01*
X5695714Y-11847000D01*
X5710000Y-11861286D01*
X5724286Y-11889857D01*
X5724286Y-11918429D01*
X5710000Y-11961286D01*
X5538571Y-12132714D01*
X5724286Y-12132714D01*
X5910000Y-11832714D02*
X5938571Y-11832714D01*
X5967143Y-11847000D01*
X5981428Y-11861286D01*
X5995714Y-11889857D01*
X6010000Y-11947000D01*
X6010000Y-12018429D01*
X5995714Y-12075571D01*
X5981428Y-12104143D01*
X5967143Y-12118429D01*
X5938571Y-12132714D01*
X5910000Y-12132714D01*
X5881428Y-12118429D01*
X5867143Y-12104143D01*
X5852857Y-12075571D01*
X5838571Y-12018429D01*
X5838571Y-11947000D01*
X5852857Y-11889857D01*
X5867143Y-11861286D01*
X5881428Y-11847000D01*
X5910000Y-11832714D01*
X6124286Y-11832714D02*
X6124286Y-11889857D01*
X6238571Y-11832714D02*
X6238571Y-11889857D01*
X6681428Y-12247000D02*
X6667143Y-12232714D01*
X6638571Y-12189857D01*
X6624286Y-12161286D01*
X6610000Y-12118429D01*
X6595714Y-12047000D01*
X6595714Y-11989857D01*
X6610000Y-11918429D01*
X6624286Y-11875571D01*
X6638571Y-11847000D01*
X6667143Y-11804143D01*
X6681428Y-11789857D01*
X6781428Y-11861286D02*
X6795714Y-11847000D01*
X6824286Y-11832714D01*
X6895714Y-11832714D01*
X6924286Y-11847000D01*
X6938571Y-11861286D01*
X6952857Y-11889857D01*
X6952857Y-11918429D01*
X6938571Y-11961286D01*
X6767143Y-12132714D01*
X6952857Y-12132714D01*
X7310000Y-12132714D02*
X7310000Y-11832714D01*
X7438571Y-12132714D02*
X7438571Y-11975571D01*
X7424286Y-11947000D01*
X7395714Y-11932714D01*
X7352857Y-11932714D01*
X7324286Y-11947000D01*
X7310000Y-11961286D01*
X7624286Y-12132714D02*
X7595714Y-12118429D01*
X7581428Y-12104143D01*
X7567143Y-12075571D01*
X7567143Y-11989857D01*
X7581428Y-11961286D01*
X7595714Y-11947000D01*
X7624286Y-11932714D01*
X7667143Y-11932714D01*
X7695714Y-11947000D01*
X7710000Y-11961286D01*
X7724286Y-11989857D01*
X7724286Y-12075571D01*
X7710000Y-12104143D01*
X7695714Y-12118429D01*
X7667143Y-12132714D01*
X7624286Y-12132714D01*
X7895714Y-12132714D02*
X7867143Y-12118429D01*
X7852857Y-12089857D01*
X7852857Y-11832714D01*
X8124286Y-12118429D02*
X8095714Y-12132714D01*
X8038571Y-12132714D01*
X8010000Y-12118429D01*
X7995714Y-12089857D01*
X7995714Y-11975571D01*
X8010000Y-11947000D01*
X8038571Y-11932714D01*
X8095714Y-11932714D01*
X8124286Y-11947000D01*
X8138571Y-11975571D01*
X8138571Y-12004143D01*
X7995714Y-12032714D01*
X8252857Y-12118429D02*
X8281428Y-12132714D01*
X8338571Y-12132714D01*
X8367143Y-12118429D01*
X8381428Y-12089857D01*
X8381428Y-12075571D01*
X8367143Y-12047000D01*
X8338571Y-12032714D01*
X8295714Y-12032714D01*
X8267143Y-12018429D01*
X8252857Y-11989857D01*
X8252857Y-11975571D01*
X8267143Y-11947000D01*
X8295714Y-11932714D01*
X8338571Y-11932714D01*
X8367143Y-11947000D01*
X8481428Y-12247000D02*
X8495714Y-12232714D01*
X8524286Y-12189857D01*
X8538571Y-12161286D01*
X8552857Y-12118429D01*
X8567143Y-12047000D01*
X8567143Y-11989857D01*
X8552857Y-11918429D01*
X8538571Y-11875571D01*
X8524286Y-11847000D01*
X8495714Y-11804143D01*
X8481428Y-11789857D01*
X1956900Y-12354900D02*
X1956900Y-12431100D01*
X1918800Y-12393000D02*
X1995000Y-12393000D01*
X2338571Y-12228714D02*
X2367143Y-12228714D01*
X2395714Y-12243000D01*
X2410000Y-12257286D01*
X2424286Y-12285857D01*
X2438571Y-12343000D01*
X2438571Y-12414429D01*
X2424286Y-12471571D01*
X2410000Y-12500143D01*
X2395714Y-12514429D01*
X2367143Y-12528714D01*
X2338571Y-12528714D01*
X2310000Y-12514429D01*
X2295714Y-12500143D01*
X2281428Y-12471571D01*
X2267143Y-12414429D01*
X2267143Y-12343000D01*
X2281428Y-12285857D01*
X2295714Y-12257286D01*
X2310000Y-12243000D01*
X2338571Y-12228714D01*
X2567143Y-12500143D02*
X2581428Y-12514429D01*
X2567143Y-12528714D01*
X2552857Y-12514429D01*
X2567143Y-12500143D01*
X2567143Y-12528714D01*
X2681428Y-12228714D02*
X2881428Y-12228714D01*
X2752857Y-12528714D01*
X3124286Y-12228714D02*
X3067143Y-12228714D01*
X3038571Y-12243000D01*
X3024286Y-12257286D01*
X2995714Y-12300143D01*
X2981428Y-12357286D01*
X2981428Y-12471571D01*
X2995714Y-12500143D01*
X3010000Y-12514429D01*
X3038571Y-12528714D01*
X3095714Y-12528714D01*
X3124286Y-12514429D01*
X3138571Y-12500143D01*
X3152857Y-12471571D01*
X3152857Y-12400143D01*
X3138571Y-12371571D01*
X3124286Y-12357286D01*
X3095714Y-12343000D01*
X3038571Y-12343000D01*
X3010000Y-12357286D01*
X2995714Y-12371571D01*
X2981428Y-12400143D01*
X3281428Y-12528714D02*
X3281428Y-12328714D01*
X3281428Y-12357286D02*
X3295714Y-12343000D01*
X3324286Y-12328714D01*
X3367143Y-12328714D01*
X3395714Y-12343000D01*
X3410000Y-12371571D01*
X3410000Y-12528714D01*
X3410000Y-12371571D02*
X3424286Y-12343000D01*
X3452857Y-12328714D01*
X3495714Y-12328714D01*
X3524286Y-12343000D01*
X3538571Y-12371571D01*
X3538571Y-12528714D01*
X3681428Y-12528714D02*
X3681428Y-12328714D01*
X3681428Y-12357286D02*
X3695714Y-12343000D01*
X3724286Y-12328714D01*
X3767143Y-12328714D01*
X3795714Y-12343000D01*
X3810000Y-12371571D01*
X3810000Y-12528714D01*
X3810000Y-12371571D02*
X3824286Y-12343000D01*
X3852857Y-12328714D01*
X3895714Y-12328714D01*
X3924286Y-12343000D01*
X3938571Y-12371571D01*
X3938571Y-12528714D01*
X4524286Y-12214429D02*
X4267143Y-12600143D01*
X4910000Y-12228714D02*
X4938571Y-12228714D01*
X4967143Y-12243000D01*
X4981428Y-12257286D01*
X4995714Y-12285857D01*
X5010000Y-12343000D01*
X5010000Y-12414429D01*
X4995714Y-12471571D01*
X4981428Y-12500143D01*
X4967143Y-12514429D01*
X4938571Y-12528714D01*
X4910000Y-12528714D01*
X4881428Y-12514429D01*
X4867143Y-12500143D01*
X4852857Y-12471571D01*
X4838571Y-12414429D01*
X4838571Y-12343000D01*
X4852857Y-12285857D01*
X4867143Y-12257286D01*
X4881428Y-12243000D01*
X4910000Y-12228714D01*
X5138571Y-12500143D02*
X5152857Y-12514429D01*
X5138571Y-12528714D01*
X5124286Y-12514429D01*
X5138571Y-12500143D01*
X5138571Y-12528714D01*
X5338571Y-12228714D02*
X5367143Y-12228714D01*
X5395714Y-12243000D01*
X5410000Y-12257286D01*
X5424286Y-12285857D01*
X5438571Y-12343000D01*
X5438571Y-12414429D01*
X5424286Y-12471571D01*
X5410000Y-12500143D01*
X5395714Y-12514429D01*
X5367143Y-12528714D01*
X5338571Y-12528714D01*
X5310000Y-12514429D01*
X5295714Y-12500143D01*
X5281428Y-12471571D01*
X5267143Y-12414429D01*
X5267143Y-12343000D01*
X5281428Y-12285857D01*
X5295714Y-12257286D01*
X5310000Y-12243000D01*
X5338571Y-12228714D01*
X5538571Y-12228714D02*
X5724286Y-12228714D01*
X5624286Y-12343000D01*
X5667143Y-12343000D01*
X5695714Y-12357286D01*
X5710000Y-12371571D01*
X5724286Y-12400143D01*
X5724286Y-12471571D01*
X5710000Y-12500143D01*
X5695714Y-12514429D01*
X5667143Y-12528714D01*
X5581428Y-12528714D01*
X5552857Y-12514429D01*
X5538571Y-12500143D01*
X5910000Y-12228714D02*
X5938571Y-12228714D01*
X5967143Y-12243000D01*
X5981428Y-12257286D01*
X5995714Y-12285857D01*
X6010000Y-12343000D01*
X6010000Y-12414429D01*
X5995714Y-12471571D01*
X5981428Y-12500143D01*
X5967143Y-12514429D01*
X5938571Y-12528714D01*
X5910000Y-12528714D01*
X5881428Y-12514429D01*
X5867143Y-12500143D01*
X5852857Y-12471571D01*
X5838571Y-12414429D01*
X5838571Y-12343000D01*
X5852857Y-12285857D01*
X5867143Y-12257286D01*
X5881428Y-12243000D01*
X5910000Y-12228714D01*
X6124286Y-12228714D02*
X6124286Y-12285857D01*
X6238571Y-12228714D02*
X6238571Y-12285857D01*
X6681428Y-12643000D02*
X6667143Y-12628714D01*
X6638571Y-12585857D01*
X6624286Y-12557286D01*
X6610000Y-12514429D01*
X6595714Y-12443000D01*
X6595714Y-12385857D01*
X6610000Y-12314429D01*
X6624286Y-12271571D01*
X6638571Y-12243000D01*
X6667143Y-12200143D01*
X6681428Y-12185857D01*
X6952857Y-12528714D02*
X6781428Y-12528714D01*
X6867143Y-12528714D02*
X6867143Y-12228714D01*
X6838571Y-12271571D01*
X6810000Y-12300143D01*
X6781428Y-12314429D01*
X7138571Y-12228714D02*
X7167143Y-12228714D01*
X7195714Y-12243000D01*
X7210000Y-12257286D01*
X7224286Y-12285857D01*
X7238571Y-12343000D01*
X7238571Y-12414429D01*
X7224286Y-12471571D01*
X7210000Y-12500143D01*
X7195714Y-12514429D01*
X7167143Y-12528714D01*
X7138571Y-12528714D01*
X7110000Y-12514429D01*
X7095714Y-12500143D01*
X7081428Y-12471571D01*
X7067143Y-12414429D01*
X7067143Y-12343000D01*
X7081428Y-12285857D01*
X7095714Y-12257286D01*
X7110000Y-12243000D01*
X7138571Y-12228714D01*
X7595714Y-12528714D02*
X7595714Y-12228714D01*
X7724286Y-12528714D02*
X7724286Y-12371571D01*
X7710000Y-12343000D01*
X7681428Y-12328714D01*
X7638571Y-12328714D01*
X7610000Y-12343000D01*
X7595714Y-12357286D01*
X7910000Y-12528714D02*
X7881428Y-12514429D01*
X7867143Y-12500143D01*
X7852857Y-12471571D01*
X7852857Y-12385857D01*
X7867143Y-12357286D01*
X7881428Y-12343000D01*
X7910000Y-12328714D01*
X7952857Y-12328714D01*
X7981428Y-12343000D01*
X7995714Y-12357286D01*
X8010000Y-12385857D01*
X8010000Y-12471571D01*
X7995714Y-12500143D01*
X7981428Y-12514429D01*
X7952857Y-12528714D01*
X7910000Y-12528714D01*
X8181428Y-12528714D02*
X8152857Y-12514429D01*
X8138571Y-12485857D01*
X8138571Y-12228714D01*
X8410000Y-12514429D02*
X8381428Y-12528714D01*
X8324286Y-12528714D01*
X8295714Y-12514429D01*
X8281428Y-12485857D01*
X8281428Y-12371571D01*
X8295714Y-12343000D01*
X8324286Y-12328714D01*
X8381428Y-12328714D01*
X8410000Y-12343000D01*
X8424286Y-12371571D01*
X8424286Y-12400143D01*
X8281428Y-12428714D01*
X8538571Y-12514429D02*
X8567143Y-12528714D01*
X8624286Y-12528714D01*
X8652857Y-12514429D01*
X8667143Y-12485857D01*
X8667143Y-12471571D01*
X8652857Y-12443000D01*
X8624286Y-12428714D01*
X8581428Y-12428714D01*
X8552857Y-12414429D01*
X8538571Y-12385857D01*
X8538571Y-12371571D01*
X8552857Y-12343000D01*
X8581428Y-12328714D01*
X8624286Y-12328714D01*
X8652857Y-12343000D01*
X8767143Y-12643000D02*
X8781428Y-12628714D01*
X8810000Y-12585857D01*
X8824286Y-12557286D01*
X8838571Y-12514429D01*
X8852857Y-12443000D01*
X8852857Y-12385857D01*
X8838571Y-12314429D01*
X8824286Y-12271571D01*
X8810000Y-12243000D01*
X8781428Y-12200143D01*
X8767143Y-12185857D01*
X1983284Y-12817285D02*
X1983284Y-12760716D01*
X1926715Y-12760716D01*
X1926715Y-12817285D01*
X1983284Y-12817285D01*
X2338571Y-12624714D02*
X2367143Y-12624714D01*
X2395714Y-12639000D01*
X2410000Y-12653286D01*
X2424286Y-12681857D01*
X2438571Y-12739000D01*
X2438571Y-12810429D01*
X2424286Y-12867571D01*
X2410000Y-12896143D01*
X2395714Y-12910429D01*
X2367143Y-12924714D01*
X2338571Y-12924714D01*
X2310000Y-12910429D01*
X2295714Y-12896143D01*
X2281428Y-12867571D01*
X2267143Y-12810429D01*
X2267143Y-12739000D01*
X2281428Y-12681857D01*
X2295714Y-12653286D01*
X2310000Y-12639000D01*
X2338571Y-12624714D01*
X2567143Y-12896143D02*
X2581428Y-12910429D01*
X2567143Y-12924714D01*
X2552857Y-12910429D01*
X2567143Y-12896143D01*
X2567143Y-12924714D01*
X2752857Y-12753286D02*
X2724286Y-12739000D01*
X2710000Y-12724714D01*
X2695714Y-12696143D01*
X2695714Y-12681857D01*
X2710000Y-12653286D01*
X2724286Y-12639000D01*
X2752857Y-12624714D01*
X2810000Y-12624714D01*
X2838571Y-12639000D01*
X2852857Y-12653286D01*
X2867143Y-12681857D01*
X2867143Y-12696143D01*
X2852857Y-12724714D01*
X2838571Y-12739000D01*
X2810000Y-12753286D01*
X2752857Y-12753286D01*
X2724286Y-12767571D01*
X2710000Y-12781857D01*
X2695714Y-12810429D01*
X2695714Y-12867571D01*
X2710000Y-12896143D01*
X2724286Y-12910429D01*
X2752857Y-12924714D01*
X2810000Y-12924714D01*
X2838571Y-12910429D01*
X2852857Y-12896143D01*
X2867143Y-12867571D01*
X2867143Y-12810429D01*
X2852857Y-12781857D01*
X2838571Y-12767571D01*
X2810000Y-12753286D01*
X3052857Y-12624714D02*
X3081428Y-12624714D01*
X3110000Y-12639000D01*
X3124286Y-12653286D01*
X3138571Y-12681857D01*
X3152857Y-12739000D01*
X3152857Y-12810429D01*
X3138571Y-12867571D01*
X3124286Y-12896143D01*
X3110000Y-12910429D01*
X3081428Y-12924714D01*
X3052857Y-12924714D01*
X3024286Y-12910429D01*
X3010000Y-12896143D01*
X2995714Y-12867571D01*
X2981428Y-12810429D01*
X2981428Y-12739000D01*
X2995714Y-12681857D01*
X3010000Y-12653286D01*
X3024286Y-12639000D01*
X3052857Y-12624714D01*
X3281428Y-12924714D02*
X3281428Y-12724714D01*
X3281428Y-12753286D02*
X3295714Y-12739000D01*
X3324286Y-12724714D01*
X3367143Y-12724714D01*
X3395714Y-12739000D01*
X3410000Y-12767571D01*
X3410000Y-12924714D01*
X3410000Y-12767571D02*
X3424286Y-12739000D01*
X3452857Y-12724714D01*
X3495714Y-12724714D01*
X3524286Y-12739000D01*
X3538571Y-12767571D01*
X3538571Y-12924714D01*
X3681428Y-12924714D02*
X3681428Y-12724714D01*
X3681428Y-12753286D02*
X3695714Y-12739000D01*
X3724286Y-12724714D01*
X3767143Y-12724714D01*
X3795714Y-12739000D01*
X3810000Y-12767571D01*
X3810000Y-12924714D01*
X3810000Y-12767571D02*
X3824286Y-12739000D01*
X3852857Y-12724714D01*
X3895714Y-12724714D01*
X3924286Y-12739000D01*
X3938571Y-12767571D01*
X3938571Y-12924714D01*
X4524286Y-12610429D02*
X4267143Y-12996143D01*
X4910000Y-12624714D02*
X4938571Y-12624714D01*
X4967143Y-12639000D01*
X4981428Y-12653286D01*
X4995714Y-12681857D01*
X5010000Y-12739000D01*
X5010000Y-12810429D01*
X4995714Y-12867571D01*
X4981428Y-12896143D01*
X4967143Y-12910429D01*
X4938571Y-12924714D01*
X4910000Y-12924714D01*
X4881428Y-12910429D01*
X4867143Y-12896143D01*
X4852857Y-12867571D01*
X4838571Y-12810429D01*
X4838571Y-12739000D01*
X4852857Y-12681857D01*
X4867143Y-12653286D01*
X4881428Y-12639000D01*
X4910000Y-12624714D01*
X5138571Y-12896143D02*
X5152857Y-12910429D01*
X5138571Y-12924714D01*
X5124286Y-12910429D01*
X5138571Y-12896143D01*
X5138571Y-12924714D01*
X5338571Y-12624714D02*
X5367143Y-12624714D01*
X5395714Y-12639000D01*
X5410000Y-12653286D01*
X5424286Y-12681857D01*
X5438571Y-12739000D01*
X5438571Y-12810429D01*
X5424286Y-12867571D01*
X5410000Y-12896143D01*
X5395714Y-12910429D01*
X5367143Y-12924714D01*
X5338571Y-12924714D01*
X5310000Y-12910429D01*
X5295714Y-12896143D01*
X5281428Y-12867571D01*
X5267143Y-12810429D01*
X5267143Y-12739000D01*
X5281428Y-12681857D01*
X5295714Y-12653286D01*
X5310000Y-12639000D01*
X5338571Y-12624714D01*
X5538571Y-12624714D02*
X5724286Y-12624714D01*
X5624286Y-12739000D01*
X5667143Y-12739000D01*
X5695714Y-12753286D01*
X5710000Y-12767571D01*
X5724286Y-12796143D01*
X5724286Y-12867571D01*
X5710000Y-12896143D01*
X5695714Y-12910429D01*
X5667143Y-12924714D01*
X5581428Y-12924714D01*
X5552857Y-12910429D01*
X5538571Y-12896143D01*
X6010000Y-12924714D02*
X5838571Y-12924714D01*
X5924286Y-12924714D02*
X5924286Y-12624714D01*
X5895714Y-12667571D01*
X5867143Y-12696143D01*
X5838571Y-12710429D01*
X6124286Y-12624714D02*
X6124286Y-12681857D01*
X6238571Y-12624714D02*
X6238571Y-12681857D01*
X6681428Y-13039000D02*
X6667143Y-13024714D01*
X6638571Y-12981857D01*
X6624286Y-12953286D01*
X6610000Y-12910429D01*
X6595714Y-12839000D01*
X6595714Y-12781857D01*
X6610000Y-12710429D01*
X6624286Y-12667571D01*
X6638571Y-12639000D01*
X6667143Y-12596143D01*
X6681428Y-12581857D01*
X6924286Y-12724714D02*
X6924286Y-12924714D01*
X6852857Y-12610429D02*
X6781428Y-12824714D01*
X6967143Y-12824714D01*
X7210000Y-12624714D02*
X7152857Y-12624714D01*
X7124286Y-12639000D01*
X7110000Y-12653286D01*
X7081428Y-12696143D01*
X7067143Y-12753286D01*
X7067143Y-12867571D01*
X7081428Y-12896143D01*
X7095714Y-12910429D01*
X7124286Y-12924714D01*
X7181428Y-12924714D01*
X7210000Y-12910429D01*
X7224286Y-12896143D01*
X7238571Y-12867571D01*
X7238571Y-12796143D01*
X7224286Y-12767571D01*
X7210000Y-12753286D01*
X7181428Y-12739000D01*
X7124286Y-12739000D01*
X7095714Y-12753286D01*
X7081428Y-12767571D01*
X7067143Y-12796143D01*
X7595714Y-12924714D02*
X7595714Y-12624714D01*
X7724286Y-12924714D02*
X7724286Y-12767571D01*
X7710000Y-12739000D01*
X7681428Y-12724714D01*
X7638571Y-12724714D01*
X7610000Y-12739000D01*
X7595714Y-12753286D01*
X7910000Y-12924714D02*
X7881428Y-12910429D01*
X7867143Y-12896143D01*
X7852857Y-12867571D01*
X7852857Y-12781857D01*
X7867143Y-12753286D01*
X7881428Y-12739000D01*
X7910000Y-12724714D01*
X7952857Y-12724714D01*
X7981428Y-12739000D01*
X7995714Y-12753286D01*
X8010000Y-12781857D01*
X8010000Y-12867571D01*
X7995714Y-12896143D01*
X7981428Y-12910429D01*
X7952857Y-12924714D01*
X7910000Y-12924714D01*
X8181428Y-12924714D02*
X8152857Y-12910429D01*
X8138571Y-12881857D01*
X8138571Y-12624714D01*
X8410000Y-12910429D02*
X8381428Y-12924714D01*
X8324286Y-12924714D01*
X8295714Y-12910429D01*
X8281428Y-12881857D01*
X8281428Y-12767571D01*
X8295714Y-12739000D01*
X8324286Y-12724714D01*
X8381428Y-12724714D01*
X8410000Y-12739000D01*
X8424286Y-12767571D01*
X8424286Y-12796143D01*
X8281428Y-12824714D01*
X8538571Y-12910429D02*
X8567143Y-12924714D01*
X8624286Y-12924714D01*
X8652857Y-12910429D01*
X8667143Y-12881857D01*
X8667143Y-12867571D01*
X8652857Y-12839000D01*
X8624286Y-12824714D01*
X8581428Y-12824714D01*
X8552857Y-12810429D01*
X8538571Y-12781857D01*
X8538571Y-12767571D01*
X8552857Y-12739000D01*
X8581428Y-12724714D01*
X8624286Y-12724714D01*
X8652857Y-12739000D01*
X8767143Y-13039000D02*
X8781428Y-13024714D01*
X8810000Y-12981857D01*
X8824286Y-12953286D01*
X8838571Y-12910429D01*
X8852857Y-12839000D01*
X8852857Y-12781857D01*
X8838571Y-12710429D01*
X8824286Y-12667571D01*
X8810000Y-12639000D01*
X8781428Y-12596143D01*
X8767143Y-12581857D01*
X1950000Y-13230000D02*
X1995000Y-13185000D01*
X1950000Y-13140000D01*
X1905000Y-13185000D01*
X1950000Y-13230000D01*
X2338571Y-13020714D02*
X2367143Y-13020714D01*
X2395714Y-13035000D01*
X2410000Y-13049286D01*
X2424286Y-13077857D01*
X2438571Y-13135000D01*
X2438571Y-13206429D01*
X2424286Y-13263571D01*
X2410000Y-13292143D01*
X2395714Y-13306429D01*
X2367143Y-13320714D01*
X2338571Y-13320714D01*
X2310000Y-13306429D01*
X2295714Y-13292143D01*
X2281428Y-13263571D01*
X2267143Y-13206429D01*
X2267143Y-13135000D01*
X2281428Y-13077857D01*
X2295714Y-13049286D01*
X2310000Y-13035000D01*
X2338571Y-13020714D01*
X2567143Y-13292143D02*
X2581428Y-13306429D01*
X2567143Y-13320714D01*
X2552857Y-13306429D01*
X2567143Y-13292143D01*
X2567143Y-13320714D01*
X2724286Y-13320714D02*
X2781428Y-13320714D01*
X2810000Y-13306429D01*
X2824286Y-13292143D01*
X2852857Y-13249286D01*
X2867143Y-13192143D01*
X2867143Y-13077857D01*
X2852857Y-13049286D01*
X2838571Y-13035000D01*
X2810000Y-13020714D01*
X2752857Y-13020714D01*
X2724286Y-13035000D01*
X2710000Y-13049286D01*
X2695714Y-13077857D01*
X2695714Y-13149286D01*
X2710000Y-13177857D01*
X2724286Y-13192143D01*
X2752857Y-13206429D01*
X2810000Y-13206429D01*
X2838571Y-13192143D01*
X2852857Y-13177857D01*
X2867143Y-13149286D01*
X3052857Y-13020714D02*
X3081428Y-13020714D01*
X3110000Y-13035000D01*
X3124286Y-13049286D01*
X3138571Y-13077857D01*
X3152857Y-13135000D01*
X3152857Y-13206429D01*
X3138571Y-13263571D01*
X3124286Y-13292143D01*
X3110000Y-13306429D01*
X3081428Y-13320714D01*
X3052857Y-13320714D01*
X3024286Y-13306429D01*
X3010000Y-13292143D01*
X2995714Y-13263571D01*
X2981428Y-13206429D01*
X2981428Y-13135000D01*
X2995714Y-13077857D01*
X3010000Y-13049286D01*
X3024286Y-13035000D01*
X3052857Y-13020714D01*
X3281428Y-13320714D02*
X3281428Y-13120714D01*
X3281428Y-13149286D02*
X3295714Y-13135000D01*
X3324286Y-13120714D01*
X3367143Y-13120714D01*
X3395714Y-13135000D01*
X3410000Y-13163571D01*
X3410000Y-13320714D01*
X3410000Y-13163571D02*
X3424286Y-13135000D01*
X3452857Y-13120714D01*
X3495714Y-13120714D01*
X3524286Y-13135000D01*
X3538571Y-13163571D01*
X3538571Y-13320714D01*
X3681428Y-13320714D02*
X3681428Y-13120714D01*
X3681428Y-13149286D02*
X3695714Y-13135000D01*
X3724286Y-13120714D01*
X3767143Y-13120714D01*
X3795714Y-13135000D01*
X3810000Y-13163571D01*
X3810000Y-13320714D01*
X3810000Y-13163571D02*
X3824286Y-13135000D01*
X3852857Y-13120714D01*
X3895714Y-13120714D01*
X3924286Y-13135000D01*
X3938571Y-13163571D01*
X3938571Y-13320714D01*
X4524286Y-13006429D02*
X4267143Y-13392143D01*
X4910000Y-13020714D02*
X4938571Y-13020714D01*
X4967143Y-13035000D01*
X4981428Y-13049286D01*
X4995714Y-13077857D01*
X5010000Y-13135000D01*
X5010000Y-13206429D01*
X4995714Y-13263571D01*
X4981428Y-13292143D01*
X4967143Y-13306429D01*
X4938571Y-13320714D01*
X4910000Y-13320714D01*
X4881428Y-13306429D01*
X4867143Y-13292143D01*
X4852857Y-13263571D01*
X4838571Y-13206429D01*
X4838571Y-13135000D01*
X4852857Y-13077857D01*
X4867143Y-13049286D01*
X4881428Y-13035000D01*
X4910000Y-13020714D01*
X5138571Y-13292143D02*
X5152857Y-13306429D01*
X5138571Y-13320714D01*
X5124286Y-13306429D01*
X5138571Y-13292143D01*
X5138571Y-13320714D01*
X5338571Y-13020714D02*
X5367143Y-13020714D01*
X5395714Y-13035000D01*
X5410000Y-13049286D01*
X5424286Y-13077857D01*
X5438571Y-13135000D01*
X5438571Y-13206429D01*
X5424286Y-13263571D01*
X5410000Y-13292143D01*
X5395714Y-13306429D01*
X5367143Y-13320714D01*
X5338571Y-13320714D01*
X5310000Y-13306429D01*
X5295714Y-13292143D01*
X5281428Y-13263571D01*
X5267143Y-13206429D01*
X5267143Y-13135000D01*
X5281428Y-13077857D01*
X5295714Y-13049286D01*
X5310000Y-13035000D01*
X5338571Y-13020714D01*
X5538571Y-13020714D02*
X5724286Y-13020714D01*
X5624286Y-13135000D01*
X5667143Y-13135000D01*
X5695714Y-13149286D01*
X5710000Y-13163571D01*
X5724286Y-13192143D01*
X5724286Y-13263571D01*
X5710000Y-13292143D01*
X5695714Y-13306429D01*
X5667143Y-13320714D01*
X5581428Y-13320714D01*
X5552857Y-13306429D01*
X5538571Y-13292143D01*
X5995714Y-13020714D02*
X5852857Y-13020714D01*
X5838571Y-13163571D01*
X5852857Y-13149286D01*
X5881428Y-13135000D01*
X5952857Y-13135000D01*
X5981428Y-13149286D01*
X5995714Y-13163571D01*
X6010000Y-13192143D01*
X6010000Y-13263571D01*
X5995714Y-13292143D01*
X5981428Y-13306429D01*
X5952857Y-13320714D01*
X5881428Y-13320714D01*
X5852857Y-13306429D01*
X5838571Y-13292143D01*
X6124286Y-13020714D02*
X6124286Y-13077857D01*
X6238571Y-13020714D02*
X6238571Y-13077857D01*
X6681428Y-13435000D02*
X6667143Y-13420714D01*
X6638571Y-13377857D01*
X6624286Y-13349286D01*
X6610000Y-13306429D01*
X6595714Y-13235000D01*
X6595714Y-13177857D01*
X6610000Y-13106429D01*
X6624286Y-13063571D01*
X6638571Y-13035000D01*
X6667143Y-12992143D01*
X6681428Y-12977857D01*
X6952857Y-13320714D02*
X6781428Y-13320714D01*
X6867143Y-13320714D02*
X6867143Y-13020714D01*
X6838571Y-13063571D01*
X6810000Y-13092143D01*
X6781428Y-13106429D01*
X7138571Y-13020714D02*
X7167143Y-13020714D01*
X7195714Y-13035000D01*
X7210000Y-13049286D01*
X7224286Y-13077857D01*
X7238571Y-13135000D01*
X7238571Y-13206429D01*
X7224286Y-13263571D01*
X7210000Y-13292143D01*
X7195714Y-13306429D01*
X7167143Y-13320714D01*
X7138571Y-13320714D01*
X7110000Y-13306429D01*
X7095714Y-13292143D01*
X7081428Y-13263571D01*
X7067143Y-13206429D01*
X7067143Y-13135000D01*
X7081428Y-13077857D01*
X7095714Y-13049286D01*
X7110000Y-13035000D01*
X7138571Y-13020714D01*
X7595714Y-13320714D02*
X7595714Y-13020714D01*
X7724286Y-13320714D02*
X7724286Y-13163571D01*
X7710000Y-13135000D01*
X7681428Y-13120714D01*
X7638571Y-13120714D01*
X7610000Y-13135000D01*
X7595714Y-13149286D01*
X7910000Y-13320714D02*
X7881428Y-13306429D01*
X7867143Y-13292143D01*
X7852857Y-13263571D01*
X7852857Y-13177857D01*
X7867143Y-13149286D01*
X7881428Y-13135000D01*
X7910000Y-13120714D01*
X7952857Y-13120714D01*
X7981428Y-13135000D01*
X7995714Y-13149286D01*
X8010000Y-13177857D01*
X8010000Y-13263571D01*
X7995714Y-13292143D01*
X7981428Y-13306429D01*
X7952857Y-13320714D01*
X7910000Y-13320714D01*
X8181428Y-13320714D02*
X8152857Y-13306429D01*
X8138571Y-13277857D01*
X8138571Y-13020714D01*
X8410000Y-13306429D02*
X8381428Y-13320714D01*
X8324286Y-13320714D01*
X8295714Y-13306429D01*
X8281428Y-13277857D01*
X8281428Y-13163571D01*
X8295714Y-13135000D01*
X8324286Y-13120714D01*
X8381428Y-13120714D01*
X8410000Y-13135000D01*
X8424286Y-13163571D01*
X8424286Y-13192143D01*
X8281428Y-13220714D01*
X8538571Y-13306429D02*
X8567143Y-13320714D01*
X8624286Y-13320714D01*
X8652857Y-13306429D01*
X8667143Y-13277857D01*
X8667143Y-13263571D01*
X8652857Y-13235000D01*
X8624286Y-13220714D01*
X8581428Y-13220714D01*
X8552857Y-13206429D01*
X8538571Y-13177857D01*
X8538571Y-13163571D01*
X8552857Y-13135000D01*
X8581428Y-13120714D01*
X8624286Y-13120714D01*
X8652857Y-13135000D01*
X8767143Y-13435000D02*
X8781428Y-13420714D01*
X8810000Y-13377857D01*
X8824286Y-13349286D01*
X8838571Y-13306429D01*
X8852857Y-13235000D01*
X8852857Y-13177857D01*
X8838571Y-13106429D01*
X8824286Y-13063571D01*
X8810000Y-13035000D01*
X8781428Y-12992143D01*
X8767143Y-12977857D01*
X1895000Y-13531000D02*
X1995000Y-13631000D01*
X1995000Y-13531000D02*
X1895000Y-13631000D01*
X1995000Y-13581000D02*
G75*
G03X1995000Y-13581000I-50000J0D01*
G01*
X2438571Y-13716714D02*
X2267143Y-13716714D01*
X2352857Y-13716714D02*
X2352857Y-13416714D01*
X2324286Y-13459571D01*
X2295714Y-13488143D01*
X2267143Y-13502429D01*
X2567143Y-13688143D02*
X2581428Y-13702429D01*
X2567143Y-13716714D01*
X2552857Y-13702429D01*
X2567143Y-13688143D01*
X2567143Y-13716714D01*
X2767143Y-13416714D02*
X2795714Y-13416714D01*
X2824286Y-13431000D01*
X2838571Y-13445286D01*
X2852857Y-13473857D01*
X2867143Y-13531000D01*
X2867143Y-13602429D01*
X2852857Y-13659571D01*
X2838571Y-13688143D01*
X2824286Y-13702429D01*
X2795714Y-13716714D01*
X2767143Y-13716714D01*
X2738571Y-13702429D01*
X2724286Y-13688143D01*
X2710000Y-13659571D01*
X2695714Y-13602429D01*
X2695714Y-13531000D01*
X2710000Y-13473857D01*
X2724286Y-13445286D01*
X2738571Y-13431000D01*
X2767143Y-13416714D01*
X3052857Y-13416714D02*
X3081428Y-13416714D01*
X3110000Y-13431000D01*
X3124286Y-13445286D01*
X3138571Y-13473857D01*
X3152857Y-13531000D01*
X3152857Y-13602429D01*
X3138571Y-13659571D01*
X3124286Y-13688143D01*
X3110000Y-13702429D01*
X3081428Y-13716714D01*
X3052857Y-13716714D01*
X3024286Y-13702429D01*
X3010000Y-13688143D01*
X2995714Y-13659571D01*
X2981428Y-13602429D01*
X2981428Y-13531000D01*
X2995714Y-13473857D01*
X3010000Y-13445286D01*
X3024286Y-13431000D01*
X3052857Y-13416714D01*
X3281428Y-13716714D02*
X3281428Y-13516714D01*
X3281428Y-13545286D02*
X3295714Y-13531000D01*
X3324286Y-13516714D01*
X3367143Y-13516714D01*
X3395714Y-13531000D01*
X3410000Y-13559571D01*
X3410000Y-13716714D01*
X3410000Y-13559571D02*
X3424286Y-13531000D01*
X3452857Y-13516714D01*
X3495714Y-13516714D01*
X3524286Y-13531000D01*
X3538571Y-13559571D01*
X3538571Y-13716714D01*
X3681428Y-13716714D02*
X3681428Y-13516714D01*
X3681428Y-13545286D02*
X3695714Y-13531000D01*
X3724286Y-13516714D01*
X3767143Y-13516714D01*
X3795714Y-13531000D01*
X3810000Y-13559571D01*
X3810000Y-13716714D01*
X3810000Y-13559571D02*
X3824286Y-13531000D01*
X3852857Y-13516714D01*
X3895714Y-13516714D01*
X3924286Y-13531000D01*
X3938571Y-13559571D01*
X3938571Y-13716714D01*
X4524286Y-13402429D02*
X4267143Y-13788143D01*
X4910000Y-13416714D02*
X4938571Y-13416714D01*
X4967143Y-13431000D01*
X4981428Y-13445286D01*
X4995714Y-13473857D01*
X5010000Y-13531000D01*
X5010000Y-13602429D01*
X4995714Y-13659571D01*
X4981428Y-13688143D01*
X4967143Y-13702429D01*
X4938571Y-13716714D01*
X4910000Y-13716714D01*
X4881428Y-13702429D01*
X4867143Y-13688143D01*
X4852857Y-13659571D01*
X4838571Y-13602429D01*
X4838571Y-13531000D01*
X4852857Y-13473857D01*
X4867143Y-13445286D01*
X4881428Y-13431000D01*
X4910000Y-13416714D01*
X5138571Y-13688143D02*
X5152857Y-13702429D01*
X5138571Y-13716714D01*
X5124286Y-13702429D01*
X5138571Y-13688143D01*
X5138571Y-13716714D01*
X5338571Y-13416714D02*
X5367143Y-13416714D01*
X5395714Y-13431000D01*
X5410000Y-13445286D01*
X5424286Y-13473857D01*
X5438571Y-13531000D01*
X5438571Y-13602429D01*
X5424286Y-13659571D01*
X5410000Y-13688143D01*
X5395714Y-13702429D01*
X5367143Y-13716714D01*
X5338571Y-13716714D01*
X5310000Y-13702429D01*
X5295714Y-13688143D01*
X5281428Y-13659571D01*
X5267143Y-13602429D01*
X5267143Y-13531000D01*
X5281428Y-13473857D01*
X5295714Y-13445286D01*
X5310000Y-13431000D01*
X5338571Y-13416714D01*
X5538571Y-13416714D02*
X5724286Y-13416714D01*
X5624286Y-13531000D01*
X5667143Y-13531000D01*
X5695714Y-13545286D01*
X5710000Y-13559571D01*
X5724286Y-13588143D01*
X5724286Y-13659571D01*
X5710000Y-13688143D01*
X5695714Y-13702429D01*
X5667143Y-13716714D01*
X5581428Y-13716714D01*
X5552857Y-13702429D01*
X5538571Y-13688143D01*
X5867143Y-13716714D02*
X5924286Y-13716714D01*
X5952857Y-13702429D01*
X5967143Y-13688143D01*
X5995714Y-13645286D01*
X6010000Y-13588143D01*
X6010000Y-13473857D01*
X5995714Y-13445286D01*
X5981428Y-13431000D01*
X5952857Y-13416714D01*
X5895714Y-13416714D01*
X5867143Y-13431000D01*
X5852857Y-13445286D01*
X5838571Y-13473857D01*
X5838571Y-13545286D01*
X5852857Y-13573857D01*
X5867143Y-13588143D01*
X5895714Y-13602429D01*
X5952857Y-13602429D01*
X5981428Y-13588143D01*
X5995714Y-13573857D01*
X6010000Y-13545286D01*
X6124286Y-13416714D02*
X6124286Y-13473857D01*
X6238571Y-13416714D02*
X6238571Y-13473857D01*
X6681428Y-13831000D02*
X6667143Y-13816714D01*
X6638571Y-13773857D01*
X6624286Y-13745286D01*
X6610000Y-13702429D01*
X6595714Y-13631000D01*
X6595714Y-13573857D01*
X6610000Y-13502429D01*
X6624286Y-13459571D01*
X6638571Y-13431000D01*
X6667143Y-13388143D01*
X6681428Y-13373857D01*
X6924286Y-13516714D02*
X6924286Y-13716714D01*
X6852857Y-13402429D02*
X6781428Y-13616714D01*
X6967143Y-13616714D01*
X7238571Y-13716714D02*
X7067143Y-13716714D01*
X7152857Y-13716714D02*
X7152857Y-13416714D01*
X7124286Y-13459571D01*
X7095714Y-13488143D01*
X7067143Y-13502429D01*
X7595714Y-13716714D02*
X7595714Y-13416714D01*
X7724286Y-13716714D02*
X7724286Y-13559571D01*
X7710000Y-13531000D01*
X7681428Y-13516714D01*
X7638571Y-13516714D01*
X7610000Y-13531000D01*
X7595714Y-13545286D01*
X7910000Y-13716714D02*
X7881428Y-13702429D01*
X7867143Y-13688143D01*
X7852857Y-13659571D01*
X7852857Y-13573857D01*
X7867143Y-13545286D01*
X7881428Y-13531000D01*
X7910000Y-13516714D01*
X7952857Y-13516714D01*
X7981428Y-13531000D01*
X7995714Y-13545286D01*
X8010000Y-13573857D01*
X8010000Y-13659571D01*
X7995714Y-13688143D01*
X7981428Y-13702429D01*
X7952857Y-13716714D01*
X7910000Y-13716714D01*
X8181428Y-13716714D02*
X8152857Y-13702429D01*
X8138571Y-13673857D01*
X8138571Y-13416714D01*
X8410000Y-13702429D02*
X8381428Y-13716714D01*
X8324286Y-13716714D01*
X8295714Y-13702429D01*
X8281428Y-13673857D01*
X8281428Y-13559571D01*
X8295714Y-13531000D01*
X8324286Y-13516714D01*
X8381428Y-13516714D01*
X8410000Y-13531000D01*
X8424286Y-13559571D01*
X8424286Y-13588143D01*
X8281428Y-13616714D01*
X8538571Y-13702429D02*
X8567143Y-13716714D01*
X8624286Y-13716714D01*
X8652857Y-13702429D01*
X8667143Y-13673857D01*
X8667143Y-13659571D01*
X8652857Y-13631000D01*
X8624286Y-13616714D01*
X8581428Y-13616714D01*
X8552857Y-13602429D01*
X8538571Y-13573857D01*
X8538571Y-13559571D01*
X8552857Y-13531000D01*
X8581428Y-13516714D01*
X8624286Y-13516714D01*
X8652857Y-13531000D01*
X8767143Y-13831000D02*
X8781428Y-13816714D01*
X8810000Y-13773857D01*
X8824286Y-13745286D01*
X8838571Y-13702429D01*
X8852857Y-13631000D01*
X8852857Y-13573857D01*
X8838571Y-13502429D01*
X8824286Y-13459571D01*
X8810000Y-13431000D01*
X8781428Y-13388143D01*
X8767143Y-13373857D01*
M02*
