M48
; DRILL file {KiCad (5.1.4)-1} date 06/12/2019 09:41:01
; FORMAT={-:-/ absolute / metric / decimal}
; #@! TF.CreationDate,2019-12-06T09:41:01+01:00
; #@! TF.GenerationSoftware,Kicad,Pcbnew,(5.1.4)-1
; #@! TF.FileFunction,Plated,1,2,PTH
FMAT,2
METRIC
T1C0.400
T2C0.500
T3C0.762
T4C0.800
T5C0.900
T6C1.000
%
G90
G05
T1
X26.48Y-100.28
X27.13Y-97.75
X31.52Y-84.43
X31.57Y-78.0
X32.48Y-100.29
X33.2Y-59.02
X33.21Y-84.43
X33.21Y-84.43
X33.42Y-78.0
X33.88Y-93.65
X35.34Y-57.43
X38.09Y-77.27
X38.09Y-78.725
X38.42Y-100.21
X39.09Y-97.05
X40.95Y-59.32
X44.51Y-100.25
X45.85Y-93.74
X45.87Y-48.99
X45.87Y-50.715
X46.6Y-60.3
X46.6Y-62.5
X60.64Y-76.55
X60.64Y-78.125
X62.16Y-78.125
X62.33Y-90.56
X62.33Y-94.29
X63.75Y-56.29
X63.76Y-45.06
X64.1Y-98.08
X72.97Y-98.08
X76.31Y-44.75
X76.31Y-46.62
X76.31Y-55.59
X76.31Y-58.7
X86.31Y-44.96
X86.31Y-46.81
T2
X52.435Y-90.365
X52.435Y-92.235
T3
X62.165Y-73.34
X52.86Y-100.0
X55.4Y-100.0
X57.94Y-100.0
X64.93Y-104.2
X67.47Y-104.2
X82.23Y-98.725
X84.77Y-98.725
X72.83Y-104.2
X75.37Y-104.2
T4
X48.69Y-81.26
X48.69Y-88.88
X42.7Y-93.41
X50.32Y-93.41
X77.15Y-94.8
X84.77Y-94.8
X48.7Y-96.81
X56.32Y-96.81
X24.7Y-96.8
X32.32Y-96.8
X36.7Y-96.8
X44.32Y-96.8
X84.79Y-81.06
X84.79Y-88.68
X71.79Y-81.16
X71.79Y-83.66
X57.1Y-66.5
X57.1Y-69.0
X58.79Y-81.16
X58.79Y-88.78
X52.0Y-58.88
X52.0Y-66.5
X44.8Y-58.98
X44.8Y-66.6
X54.79Y-81.24
X54.79Y-88.86
X78.29Y-81.04
X78.29Y-88.66
X51.69Y-81.26
X51.69Y-83.76
X48.4Y-58.9
X48.4Y-66.52
X81.39Y-81.06
X81.39Y-83.56
X74.69Y-81.14
X74.69Y-88.76
X30.69Y-93.43
X38.31Y-93.43
X65.3Y-81.15
X65.3Y-88.77
X68.99Y-81.16
X68.99Y-88.78
X31.68Y-57.0
X39.3Y-57.0
X61.99Y-81.16
X61.99Y-83.66
T5
X22.16Y-101.9
X24.7Y-101.9
X40.16Y-101.9
X42.7Y-101.9
X46.16Y-101.9
X48.7Y-101.9
X28.16Y-101.9
X30.7Y-101.9
X34.16Y-101.9
X36.7Y-101.9
T6
X23.43Y-80.96
X25.97Y-80.96
X28.51Y-80.96
X31.05Y-80.96
X33.59Y-80.96
X36.13Y-80.96
X39.79Y-80.96
X42.33Y-80.96
X85.0Y-31.46
X85.0Y-34.0
X85.0Y-23.46
X85.0Y-26.0
X29.145Y-53.02
X29.145Y-73.34
X31.685Y-53.02
X31.685Y-73.34
X34.225Y-53.02
X34.225Y-73.34
X36.765Y-53.02
X36.765Y-73.34
X39.305Y-53.02
X39.305Y-73.34
X41.845Y-53.02
X41.845Y-73.34
X44.385Y-53.02
X44.385Y-73.34
X46.925Y-53.02
X46.925Y-73.34
X49.465Y-53.02
X49.465Y-73.34
X52.005Y-53.02
X52.005Y-73.34
X54.545Y-53.02
X54.545Y-73.34
X57.085Y-53.02
X57.085Y-73.34
X59.625Y-53.02
X59.625Y-73.34
X62.165Y-53.02
X85.0Y-39.46
X85.0Y-42.0
T0
M30
